<svg width="531" height="115" viewBox="0 0 531 115" fill="none" xmlns="http://www.w3.org/2000/svg">
<path d="M218.296 80.768C218.68 81.5787 218.872 82.368 218.872 83.136C218.872 84.544 218.296 85.7387 217.144 86.72C216.035 87.7013 214.755 88.192 213.304 88.192C212.323 88.192 211.427 87.936 210.616 87.424C209.805 86.912 209.165 86.144 208.696 85.12L205.816 78.656H185.08L182.136 85.12C181.667 86.144 181.005 86.912 180.152 87.424C179.341 87.936 178.445 88.192 177.464 88.192C176.013 88.192 174.691 87.7013 173.496 86.72C172.344 85.7387 171.768 84.544 171.768 83.136C171.768 82.368 171.96 81.5787 172.344 80.768L189.24 46.08C189.795 44.928 190.605 44.0533 191.672 43.456C192.781 42.816 193.997 42.496 195.32 42.496C196.6 42.496 197.795 42.816 198.904 43.456C200.013 44.0533 200.845 44.928 201.4 46.08L218.296 80.768ZM201.848 69.824L195.448 55.552L189.048 69.824H201.848ZM250.536 42.56C252.242 42.56 253.629 43.0507 254.696 44.032C255.805 44.9707 256.36 46.1867 256.36 47.68V83.136C256.36 84.7573 255.848 86.0373 254.824 86.976C253.8 87.9147 252.434 88.384 250.728 88.384C249.149 88.384 247.848 87.9787 246.824 87.168C245.842 86.3147 245.288 85.1627 245.16 83.712C244.264 85.2053 242.941 86.3787 241.192 87.232C239.485 88.0853 237.586 88.512 235.496 88.512C232.808 88.512 230.397 87.8293 228.264 86.464C226.173 85.056 224.53 83.0933 223.336 80.576C222.141 78.0587 221.544 75.1787 221.544 71.936C221.544 68.6933 222.12 65.856 223.272 63.424C224.466 60.9493 226.109 59.0507 228.2 57.728C230.333 56.4053 232.765 55.744 235.496 55.744C237.501 55.744 239.336 56.1493 241 56.96C242.706 57.7707 244.029 58.8587 244.968 60.224V47.488C244.968 45.9947 245.458 44.8 246.44 43.904C247.464 43.008 248.829 42.56 250.536 42.56ZM238.952 80C240.957 80 242.493 79.3173 243.56 77.952C244.626 76.5867 245.16 74.624 245.16 72.064C245.16 69.5467 244.626 67.6267 243.56 66.304C242.493 64.9387 240.957 64.256 238.952 64.256C236.989 64.256 235.474 64.9173 234.408 66.24C233.341 67.5627 232.808 69.4613 232.808 71.936C232.808 74.496 233.341 76.48 234.408 77.888C235.517 79.296 237.032 80 238.952 80ZM278.888 88.512C275.432 88.512 272.381 87.8507 269.736 86.528C267.133 85.1627 265.106 83.2427 263.656 80.768C262.248 78.2933 261.544 75.392 261.544 72.064C261.544 68.736 262.248 65.856 263.656 63.424C265.106 60.9493 267.133 59.0507 269.736 57.728C272.338 56.4053 275.389 55.744 278.888 55.744C282.386 55.744 285.437 56.4053 288.04 57.728C290.642 59.0507 292.648 60.9493 294.056 63.424C295.506 65.856 296.232 68.736 296.232 72.064C296.232 75.392 295.506 78.2933 294.056 80.768C292.648 83.2427 290.642 85.1627 288.04 86.528C285.437 87.8507 282.386 88.512 278.888 88.512ZM278.888 80C282.941 80 284.968 77.3547 284.968 72.064C284.968 66.7733 282.941 64.128 278.888 64.128C274.834 64.128 272.808 66.7733 272.808 72.064C272.808 77.3547 274.834 80 278.888 80ZM322.255 55.744C324.943 55.744 327.332 56.448 329.423 57.856C331.556 59.2213 333.199 61.1627 334.351 63.68C335.545 66.1973 336.143 69.0773 336.143 72.32C336.143 75.5627 335.545 78.4213 334.351 80.896C333.199 83.328 331.577 85.2053 329.487 86.528C327.396 87.8507 324.985 88.512 322.255 88.512C320.249 88.512 318.393 88.1067 316.687 87.296C315.023 86.4853 313.721 85.3973 312.783 84.032V94.912C312.783 96.4053 312.271 97.6 311.247 98.496C310.223 99.392 308.879 99.84 307.215 99.84C305.465 99.84 304.057 99.3493 302.991 98.368C301.924 97.4293 301.391 96.2133 301.391 94.72V61.12C301.391 59.5413 301.881 58.2827 302.863 57.344C303.887 56.3627 305.252 55.872 306.959 55.872C308.58 55.872 309.881 56.2987 310.863 57.152C311.887 58.0053 312.463 59.136 312.591 60.544C313.487 59.0507 314.788 57.8773 316.495 57.024C318.244 56.1707 320.164 55.744 322.255 55.744ZM318.799 80C320.761 80 322.255 79.3387 323.279 78.016C324.345 76.6933 324.879 74.7947 324.879 72.32C324.879 69.7173 324.345 67.7333 323.279 66.368C322.212 64.96 320.697 64.256 318.735 64.256C316.772 64.256 315.257 64.9387 314.191 66.304C313.124 67.6693 312.591 69.632 312.591 72.192C312.591 74.7093 313.124 76.6507 314.191 78.016C315.257 79.3387 316.793 80 318.799 80ZM359.64 80.256C362.498 80.4267 363.928 81.7067 363.928 84.096C363.928 85.5893 363.352 86.6987 362.2 87.424C361.048 88.1493 359.405 88.448 357.272 88.32L355.48 88.192C351.64 87.8933 348.717 86.7413 346.712 84.736C344.749 82.688 343.768 79.8507 343.768 76.224V64.896H341.911C338.498 64.896 336.791 63.488 336.791 60.672C336.791 57.8987 338.498 56.512 341.911 56.512H343.768V52.352C343.768 50.7307 344.28 49.4507 345.304 48.512C346.328 47.5307 347.714 47.04 349.464 47.04C351.213 47.04 352.6 47.5307 353.624 48.512C354.648 49.4507 355.16 50.7307 355.16 52.352V56.512H358.68C362.093 56.512 363.8 57.8987 363.8 60.672C363.8 63.488 362.093 64.896 358.68 64.896H355.16V77.184C355.16 77.9947 355.394 78.6773 355.864 79.232C356.376 79.7867 357.016 80.0853 357.784 80.128L359.64 80.256ZM410.921 80.768C411.305 81.5787 411.497 82.368 411.497 83.136C411.497 84.544 410.921 85.7387 409.769 86.72C408.66 87.7013 407.38 88.192 405.929 88.192C404.948 88.192 404.052 87.936 403.241 87.424C402.43 86.912 401.79 86.144 401.321 85.12L398.441 78.656H377.705L374.761 85.12C374.292 86.144 373.63 86.912 372.777 87.424C371.966 87.936 371.07 88.192 370.089 88.192C368.638 88.192 367.316 87.7013 366.121 86.72C364.969 85.7387 364.393 84.544 364.393 83.136C364.393 82.368 364.585 81.5787 364.969 80.768L381.865 46.08C382.42 44.928 383.23 44.0533 384.297 43.456C385.406 42.816 386.622 42.496 387.945 42.496C389.225 42.496 390.42 42.816 391.529 43.456C392.638 44.0533 393.47 44.928 394.025 46.08L410.921 80.768ZM394.473 69.824L388.073 55.552L381.673 69.824H394.473ZM436.505 55.744C439.193 55.744 441.582 56.448 443.673 57.856C445.806 59.2213 447.449 61.1627 448.601 63.68C449.795 66.1973 450.393 69.0773 450.393 72.32C450.393 75.5627 449.795 78.4213 448.601 80.896C447.449 83.328 445.827 85.2053 443.737 86.528C441.646 87.8507 439.235 88.512 436.505 88.512C434.499 88.512 432.643 88.1067 430.937 87.296C429.273 86.4853 427.971 85.3973 427.033 84.032V94.912C427.033 96.4053 426.521 97.6 425.497 98.496C424.473 99.392 423.129 99.84 421.465 99.84C419.715 99.84 418.307 99.3493 417.241 98.368C416.174 97.4293 415.641 96.2133 415.641 94.72V61.12C415.641 59.5413 416.131 58.2827 417.113 57.344C418.137 56.3627 419.502 55.872 421.209 55.872C422.83 55.872 424.131 56.2987 425.113 57.152C426.137 58.0053 426.713 59.136 426.841 60.544C427.737 59.0507 429.038 57.8773 430.745 57.024C432.494 56.1707 434.414 55.744 436.505 55.744ZM433.049 80C435.011 80 436.505 79.3387 437.529 78.016C438.595 76.6933 439.129 74.7947 439.129 72.32C439.129 69.7173 438.595 67.7333 437.529 66.368C436.462 64.96 434.947 64.256 432.985 64.256C431.022 64.256 429.507 64.9387 428.441 66.304C427.374 67.6693 426.841 69.632 426.841 72.192C426.841 74.7093 427.374 76.6507 428.441 78.016C429.507 79.3387 431.043 80 433.049 80ZM476.505 55.744C479.193 55.744 481.582 56.448 483.673 57.856C485.806 59.2213 487.449 61.1627 488.601 63.68C489.795 66.1973 490.393 69.0773 490.393 72.32C490.393 75.5627 489.795 78.4213 488.601 80.896C487.449 83.328 485.827 85.2053 483.737 86.528C481.646 87.8507 479.235 88.512 476.505 88.512C474.499 88.512 472.643 88.1067 470.937 87.296C469.273 86.4853 467.971 85.3973 467.033 84.032V94.912C467.033 96.4053 466.521 97.6 465.497 98.496C464.473 99.392 463.129 99.84 461.465 99.84C459.715 99.84 458.307 99.3493 457.241 98.368C456.174 97.4293 455.641 96.2133 455.641 94.72V61.12C455.641 59.5413 456.131 58.2827 457.113 57.344C458.137 56.3627 459.502 55.872 461.209 55.872C462.83 55.872 464.131 56.2987 465.113 57.152C466.137 58.0053 466.713 59.136 466.841 60.544C467.737 59.0507 469.038 57.8773 470.745 57.024C472.494 56.1707 474.414 55.744 476.505 55.744ZM473.049 80C475.011 80 476.505 79.3387 477.529 78.016C478.595 76.6933 479.129 74.7947 479.129 72.32C479.129 69.7173 478.595 67.7333 477.529 66.368C476.462 64.96 474.947 64.256 472.985 64.256C471.022 64.256 469.507 64.9387 468.441 66.304C467.374 67.6693 466.841 69.632 466.841 72.192C466.841 74.7093 467.374 76.6507 468.441 78.016C469.507 79.3387 471.043 80 473.049 80Z" fill="#242936"/>
<path d="M218.296 80.768L218.748 80.5539L218.746 80.549L218.296 80.768ZM217.144 86.72L216.82 86.3393L216.813 86.3455L217.144 86.72ZM210.616 87.424L210.349 87.8467L210.616 87.424ZM208.696 85.12L208.239 85.3235L208.241 85.3283L208.696 85.12ZM205.816 78.656L206.273 78.4525L206.141 78.156H205.816V78.656ZM185.08 78.656V78.156H184.758L184.625 78.4488L185.08 78.656ZM182.136 85.12L182.591 85.3283L182.591 85.3272L182.136 85.12ZM180.152 87.424L179.895 86.9951L179.885 87.0013L180.152 87.424ZM173.496 86.72L173.172 87.1007L173.179 87.1064L173.496 86.72ZM172.344 80.768L171.894 80.549L171.892 80.554L172.344 80.768ZM189.24 46.08L189.69 46.299L189.691 46.2969L189.24 46.08ZM191.672 43.456L191.916 43.8923L191.922 43.8891L191.672 43.456ZM198.904 43.456L198.654 43.8891L198.66 43.8928L198.667 43.8962L198.904 43.456ZM201.4 46.08L200.949 46.2969L200.95 46.2989L201.4 46.08ZM201.848 69.824V70.324H202.62L202.304 69.6194L201.848 69.824ZM195.448 55.552L195.904 55.3474L195.448 54.33L194.992 55.3474L195.448 55.552ZM189.048 69.824L188.592 69.6194L188.276 70.324H189.048V69.824ZM217.844 80.982C218.202 81.737 218.372 82.4535 218.372 83.136H219.372C219.372 82.2825 219.158 81.4204 218.748 80.554L217.844 80.982ZM218.372 83.136C218.372 84.3855 217.87 85.445 216.82 86.3394L217.468 87.1006C218.722 86.0324 219.372 84.7025 219.372 83.136H218.372ZM216.813 86.3455C215.793 87.2478 214.63 87.692 213.304 87.692V88.692C214.88 88.692 216.277 88.1548 217.475 87.0945L216.813 86.3455ZM213.304 87.692C212.415 87.692 211.612 87.4615 210.883 87.0013L210.349 87.8467C211.242 88.4104 212.23 88.692 213.304 88.692V87.692ZM210.883 87.0013C210.168 86.5495 209.587 85.8632 209.151 84.9117L208.241 85.3283C208.744 86.4248 209.443 87.2745 210.349 87.8467L210.883 87.0013ZM209.153 84.9165L206.273 78.4525L205.359 78.8595L208.239 85.3235L209.153 84.9165ZM205.816 78.156H185.08V79.156H205.816V78.156ZM184.625 78.4488L181.681 84.9128L182.591 85.3272L185.535 78.8632L184.625 78.4488ZM181.681 84.9117C181.248 85.8565 180.65 86.5418 179.895 86.9953L180.409 87.8527C181.36 87.2822 182.085 86.4315 182.591 85.3283L181.681 84.9117ZM179.885 87.0013C179.156 87.4615 178.353 87.692 177.464 87.692V88.692C178.538 88.692 179.526 88.4104 180.419 87.8467L179.885 87.0013ZM177.464 87.692C176.137 87.692 174.925 87.2467 173.813 86.3336L173.179 87.1064C174.456 88.156 175.89 88.692 177.464 88.692V87.692ZM173.82 86.3394C172.77 85.445 172.268 84.3855 172.268 83.136H171.268C171.268 84.7025 171.918 86.0324 173.172 87.1006L173.82 86.3394ZM172.268 83.136C172.268 82.4535 172.438 81.737 172.796 80.982L171.892 80.554C171.482 81.4204 171.268 82.2825 171.268 83.136H172.268ZM172.794 80.9869L189.69 46.2989L188.79 45.861L171.894 80.549L172.794 80.9869ZM189.691 46.2969C190.203 45.233 190.944 44.437 191.916 43.8923L191.428 43.0197C190.267 43.6697 189.387 44.623 188.79 45.8631L189.691 46.2969ZM191.922 43.8891C192.953 43.2944 194.082 42.996 195.32 42.996V41.996C193.913 41.996 192.61 42.3376 191.422 43.0229L191.922 43.8891ZM195.32 42.996C196.512 42.996 197.621 43.2929 198.654 43.8891L199.154 43.0229C197.969 42.3391 196.688 41.996 195.32 41.996V42.996ZM198.667 43.8962C199.682 44.4427 200.44 45.2385 200.95 46.2969L201.851 45.8631C201.251 44.6175 200.345 43.6639 199.141 43.0158L198.667 43.8962ZM200.95 46.2989L217.846 80.9869L218.746 80.549L201.85 45.861L200.95 46.2989ZM202.304 69.6194L195.904 55.3474L194.992 55.7566L201.392 70.0286L202.304 69.6194ZM194.992 55.3474L188.592 69.6194L189.504 70.0286L195.904 55.7566L194.992 55.3474ZM189.048 70.324H201.848V69.324H189.048V70.324ZM254.696 44.032L254.357 44.4L254.365 44.407L254.373 44.4137L254.696 44.032ZM254.824 86.976L255.161 87.3446L254.824 86.976ZM246.824 87.168L246.495 87.5453L246.504 87.5529L246.513 87.56L246.824 87.168ZM245.16 83.712L245.658 83.6681L245.522 82.1354L244.731 83.4548L245.16 83.712ZM241.191 87.232L240.972 86.7826L240.968 86.7848L241.191 87.232ZM228.264 86.464L227.984 86.8788L227.994 86.8851L228.264 86.464ZM223.335 80.576L223.787 80.3616L223.335 80.576ZM223.271 63.424L222.821 63.2066L222.82 63.21L223.271 63.424ZM228.2 57.728L227.936 57.303L227.932 57.3055L228.2 57.728ZM240.999 56.96L240.781 57.4095L240.785 57.4116L240.999 56.96ZM244.967 60.224L244.555 60.5073L245.467 61.8338V60.224H244.967ZM246.439 43.904L246.11 43.5276L246.102 43.5348L246.439 43.904ZM243.56 66.304L243.165 66.6119L243.17 66.6179L243.56 66.304ZM234.408 66.24L234.018 65.9261L234.408 66.24ZM234.408 77.888L234.009 78.19L234.015 78.1974L234.408 77.888ZM250.535 43.06C252.14 43.06 253.399 43.5183 254.357 44.4L255.034 43.664C253.859 42.583 252.344 42.06 250.535 42.06V43.06ZM254.373 44.4137C255.366 45.2544 255.859 46.3291 255.859 47.68H256.859C256.859 46.0443 256.244 44.687 255.018 43.6503L254.373 44.4137ZM255.859 47.68V83.136H256.859V47.68H255.859ZM255.859 83.136C255.859 84.6428 255.389 85.7795 254.486 86.6074L255.161 87.3446C256.306 86.2952 256.859 84.8718 256.859 83.136H255.859ZM254.486 86.6074C253.574 87.4433 252.339 87.884 250.728 87.884V88.884C252.529 88.884 254.025 88.3861 255.161 87.3446L254.486 86.6074ZM250.728 87.884C249.237 87.884 248.052 87.503 247.134 86.776L246.513 87.56C247.643 88.4543 249.06 88.884 250.728 88.884V87.884ZM247.152 86.7907C246.28 86.0327 245.776 85.0066 245.658 83.6681L244.661 83.7559C244.799 85.3188 245.404 86.5966 246.495 87.5453L247.152 86.7907ZM244.731 83.4548C243.89 84.8556 242.645 85.9665 240.972 86.7826L241.411 87.6814C243.236 86.7908 244.637 85.5551 245.588 83.9692L244.731 83.4548ZM240.968 86.7848C239.337 87.6002 237.516 88.012 235.495 88.012V89.012C237.656 89.012 239.633 88.5705 241.415 87.6792L240.968 86.7848ZM235.495 88.012C232.897 88.012 230.581 87.3535 228.533 86.0429L227.994 86.8851C230.213 88.3052 232.718 89.012 235.495 89.012V88.012ZM228.543 86.0493C226.534 84.6966 224.948 82.8067 223.787 80.3616L222.884 80.7904C224.113 83.38 225.811 85.4154 227.984 86.8787L228.543 86.0493ZM223.787 80.3616C222.629 77.9214 222.043 75.1166 222.043 71.936H221.043C221.043 75.2407 221.653 78.1959 222.884 80.7904L223.787 80.3616ZM222.043 71.936C222.043 68.7524 222.609 65.9908 223.723 63.638L222.82 63.21C221.63 65.7212 221.043 68.6342 221.043 71.936H222.043ZM223.722 63.6414C224.88 61.2412 226.464 59.4178 228.467 58.1505L227.932 57.3055C225.754 58.6835 224.052 60.6574 222.821 63.2066L223.722 63.6414ZM228.463 58.153C230.51 56.8836 232.849 56.244 235.495 56.244V55.244C232.68 55.244 230.155 55.927 227.936 57.303L228.463 58.153ZM235.495 56.244C237.431 56.244 239.19 56.6348 240.781 57.4095L241.218 56.5105C239.481 55.6639 237.57 55.244 235.495 55.244V56.244ZM240.785 57.4116C242.423 58.1899 243.673 59.2242 244.555 60.5073L245.38 59.9407C244.384 58.4932 242.989 57.3514 241.214 56.5084L240.785 57.4116ZM245.467 60.224V47.488H244.467V60.224H245.467ZM245.467 47.488C245.467 46.1159 245.912 45.0623 246.777 44.2732L246.102 43.5348C245.004 44.5377 244.467 45.8734 244.467 47.488H245.467ZM246.769 44.2803C247.68 43.4828 248.918 43.06 250.535 43.06V42.06C248.74 42.06 247.247 42.5332 246.11 43.5277L246.769 44.2803ZM238.951 80.5C241.083 80.5 242.776 79.7665 243.954 78.2598L243.165 77.6442C242.209 78.8682 240.83 79.5 238.951 79.5V80.5ZM243.954 78.2598C245.115 76.7733 245.66 74.6844 245.66 72.064H244.66C244.66 74.5636 244.137 76.4 243.165 77.6442L243.954 78.2598ZM245.66 72.064C245.66 69.4854 245.114 67.4356 243.949 65.9901L243.17 66.6179C244.138 67.8177 244.66 69.6079 244.66 72.064H245.66ZM243.954 65.9962C242.776 64.4895 241.083 63.756 238.951 63.756V64.756C240.83 64.756 242.209 65.3878 243.165 66.6118L243.954 65.9962ZM238.951 63.756C236.864 63.756 235.195 64.4667 234.018 65.9261L234.797 66.5539C235.753 65.368 237.114 64.756 238.951 64.756V63.756ZM234.018 65.9261C232.854 67.3704 232.308 69.3977 232.308 71.936H233.308C233.308 69.525 233.828 67.755 234.797 66.5539L234.018 65.9261ZM232.308 71.936C232.308 74.5578 232.853 76.6637 234.009 78.1899L234.806 77.5861C233.829 76.2963 233.308 74.4342 233.308 71.936H232.308ZM234.015 78.1974C235.226 79.7353 236.891 80.5 238.951 80.5V79.5C237.172 79.5 235.807 78.8567 234.8 77.5786L234.015 78.1974ZM269.736 86.528L269.503 86.9709L269.512 86.9752L269.736 86.528ZM263.656 80.768L263.221 81.0153L263.224 81.0209L263.656 80.768ZM263.656 63.424L263.224 63.1711L263.223 63.1735L263.656 63.424ZM294.055 63.424L293.621 63.6713L293.626 63.6801L294.055 63.424ZM294.055 80.768L293.624 80.5151L293.621 80.5207L294.055 80.768ZM288.04 86.528L288.266 86.9738L288.272 86.9708L288.04 86.528ZM278.887 88.012C275.496 88.012 272.524 87.3633 269.959 86.0808L269.512 86.9752C272.237 88.338 275.367 89.012 278.887 89.012V88.012ZM269.968 86.0852C267.446 84.7622 265.489 82.9071 264.087 80.5151L263.224 81.0209C264.723 83.5783 266.82 85.5631 269.503 86.9708L269.968 86.0852ZM264.09 80.5207C262.732 78.1333 262.044 75.3201 262.044 72.064H261.044C261.044 75.4639 261.763 78.4534 263.221 81.0153L264.09 80.5207ZM262.044 72.064C262.044 68.8077 262.732 66.0174 264.088 63.6745L263.223 63.1735C261.763 65.6946 261.044 68.6643 261.044 72.064H262.044ZM264.087 63.6769C265.488 61.2863 267.443 59.4539 269.962 58.1737L269.509 57.2823C266.823 58.6475 264.724 60.6124 263.224 63.1711L264.087 63.6769ZM269.962 58.1737C272.482 56.8932 275.452 56.244 278.887 56.244V55.244C275.326 55.244 272.194 55.9175 269.509 57.2823L269.962 58.1737ZM278.887 56.244C282.323 56.244 285.293 56.8932 287.813 58.1737L288.266 57.2823C285.581 55.9175 282.449 55.244 278.887 55.244V56.244ZM287.813 58.1737C290.331 59.4532 292.263 61.284 293.621 63.6713L294.49 63.1767C293.032 60.6147 290.954 58.6481 288.266 57.2823L287.813 58.1737ZM293.626 63.6801C295.023 66.022 295.732 68.8102 295.732 72.064H296.732C296.732 68.6618 295.989 65.69 294.485 63.1679L293.626 63.6801ZM295.732 72.064C295.732 75.3175 295.023 78.1287 293.624 80.5151L294.487 81.0209C295.989 78.458 296.732 75.4665 296.732 72.064H295.732ZM293.621 80.5207C292.262 82.9094 290.328 84.7628 287.807 86.0852L288.272 86.9708C290.956 85.5625 293.033 83.5759 294.49 81.0153L293.621 80.5207ZM287.813 86.0823C285.293 87.3628 282.323 88.012 278.887 88.012V89.012C282.449 89.012 285.581 88.3385 288.266 86.9737L287.813 86.0823ZM278.887 80.5C281.032 80.5 282.716 79.7933 283.844 78.3201C284.954 76.8721 285.467 74.7591 285.467 72.064H284.467C284.467 74.6596 283.968 76.5146 283.051 77.7119C282.153 78.8841 280.796 79.5 278.887 79.5V80.5ZM285.467 72.064C285.467 69.3689 284.954 67.2559 283.844 65.8079C282.716 64.3347 281.032 63.628 278.887 63.628V64.628C280.796 64.628 282.153 65.2439 283.051 66.4161C283.968 67.6134 284.467 69.4684 284.467 72.064H285.467ZM278.887 63.628C276.743 63.628 275.059 64.3347 273.931 65.8079C272.821 67.2559 272.308 69.3689 272.308 72.064H273.308C273.308 69.4684 273.807 67.6134 274.724 66.4161C275.622 65.2439 276.979 64.628 278.887 64.628V63.628ZM272.308 72.064C272.308 74.7591 272.821 76.8721 273.931 78.3201C275.059 79.7933 276.743 80.5 278.887 80.5V79.5C276.979 79.5 275.622 78.8841 274.724 77.7119C273.807 76.5146 273.308 74.6596 273.308 72.064H272.308ZM329.423 57.856L329.143 58.2708L329.153 58.2771L329.423 57.856ZM334.35 63.68L333.896 63.8881L333.899 63.8944L334.35 63.68ZM334.35 80.896L333.9 80.6786L333.899 80.682L334.35 80.896ZM329.486 86.528L329.219 86.1055L329.486 86.528ZM316.686 87.296L316.467 87.7455L316.472 87.7476L316.686 87.296ZM312.783 84.032L313.195 83.7487L312.283 82.4222V84.032H312.783ZM311.247 98.496L311.576 98.8723L311.247 98.496ZM302.99 98.368L303.329 97.9999L303.321 97.9926L302.99 98.368ZM302.863 57.344L303.208 57.7053L303.208 57.705L302.863 57.344ZM310.863 57.152L310.534 57.5294L310.542 57.5361L310.863 57.152ZM312.59 60.544L312.093 60.5893L312.231 62.1146L313.019 60.8012L312.59 60.544ZM316.495 57.024L316.275 56.5746L316.271 56.5768L316.495 57.024ZM323.279 78.016L322.889 77.7021L322.883 77.7099L323.279 78.016ZM323.279 66.368L322.88 66.67L322.884 66.6758L323.279 66.368ZM314.191 66.304L313.796 65.9962L314.191 66.304ZM314.191 78.016L313.796 78.3239L313.801 78.3299L314.191 78.016ZM322.255 56.244C324.85 56.244 327.141 56.9221 329.143 58.2707L329.702 57.4413C327.523 55.9739 325.035 55.244 322.255 55.244V56.244ZM329.153 58.2771C331.198 59.5859 332.78 61.4496 333.896 63.8881L334.805 63.4719C333.617 60.8757 331.914 58.8568 329.692 57.4349L329.153 58.2771ZM333.899 63.8944C335.057 66.3346 335.643 69.1394 335.643 72.32H336.643C336.643 69.0153 336.033 66.0601 334.802 63.4656L333.899 63.8944ZM335.643 72.32C335.643 75.5008 335.057 78.2829 333.9 80.6786L334.801 81.1134C336.034 78.5598 336.643 75.6245 336.643 72.32H335.643ZM333.899 80.682C332.783 83.0362 331.223 84.8378 329.219 86.1055L329.754 86.9505C331.932 85.5728 333.614 83.6198 334.802 81.11L333.899 80.682ZM329.219 86.1055C327.217 87.3724 324.901 88.012 322.255 88.012V89.012C325.07 89.012 327.575 88.329 329.754 86.9505L329.219 86.1055ZM322.255 88.012C320.319 88.012 318.537 87.6213 316.901 86.8444L316.472 87.7476C318.25 88.5921 320.18 89.012 322.255 89.012V88.012ZM316.905 86.8465C315.31 86.0691 314.079 85.0349 313.195 83.7487L312.37 84.3153C313.364 85.7598 314.735 86.9015 316.468 87.7455L316.905 86.8465ZM312.283 84.032V94.912H313.283V84.032H312.283ZM312.283 94.912C312.283 96.277 311.821 97.3286 310.917 98.1197L311.576 98.8723C312.72 97.8714 313.283 96.5337 313.283 94.912H312.283ZM310.917 98.1197C310.004 98.9192 308.786 99.34 307.215 99.34V100.34C308.971 100.34 310.441 99.8648 311.576 98.8723L310.917 98.1197ZM307.215 99.34C305.563 99.34 304.285 98.8796 303.329 98L302.652 98.736C303.829 99.8191 305.367 100.34 307.215 100.34V99.34ZM303.321 97.9926C302.368 97.1543 301.891 96.078 301.891 94.72H300.891C300.891 96.3487 301.48 97.7044 302.66 98.7434L303.321 97.9926ZM301.891 94.72V61.12H300.891V94.72H301.891ZM301.891 61.12C301.891 59.6537 302.342 58.5342 303.208 57.7053L302.517 56.9827C301.421 58.0311 300.891 59.429 300.891 61.12H301.891ZM303.208 57.705C304.121 56.8304 305.353 56.372 306.958 56.372V55.372C305.151 55.372 303.652 55.8949 302.517 56.983L303.208 57.705ZM306.958 56.372C308.49 56.372 309.665 56.7732 310.534 57.5293L311.191 56.7747C310.097 55.8241 308.67 55.372 306.958 55.372V56.372ZM310.542 57.5361C311.458 58.299 311.976 59.3044 312.093 60.5893L313.088 60.4987C312.949 58.9676 312.315 57.7117 311.183 56.7679L310.542 57.5361ZM313.019 60.8012C313.862 59.3972 315.088 58.2862 316.718 57.4712L316.271 56.5768C314.488 57.4684 313.111 58.7041 312.162 60.2868L313.019 60.8012ZM316.714 57.4734C318.39 56.6558 320.234 56.244 322.255 56.244V55.244C320.094 55.244 318.098 55.6855 316.275 56.5746L316.714 57.4734ZM318.798 80.5C320.886 80.5 322.538 79.7891 323.674 78.3221L322.883 77.7099C321.971 78.8882 320.637 79.5 318.798 79.5V80.5ZM323.668 78.3299C324.832 76.8856 325.379 74.8583 325.379 72.32H324.379C324.379 74.731 323.858 76.501 322.889 77.7021L323.668 78.3299ZM325.379 72.32C325.379 69.6593 324.835 67.5479 323.673 66.0602L322.884 66.6758C323.856 67.9188 324.379 69.7754 324.379 72.32H325.379ZM323.677 66.0661C322.504 64.5182 320.834 63.756 318.734 63.756V64.756C320.561 64.756 321.919 65.4018 322.88 66.6699L323.677 66.0661ZM318.734 63.756C316.641 63.756 314.971 64.4924 313.796 65.9962L314.585 66.6118C315.543 65.385 316.903 64.756 318.734 64.756V63.756ZM313.796 65.9962C312.635 67.4827 312.09 69.5716 312.09 72.192H313.09C313.09 69.6924 313.613 67.856 314.585 66.6118L313.796 65.9962ZM312.09 72.192C312.09 74.772 312.636 76.8386 313.796 78.3238L314.585 77.7082C313.612 76.4628 313.09 74.6466 313.09 72.192H312.09ZM313.801 78.3299C314.98 79.792 316.672 80.5 318.798 80.5V79.5C316.914 79.5 315.534 78.8853 314.58 77.7021L313.801 78.3299ZM359.639 80.256L359.605 80.7548L359.61 80.7551L359.639 80.256ZM362.199 87.424L361.933 87.0009L362.199 87.424ZM357.271 88.32L357.236 88.8188L357.242 88.8191L357.271 88.32ZM355.48 88.192L355.441 88.6905L355.444 88.6907L355.48 88.192ZM346.712 84.736L346.35 85.082L346.358 85.0896L346.712 84.736ZM343.768 64.896H344.268V64.396H343.768V64.896ZM343.768 56.512V57.012H344.268V56.512H343.768ZM345.303 48.512L345.641 48.8807L345.649 48.873L345.303 48.512ZM353.624 48.512L353.277 48.8731L353.286 48.8806L353.624 48.512ZM355.16 56.512H354.66V57.012H355.16V56.512ZM355.16 64.896V64.396H354.66V64.896H355.16ZM355.863 79.232L355.482 79.555L355.489 79.5632L355.496 79.5711L355.863 79.232ZM357.784 80.128L357.818 79.6291L357.811 79.6288L357.784 80.128ZM359.61 80.7551C360.98 80.8369 361.924 81.1809 362.522 81.7165C363.106 82.2392 363.428 83.006 363.428 84.096H364.428C364.428 82.7967 364.035 81.7288 363.189 80.9715C362.358 80.2271 361.158 79.8458 359.669 79.7569L359.61 80.7551ZM363.428 84.096C363.428 85.4374 362.924 86.3772 361.933 87.0009L362.466 87.8471C363.779 87.0201 364.428 85.7413 364.428 84.096H363.428ZM361.933 87.0009C360.907 87.647 359.386 87.9459 357.301 87.8209L357.242 88.8191C359.424 88.9501 361.188 88.6517 362.466 87.8471L361.933 87.0009ZM357.307 87.8213L355.515 87.6933L355.444 88.6907L357.236 88.8187L357.307 87.8213ZM355.518 87.6935C351.754 87.4008 348.96 86.2775 347.065 84.3824L346.358 85.0896C348.474 87.2052 351.525 88.3859 355.441 88.6905L355.518 87.6935ZM347.072 84.39C345.222 82.459 344.268 79.7591 344.268 76.224H343.268C343.268 79.9422 344.276 82.917 346.351 85.082L347.072 84.39ZM344.268 76.224V64.896H343.268V76.224H344.268ZM343.768 64.396H341.911V65.396H343.768V64.396ZM341.911 64.396C340.261 64.396 339.116 64.0536 338.39 63.4543C337.682 62.8702 337.292 61.9749 337.292 60.672H336.292C336.292 62.1851 336.755 63.4018 337.753 64.2257C338.734 65.0344 340.149 65.396 341.911 65.396V64.396ZM337.292 60.672C337.292 59.393 337.68 58.5144 338.387 57.9401C339.113 57.3496 340.26 57.012 341.911 57.012V56.012C340.15 56.012 338.736 56.3677 337.756 57.1639C336.756 57.9763 336.292 59.1776 336.292 60.672H337.292ZM341.911 57.012H343.768V56.012H341.911V57.012ZM344.268 56.512V52.352H343.268V56.512H344.268ZM344.268 52.352C344.268 50.8452 344.738 49.7085 345.641 48.8806L344.966 48.1434C343.821 49.1928 343.268 50.6162 343.268 52.352H344.268ZM345.649 48.873C346.56 48.0006 347.811 47.54 349.464 47.54V46.54C347.617 46.54 346.095 47.0607 344.958 48.151L345.649 48.873ZM349.464 47.54C351.116 47.54 352.367 48.0006 353.278 48.873L353.969 48.151C352.832 47.0607 351.31 46.54 349.464 46.54V47.54ZM353.286 48.8806C354.189 49.7085 354.66 50.8452 354.66 52.352H355.66C355.66 50.6162 355.106 49.1928 353.961 48.1434L353.286 48.8806ZM354.66 52.352V56.512H355.66V52.352H354.66ZM355.16 57.012H358.68V56.012H355.16V57.012ZM358.68 57.012C360.331 57.012 361.478 57.3496 362.204 57.9401C362.911 58.5144 363.299 59.393 363.299 60.672H364.299C364.299 59.1776 363.835 57.9763 362.835 57.1639C361.855 56.3677 360.441 56.012 358.68 56.012V57.012ZM363.299 60.672C363.299 61.9749 362.909 62.8702 362.201 63.4543C361.475 64.0536 360.33 64.396 358.68 64.396V65.396C360.442 65.396 361.857 65.0344 362.838 64.2257C363.836 63.4018 364.299 62.1851 364.299 60.672H363.299ZM358.68 64.396H355.16V65.396H358.68V64.396ZM354.66 64.896V77.184H355.66V64.896H354.66ZM354.66 77.184C354.66 78.0983 354.927 78.8995 355.482 79.555L356.245 78.909C355.861 78.4552 355.66 77.891 355.66 77.184H354.66ZM355.496 79.5711C356.098 80.2233 356.861 80.5775 357.756 80.6272L357.811 79.6288C357.17 79.5932 356.653 79.3501 356.231 78.8929L355.496 79.5711ZM357.749 80.6268L359.605 80.7548L359.674 79.7572L357.818 79.6292L357.749 80.6268ZM410.921 80.768L411.373 80.5539L411.371 80.549L410.921 80.768ZM409.769 86.72L409.445 86.3393L409.438 86.3455L409.769 86.72ZM403.241 87.424L402.974 87.8467L403.241 87.424ZM401.321 85.12L400.864 85.3235L400.866 85.3283L401.321 85.12ZM398.441 78.656L398.898 78.4525L398.766 78.156H398.441V78.656ZM377.705 78.656V78.156H377.383L377.25 78.4488L377.705 78.656ZM374.761 85.12L375.216 85.3283L375.216 85.3272L374.761 85.12ZM372.777 87.424L372.52 86.9951L372.51 87.0013L372.777 87.424ZM366.121 86.72L365.797 87.1007L365.804 87.1064L366.121 86.72ZM364.969 80.768L364.519 80.549L364.517 80.554L364.969 80.768ZM381.865 46.08L382.315 46.299L382.316 46.2969L381.865 46.08ZM384.297 43.456L384.541 43.8923L384.547 43.8891L384.297 43.456ZM391.529 43.456L391.279 43.8891L391.285 43.8928L391.292 43.8962L391.529 43.456ZM394.025 46.08L393.574 46.2969L393.575 46.2989L394.025 46.08ZM394.473 69.824V70.324H395.245L394.929 69.6194L394.473 69.824ZM388.073 55.552L388.529 55.3474L388.073 54.33L387.617 55.3474L388.073 55.552ZM381.673 69.824L381.217 69.6194L380.901 70.324H381.673V69.824ZM410.469 80.982C410.827 81.737 410.997 82.4535 410.997 83.136H411.997C411.997 82.2825 411.783 81.4204 411.373 80.554L410.469 80.982ZM410.997 83.136C410.997 84.3855 410.495 85.445 409.445 86.3394L410.093 87.1006C411.347 86.0324 411.997 84.7025 411.997 83.136H410.997ZM409.438 86.3455C408.418 87.2478 407.255 87.692 405.929 87.692V88.692C407.505 88.692 408.902 88.1548 410.1 87.0945L409.438 86.3455ZM405.929 87.692C405.04 87.692 404.237 87.4615 403.508 87.0013L402.974 87.8467C403.867 88.4104 404.855 88.692 405.929 88.692V87.692ZM403.508 87.0013C402.793 86.5495 402.212 85.8632 401.776 84.9117L400.866 85.3283C401.369 86.4248 402.068 87.2745 402.974 87.8467L403.508 87.0013ZM401.778 84.9165L398.898 78.4525L397.984 78.8595L400.864 85.3235L401.778 84.9165ZM398.441 78.156H377.705V79.156H398.441V78.156ZM377.25 78.4488L374.306 84.9128L375.216 85.3272L378.16 78.8632L377.25 78.4488ZM374.306 84.9117C373.873 85.8565 373.275 86.5418 372.52 86.9953L373.034 87.8527C373.985 87.2822 374.71 86.4315 375.216 85.3283L374.306 84.9117ZM372.51 87.0013C371.781 87.4615 370.978 87.692 370.089 87.692V88.692C371.163 88.692 372.151 88.4104 373.044 87.8467L372.51 87.0013ZM370.089 87.692C368.762 87.692 367.55 87.2467 366.438 86.3336L365.804 87.1064C367.081 88.156 368.515 88.692 370.089 88.692V87.692ZM366.445 86.3394C365.395 85.445 364.893 84.3855 364.893 83.136H363.893C363.893 84.7025 364.543 86.0324 365.797 87.1006L366.445 86.3394ZM364.893 83.136C364.893 82.4535 365.063 81.737 365.421 80.982L364.517 80.554C364.107 81.4204 363.893 82.2825 363.893 83.136H364.893ZM365.419 80.9869L382.315 46.2989L381.415 45.861L364.519 80.549L365.419 80.9869ZM382.316 46.2969C382.828 45.233 383.569 44.437 384.541 43.8923L384.053 43.0197C382.892 43.6697 382.012 44.623 381.415 45.8631L382.316 46.2969ZM384.547 43.8891C385.578 43.2944 386.707 42.996 387.945 42.996V41.996C386.538 41.996 385.235 42.3376 384.047 43.0229L384.547 43.8891ZM387.945 42.996C389.137 42.996 390.246 43.2929 391.279 43.8891L391.779 43.0229C390.594 42.3391 389.313 41.996 387.945 41.996V42.996ZM391.292 43.8962C392.307 44.4427 393.065 45.2385 393.574 46.2969L394.476 45.8631C393.876 44.6175 392.97 43.6639 391.766 43.0158L391.292 43.8962ZM393.575 46.2989L410.471 80.9869L411.371 80.549L394.475 45.861L393.575 46.2989ZM394.929 69.6194L388.529 55.3474L387.617 55.7566L394.017 70.0286L394.929 69.6194ZM387.617 55.3474L381.217 69.6194L382.129 70.0286L388.529 55.7566L387.617 55.3474ZM381.673 70.324H394.473V69.324H381.673V70.324ZM443.672 57.856L443.393 58.2708L443.403 58.2771L443.672 57.856ZM448.6 63.68L448.146 63.8881L448.149 63.8944L448.6 63.68ZM448.6 80.896L448.15 80.6786L448.149 80.682L448.6 80.896ZM443.737 86.528L443.469 86.1055L443.737 86.528ZM430.936 87.296L430.717 87.7455L430.722 87.7476L430.936 87.296ZM427.033 84.032L427.445 83.7487L426.533 82.4222V84.032H427.033ZM425.497 98.496L425.826 98.8723L425.497 98.496ZM417.24 98.368L417.579 97.9999L417.571 97.9926L417.24 98.368ZM417.113 57.344L417.458 57.7053L417.458 57.705L417.113 57.344ZM425.113 57.152L424.784 57.5294L424.792 57.5361L425.113 57.152ZM426.84 60.544L426.343 60.5893L426.481 62.1146L427.269 60.8012L426.84 60.544ZM430.745 57.024L430.525 56.5746L430.521 56.5768L430.745 57.024ZM437.529 78.016L437.139 77.7021L437.133 77.7099L437.529 78.016ZM437.529 66.368L437.13 66.67L437.134 66.6758L437.529 66.368ZM428.44 66.304L428.046 65.9962L428.44 66.304ZM428.44 78.016L428.046 78.3239L428.051 78.3299L428.44 78.016ZM436.505 56.244C439.1 56.244 441.391 56.9221 443.393 58.2707L443.952 57.4413C441.773 55.9739 439.285 55.244 436.505 55.244V56.244ZM443.403 58.2771C445.448 59.5859 447.03 61.4496 448.146 63.8881L449.055 63.4719C447.867 60.8757 446.164 58.8568 443.942 57.4349L443.403 58.2771ZM448.149 63.8944C449.307 66.3346 449.893 69.1394 449.893 72.32H450.893C450.893 69.0153 450.283 66.0601 449.052 63.4656L448.149 63.8944ZM449.893 72.32C449.893 75.5008 449.307 78.2829 448.15 80.6786L449.051 81.1134C450.284 78.5598 450.893 75.6245 450.893 72.32H449.893ZM448.149 80.682C447.033 83.0362 445.473 84.8378 443.469 86.1055L444.004 86.9505C446.181 85.5728 447.864 83.6198 449.052 81.11L448.149 80.682ZM443.469 86.1055C441.467 87.3724 439.151 88.012 436.505 88.012V89.012C439.32 89.012 441.825 88.329 444.004 86.9505L443.469 86.1055ZM436.505 88.012C434.569 88.012 432.787 87.6213 431.151 86.8444L430.722 87.7476C432.5 88.5921 434.43 89.012 436.505 89.012V88.012ZM431.155 86.8465C429.56 86.0691 428.329 85.0349 427.445 83.7487L426.62 84.3153C427.614 85.7598 428.985 86.9015 430.718 87.7455L431.155 86.8465ZM426.533 84.032V94.912H427.533V84.032H426.533ZM426.533 94.912C426.533 96.277 426.071 97.3286 425.167 98.1197L425.826 98.8723C426.97 97.8714 427.533 96.5337 427.533 94.912H426.533ZM425.167 98.1197C424.254 98.9192 423.036 99.34 421.465 99.34V100.34C423.221 100.34 424.691 99.8648 425.826 98.8723L425.167 98.1197ZM421.465 99.34C419.813 99.34 418.535 98.8796 417.579 98L416.902 98.736C418.079 99.8191 419.617 100.34 421.465 100.34V99.34ZM417.571 97.9926C416.618 97.1543 416.141 96.078 416.141 94.72H415.141C415.141 96.3487 415.73 97.7044 416.91 98.7434L417.571 97.9926ZM416.141 94.72V61.12H415.141V94.72H416.141ZM416.141 61.12C416.141 59.6537 416.592 58.5342 417.458 57.7053L416.767 56.9827C415.671 58.0311 415.141 59.429 415.141 61.12H416.141ZM417.458 57.705C418.371 56.8304 419.603 56.372 421.208 56.372V55.372C419.401 55.372 417.902 55.8949 416.767 56.983L417.458 57.705ZM421.208 56.372C422.74 56.372 423.915 56.7732 424.784 57.5293L425.441 56.7747C424.347 55.8241 422.92 55.372 421.208 55.372V56.372ZM424.792 57.5361C425.708 58.299 426.226 59.3044 426.343 60.5893L427.338 60.4987C427.199 58.9676 426.565 57.7117 425.433 56.7679L424.792 57.5361ZM427.269 60.8012C428.112 59.3972 429.338 58.2862 430.968 57.4712L430.521 56.5768C428.738 57.4684 427.361 58.7041 426.412 60.2868L427.269 60.8012ZM430.964 57.4734C432.64 56.6558 434.484 56.244 436.505 56.244V55.244C434.344 55.244 432.348 55.6855 430.525 56.5746L430.964 57.4734ZM433.048 80.5C435.136 80.5 436.788 79.7891 437.924 78.3221L437.133 77.7099C436.221 78.8882 434.887 79.5 433.048 79.5V80.5ZM437.918 78.3299C439.082 76.8856 439.629 74.8583 439.629 72.32H438.629C438.629 74.731 438.108 76.501 437.139 77.7021L437.918 78.3299ZM439.629 72.32C439.629 69.6593 439.085 67.5479 437.923 66.0602L437.134 66.6758C438.106 67.9188 438.629 69.7754 438.629 72.32H439.629ZM437.927 66.0661C436.754 64.5182 435.084 63.756 432.984 63.756V64.756C434.811 64.756 436.169 65.4018 437.13 66.6699L437.927 66.0661ZM432.984 63.756C430.891 63.756 429.221 64.4924 428.046 65.9962L428.835 66.6118C429.793 65.385 431.153 64.756 432.984 64.756V63.756ZM428.046 65.9962C426.885 67.4827 426.34 69.5716 426.34 72.192H427.341C427.341 69.6924 427.863 67.856 428.835 66.6118L428.046 65.9962ZM426.34 72.192C426.34 74.772 426.886 76.8386 428.046 78.3238L428.835 77.7082C427.862 76.4628 427.341 74.6466 427.341 72.192H426.34ZM428.051 78.3299C429.23 79.792 430.922 80.5 433.048 80.5V79.5C431.164 79.5 429.784 78.8853 428.83 77.7021L428.051 78.3299ZM483.672 57.856L483.393 58.2708L483.403 58.2771L483.672 57.856ZM488.6 63.68L488.146 63.8881L488.149 63.8944L488.6 63.68ZM488.6 80.896L488.15 80.6786L488.149 80.682L488.6 80.896ZM483.737 86.528L483.469 86.1055L483.737 86.528ZM470.936 87.296L470.717 87.7455L470.722 87.7476L470.936 87.296ZM467.033 84.032L467.445 83.7487L466.533 82.4222V84.032H467.033ZM465.496 98.496L465.826 98.8723L465.496 98.496ZM457.241 98.368L457.579 97.9999L457.571 97.9926L457.241 98.368ZM457.112 57.344L457.458 57.7053L457.458 57.705L457.112 57.344ZM465.112 57.152L464.784 57.5294L464.792 57.5361L465.112 57.152ZM466.841 60.544L466.343 60.5893L466.481 62.1146L467.269 60.8012L466.841 60.544ZM470.745 57.024L470.525 56.5746L470.521 56.5768L470.745 57.024ZM477.529 78.016L477.139 77.7021L477.133 77.7099L477.529 78.016ZM477.529 66.368L477.13 66.67L477.134 66.6758L477.529 66.368ZM468.44 66.304L468.046 65.9962L468.44 66.304ZM468.44 78.016L468.046 78.3239L468.051 78.3299L468.44 78.016ZM476.505 56.244C479.1 56.244 481.391 56.9221 483.393 58.2707L483.952 57.4413C481.773 55.9739 479.285 55.244 476.505 55.244V56.244ZM483.403 58.2771C485.448 59.5859 487.03 61.4496 488.146 63.8881L489.055 63.4719C487.867 60.8757 486.164 58.8568 483.942 57.4349L483.403 58.2771ZM488.149 63.8944C489.307 66.3346 489.893 69.1394 489.893 72.32H490.893C490.893 69.0153 490.283 66.0601 489.052 63.4656L488.149 63.8944ZM489.893 72.32C489.893 75.5008 489.307 78.2829 488.15 80.6786L489.051 81.1134C490.284 78.5598 490.893 75.6245 490.893 72.32H489.893ZM488.149 80.682C487.033 83.0362 485.473 84.8378 483.469 86.1055L484.004 86.9505C486.181 85.5728 487.864 83.6198 489.052 81.11L488.149 80.682ZM483.469 86.1055C481.467 87.3724 479.151 88.012 476.505 88.012V89.012C479.32 89.012 481.825 88.329 484.004 86.9505L483.469 86.1055ZM476.505 88.012C474.569 88.012 472.787 87.6213 471.151 86.8444L470.722 87.7476C472.5 88.5921 474.43 89.012 476.505 89.012V88.012ZM471.155 86.8465C469.56 86.0691 468.329 85.0349 467.445 83.7487L466.62 84.3153C467.614 85.7598 468.985 86.9015 470.718 87.7455L471.155 86.8465ZM466.533 84.032V94.912H467.533V84.032H466.533ZM466.533 94.912C466.533 96.277 466.071 97.3286 465.167 98.1197L465.826 98.8723C466.97 97.8714 467.533 96.5337 467.533 94.912H466.533ZM465.167 98.1197C464.254 98.9192 463.036 99.34 461.465 99.34V100.34C463.221 100.34 464.691 99.8648 465.826 98.8723L465.167 98.1197ZM461.465 99.34C459.813 99.34 458.535 98.8796 457.579 98L456.902 98.736C458.079 99.8191 459.617 100.34 461.465 100.34V99.34ZM457.571 97.9926C456.618 97.1543 456.141 96.078 456.141 94.72H455.141C455.141 96.3487 455.73 97.7044 456.91 98.7434L457.571 97.9926ZM456.141 94.72V61.12H455.141V94.72H456.141ZM456.141 61.12C456.141 59.6537 456.592 58.5342 457.458 57.7053L456.767 56.9827C455.671 58.0311 455.141 59.429 455.141 61.12H456.141ZM457.458 57.705C458.371 56.8304 459.603 56.372 461.208 56.372V55.372C459.401 55.372 457.902 55.8949 456.767 56.983L457.458 57.705ZM461.208 56.372C462.74 56.372 463.915 56.7732 464.784 57.5293L465.441 56.7747C464.347 55.8241 462.92 55.372 461.208 55.372V56.372ZM464.792 57.5361C465.708 58.299 466.226 59.3044 466.343 60.5893L467.338 60.4987C467.199 58.9676 466.565 57.7117 465.433 56.7679L464.792 57.5361ZM467.269 60.8012C468.112 59.3972 469.338 58.2862 470.968 57.4712L470.521 56.5768C468.738 57.4684 467.361 58.7041 466.412 60.2868L467.269 60.8012ZM470.964 57.4734C472.64 56.6558 474.484 56.244 476.505 56.244V55.244C474.344 55.244 472.348 55.6855 470.525 56.5746L470.964 57.4734ZM473.048 80.5C475.136 80.5 476.788 79.7891 477.924 78.3221L477.133 77.7099C476.221 78.8882 474.887 79.5 473.048 79.5V80.5ZM477.918 78.3299C479.082 76.8856 479.629 74.8583 479.629 72.32H478.629C478.629 74.731 478.108 76.501 477.139 77.7021L477.918 78.3299ZM479.629 72.32C479.629 69.6593 479.085 67.5479 477.923 66.0602L477.134 66.6758C478.106 67.9188 478.629 69.7754 478.629 72.32H479.629ZM477.927 66.0661C476.754 64.5182 475.084 63.756 472.984 63.756V64.756C474.811 64.756 476.169 65.4018 477.13 66.6699L477.927 66.0661ZM472.984 63.756C470.891 63.756 469.221 64.4924 468.046 65.9962L468.835 66.6118C469.793 65.385 471.153 64.756 472.984 64.756V63.756ZM468.046 65.9962C466.885 67.4827 466.341 69.5716 466.341 72.192H467.341C467.341 69.6924 467.863 67.856 468.835 66.6118L468.046 65.9962ZM466.341 72.192C466.341 74.772 466.886 76.8386 468.046 78.3238L468.835 77.7082C467.862 76.4628 467.341 74.6466 467.341 72.192H466.341ZM468.051 78.3299C469.23 79.792 470.922 80.5 473.048 80.5V79.5C471.164 79.5 469.784 78.8853 468.83 77.7021L468.051 78.3299Z" fill="#242936"/>
<ellipse rx="13.3452" ry="19.7604" transform="matrix(0.945227 0.326414 -0.29236 0.956308 82.9253 23.4733)" fill="#FF8A65"/>
<ellipse rx="10.4888" ry="13.6433" transform="matrix(0.945227 0.326414 -0.29236 0.956308 112.097 46.7264)" fill="#FF8A65"/>
<ellipse rx="10.1147" ry="16.3435" transform="matrix(0.922425 -0.386176 0.347529 0.937669 15.0099 46.7264)" fill="#FF8A65"/>
<ellipse rx="13.3124" ry="19.4335" transform="matrix(0.922425 -0.386176 0.347529 0.937669 46.0613 23.3632)" fill="#FF8A65"/>
<path d="M46.4197 44.1283C46.9664 44.1283 47.5201 44.0894 48.0641 44.0134C52.3738 43.4151 56.0721 40.5727 58.4775 36.0098C60.7675 31.666 61.6118 26.2397 60.8553 20.7315C59.3906 10.0631 51.9519 1.70584 43.9208 1.70584C43.3741 1.70584 42.8199 1.74474 42.2742 1.8212C38.0709 2.41007 34.4263 5.17062 32.0125 9.59315C29.6121 13.9857 28.7149 19.4965 29.4852 25.1098C30.9521 35.7742 38.3904 44.1283 46.4197 44.1283ZM35.5684 11.565C37.3503 8.30095 39.9301 6.27905 42.8341 5.87216C43.1953 5.82164 43.5614 5.7957 43.9212 5.7957C49.8687 5.7957 55.6622 12.7472 56.8353 21.2922C57.4756 25.9553 56.7861 30.5008 54.8932 34.0912C53.1157 37.463 50.4939 39.5479 47.5081 39.9624C47.1465 40.0129 46.7805 40.0389 46.4197 40.0389C40.4736 40.0389 34.6801 33.0901 33.5061 24.5491C32.8542 19.8024 33.5868 15.1916 35.5684 11.565Z" fill="#242936"/>
<path d="M13.5139 30.2369C12.6784 30.2369 11.8385 30.3415 11.0034 30.5517C7.59354 31.4343 4.90245 33.9892 3.42579 37.7455C2.03743 41.2773 1.87015 45.5622 2.95369 49.8099C4.94328 57.6319 10.5983 63.0949 16.7042 63.0949C17.5366 63.0949 18.3756 62.9902 19.2129 62.7801C26.0265 61.0139 29.5624 52.5557 27.2631 43.5251C25.2744 35.7012 19.6202 30.2369 13.5139 30.2369ZM18.2172 58.8154C17.7159 58.9411 17.2065 59.005 16.7042 59.005C12.4521 59.005 8.4144 54.806 6.88494 48.7931C6.01261 45.3748 6.12443 41.986 7.19909 39.2519C8.18456 36.7444 9.89417 35.0614 11.9991 34.5164C12.4992 34.3907 13.0086 34.3272 13.5135 34.3272C17.7655 34.3272 21.8024 38.5271 23.3319 44.5409C25.0663 51.3524 22.8127 57.6238 18.2172 58.8154Z" fill="#242936"/>
<path d="M85.2961 1.82165C84.7517 1.74474 84.1966 1.70584 83.6468 1.70584C75.6157 1.70584 68.1774 10.0631 66.7123 20.732C65.9575 26.2406 66.8028 31.6664 69.0932 36.0098C71.499 40.5732 75.1969 43.4156 79.5053 44.0134C80.0453 44.0885 80.595 44.1265 81.1403 44.1265C89.1754 44.1265 96.6195 35.7702 98.086 25.1035C98.8545 19.4957 97.9564 13.9871 95.5573 9.5936C93.1382 5.16168 89.4918 2.40112 85.2961 1.82165ZM94.0651 24.5433C92.8706 33.2314 87.1934 40.0371 81.1399 40.0371C80.7796 40.0371 80.4162 40.0116 80.059 39.9624C77.0764 39.5484 74.4545 37.4634 72.6766 34.0916C70.7838 30.5012 70.0933 25.9557 70.7323 21.2927C71.9059 12.7481 77.6994 5.79615 83.6464 5.79615C84.0085 5.79615 84.3741 5.82164 84.7384 5.87306C87.6367 6.27368 90.2155 8.29514 92.0005 11.5654C93.9821 15.193 94.7151 19.8019 94.0651 24.5433Z" fill="#242936"/>
<path d="M116.552 30.5481C115.731 30.3415 114.891 30.2369 114.057 30.2369C107.95 30.2369 102.295 35.7012 100.306 43.5251C98.0092 52.557 101.546 61.0148 108.371 62.7841C109.192 62.9907 110.031 63.0949 110.862 63.0949C110.863 63.0949 110.873 63.0944 110.874 63.0949C116.975 63.0949 122.625 57.6319 124.616 49.8094C126.913 40.7752 123.377 32.316 116.552 30.5481ZM120.684 48.794C119.155 54.806 115.12 59.005 110.874 59.0046H110.865C110.362 59.0046 109.853 58.9406 109.368 58.819C104.759 57.6243 102.506 51.352 104.238 44.5396C105.767 38.5262 109.804 34.3263 114.057 34.3263C114.561 34.3263 115.07 34.3903 115.556 34.5123C120.164 35.7066 122.417 41.9798 120.684 48.794Z" fill="#242936"/>
<path d="M80.1619 54.4774C72.5781 54.4774 66.3144 61.2289 63.7813 64.4153C61.2482 61.2289 54.9845 54.4774 47.4007 54.4774C37.583 54.4774 29.5957 63.1288 29.5957 73.7613C29.5957 79.5622 31.998 84.9686 36.203 88.6683C36.2642 88.7696 36.3393 88.8629 36.4269 88.9469L62.7756 114.149C63.0538 114.414 63.4169 114.548 63.7813 114.548C64.1457 114.548 64.5101 114.414 64.7884 114.148L92.0134 88.063L92.2944 87.8016C92.517 87.6003 92.7368 87.3963 92.9829 87.1351C93.0858 87.0378 93.1706 86.9284 93.2361 86.8097C96.2894 83.226 97.9669 78.6036 97.9669 73.7613C97.9669 63.1288 89.9798 54.4774 80.1619 54.4774Z" fill="#FF8A65"/>
<path d="M78.7186 52.5378C72.949 52.5378 67.7328 55.3538 63.778 60.5365C59.8259 55.3543 54.611 52.5378 48.8433 52.5378C40.1351 52.5378 32.4283 58.9595 30.1019 68.1537C28.8556 73.0784 28.6146 80.9482 34.543 90.4747C40.029 99.2898 49.5377 107.457 62.8059 114.75C63.1089 114.917 63.443 115 63.7776 115C64.1117 115 64.4463 114.917 64.7493 114.75C78.0206 107.457 87.5324 99.2893 93.0202 90.4743C98.9508 80.9478 98.7107 73.0779 97.4648 68.1537C95.138 58.9595 87.4294 52.5378 78.7186 52.5378ZM63.7771 110.62C31.1038 92.295 32.7384 74.2861 34.0345 69.1647C35.9021 61.7835 41.992 56.6282 48.8428 56.6282C54.0253 56.6282 58.7122 59.6793 62.0409 65.2192C62.4087 65.8313 63.0668 66.2051 63.7767 66.2051C63.7771 66.2051 63.7771 66.2051 63.7771 66.2051C64.4871 66.2051 65.1451 65.8318 65.5129 65.2197C68.8443 59.6789 73.5343 56.6277 78.7186 56.6277C85.573 56.6277 91.6642 61.7826 93.5317 69.1638C94.8269 74.2856 96.4598 92.2932 63.7771 110.62Z" fill="#242936"/>
<path d="M36.661 80.2685C43.7796 96.0906 53.3656 102.31 63 108.44C51.5368 100.63 40.3999 83.9984 44.4915 71.3926C45.8983 67.0584 49.8305 62.5168 57.3051 62.5168C50.1864 52.0973 29.5423 64.4463 36.661 80.2685Z" fill="#FF3E00"/>
<path d="M85.2841 8.01895C74.7739 2.02127 65.4195 30.1082 77.8064 37.1769C77.8064 37.1769 74.6552 35.0267 76.5183 23.0718C78.3815 11.117 85.2841 8.01895 85.2841 8.01895Z" fill="#FF3E00"/>
<path d="M114.934 35.9137C107.365 31.5949 100.382 52.4401 109.302 57.5301C109.302 57.5301 107.035 55.9752 108.473 47.1252C109.911 38.2751 114.934 35.9137 114.934 35.9137Z" fill="#FF3E00"/>
<path d="M42.2863 8.77612C30.2045 8.77612 31.9305 37.1694 46.1697 37.1694C46.1697 37.1694 42.4159 36.8704 39.6973 25.8121C36.9788 14.7537 42.2863 8.77612 42.2863 8.77612Z" fill="#FF3E00"/>
<path d="M11.2216 37.6831C2.14027 42.295 10.0087 60.157 20.7116 54.7215C20.7116 54.7215 17.8208 55.9595 13.2182 49.7839C8.61562 43.6082 11.2216 37.6831 11.2216 37.6831Z" fill="#FF3E00"/>
</svg>
