<svg width="30" height="30" viewBox="0 0 30 30" fill="none" xmlns="http://www.w3.org/2000/svg">
<path d="M15 30C12.7439 30 10.9091 28.183 10.9091 25.9493V19.0909H4.05068C1.81705 19.0909 0 17.2561 0 15C0 12.7439 1.81705 10.9091 4.05068 10.9091H10.9091V4.05068C10.9091 1.81705 12.7439 0 15 0C17.2561 0 19.0909 1.81705 19.0909 4.05068V10.9091H25.9493C28.183 10.9091 30 12.7439 30 15C30 17.2561 28.183 19.0909 25.9493 19.0909H19.0909V25.9493C19.0909 28.183 17.2561 30 15 30ZM4.05068 12.2727C2.59432 12.2727 1.36364 13.5218 1.36364 15C1.36364 16.4782 2.59432 17.7273 4.05068 17.7273H12.2727V25.9493C12.2727 27.4057 13.5218 28.6364 15 28.6364C16.4782 28.6364 17.7273 27.4057 17.7273 25.9493V17.7273H25.9493C27.4057 17.7273 28.6364 16.4782 28.6364 15C28.6364 13.5218 27.4057 12.2727 25.9493 12.2727H17.7273V4.05068C17.7273 2.59432 16.4782 1.36364 15 1.36364C13.5218 1.36364 12.2727 2.59432 12.2727 4.05068V12.2727H4.05068Z" fill="#807957"/>
</svg>
