<svg width="30" height="30" viewBox="0 0 30 30" fill="none" xmlns="http://www.w3.org/2000/svg">
<g clip-path="url(#clip0)">
<path d="M12.0334 22.6996C12.2763 22.6996 12.4731 22.5027 12.4731 22.2599V21.7232C12.4731 21.4803 12.2763 21.2835 12.0334 21.2835C11.7906 21.2835 11.594 21.4803 11.594 21.7232V22.2599C11.594 22.5027 11.7906 22.6996 12.0334 22.6996V22.6996Z" fill="black"/>
<path d="M17.9665 22.6996C18.2093 22.6996 18.4062 22.5027 18.4062 22.2599V21.7232C18.4062 21.4803 18.2093 21.2835 17.9665 21.2835C17.7239 21.2835 17.527 21.4803 17.527 21.7232V22.2599C17.527 22.5027 17.7239 22.6996 17.9665 22.6996V22.6996Z" fill="black"/>
<path d="M14.1945 22.4639C14.4394 22.5694 14.7123 22.6284 15 22.6284C15.2877 22.6284 15.5607 22.5694 15.8054 22.4639C16.0625 22.3533 15.9842 21.9699 15.7042 21.9699H14.2957C14.0158 21.9699 13.9375 22.3533 14.1945 22.4639V22.4639Z" fill="black"/>
<path d="M14.3435 23.9973C14.5781 23.9973 14.8038 23.9369 15 23.8257C15.1961 23.9369 15.422 23.9973 15.6564 23.9973C16.0391 23.9973 16.3989 23.8366 16.6438 23.5567C16.8036 23.3738 16.785 23.0962 16.6021 22.9365C16.4193 22.7767 16.1416 22.7952 15.9819 22.9781C15.904 23.0671 15.7855 23.1182 15.6564 23.1182C15.5275 23.1182 15.4087 23.0671 15.3309 22.9781C15.159 22.7813 14.8411 22.7813 14.669 22.9781C14.5912 23.0671 14.4726 23.1182 14.3435 23.1182C14.2147 23.1182 14.0959 23.0671 14.0181 22.9781C13.8583 22.7952 13.5807 22.7767 13.3978 22.9365C13.2151 23.0962 13.1964 23.3738 13.3561 23.5567C13.601 23.8366 13.9608 23.9973 14.3435 23.9973Z" fill="black"/>
<path d="M26.2533 29.8292C26.4962 29.8292 26.6928 29.6324 26.6928 29.3898V14.9094C26.7734 14.9256 26.8551 14.9348 26.9382 14.9348C27.3286 14.9348 27.7022 14.7487 27.9358 14.4356C27.9358 14.4356 29.7568 11.9964 29.7577 11.9955C30.1629 11.4528 30.0473 10.6618 29.5055 10.2573L16.6538 0.662646C15.6799 -0.0645098 14.3199 -0.0645098 13.346 0.662646L10.285 2.94802C10.0904 3.09336 10.0504 3.36871 10.1957 3.56326C10.3408 3.75781 10.6164 3.79786 10.811 3.65252L13.8722 1.36714C14.5362 0.871157 15.4639 0.871157 16.1279 1.36714C16.1279 1.36714 28.9708 10.9554 28.9795 10.9618C29.1379 11.0802 29.1713 11.3113 29.0532 11.4695L27.2313 13.9098C27.113 14.0682 26.8821 14.1016 26.7237 13.9835C26.7237 13.9835 24.2206 12.1147 24.219 12.1136C24.0288 11.9717 23.7459 12.0129 23.6038 12.2028C23.4587 12.3974 23.4985 12.6727 23.6931 12.8181L25.8137 14.4012V28.9503H23.2495C23.4894 28.5296 23.6258 28.0183 23.6258 27.5292C23.6258 26.8489 23.3646 26.2381 22.8902 25.8091C22.6475 25.5899 22.3546 25.4177 22.0131 25.2937V23.2626C22.2516 23.348 22.5207 23.3938 22.8101 23.3938C23.6047 23.3938 24.3916 23.0207 24.8352 22.3482C25.3708 21.5366 25.0767 20.6957 24.4511 20.056C23.9714 19.5653 23.9391 18.9113 23.6008 18.3481C23.2225 17.7182 22.6638 17.3197 21.9982 17.1945C21.8098 14.62 19.6565 12.5825 17.0347 12.5825H12.9652C10.3436 12.5825 8.19004 14.62 8.00167 17.1945C7.33609 17.3197 6.77739 17.7184 6.39905 18.3481C6.2473 18.601 6.1649 18.8722 6.09212 19.1116C5.8701 19.8431 5.16812 20.2292 4.94702 20.9385C4.52359 22.2972 5.96371 23.3938 7.19006 23.3938C7.47937 23.3938 7.7483 23.3482 7.98679 23.2628V25.2937C7.6453 25.418 7.35234 25.5899 7.10995 25.8091C6.63548 26.2381 6.3741 26.8489 6.3741 27.5292C6.3741 28.0185 6.51051 28.5296 6.75061 28.9503H4.18622V14.4012L14.9999 6.32768C14.9999 6.32768 22.3328 11.8023 22.339 11.8069C22.5292 11.949 22.8123 11.908 22.9542 11.7176C23.0994 11.5233 23.0595 11.2477 22.865 11.1024L15.2629 5.42704C15.1071 5.31054 14.8931 5.31054 14.737 5.42704L3.27619 13.9833C3.11597 14.103 2.88824 14.07 2.76853 13.9096C2.76853 13.9096 0.948242 11.4713 0.946868 11.4695C0.828308 11.3107 0.861953 11.0802 1.02057 10.9618L9.38709 4.71545C9.58164 4.57011 9.62169 4.29476 9.47635 4.10021C9.33124 3.90566 9.05567 3.86561 8.86112 4.01095C8.86112 4.01095 0.497804 10.2548 0.494599 10.2573C-0.0476202 10.6622 -0.162519 11.4532 0.242372 11.9955C0.242372 11.9955 2.06335 14.4347 2.06404 14.4356C2.34899 14.8173 2.8404 15.0041 3.30709 14.9094V29.3898C3.30709 29.6324 3.50393 29.8292 3.74654 29.8292H26.2533ZM22.7467 27.5289C22.7467 28.3067 22.2671 28.9501 22.0225 28.9501H16.8537C16.8527 28.9482 16.8514 28.9464 16.8504 28.9444C16.6103 28.5214 16.6902 28.0224 16.8701 27.5951C16.8704 27.5946 16.8706 27.594 16.8708 27.5935C17.4714 26.3916 18.9234 25.9888 20.166 25.9382C21.2566 25.8938 22.7467 26.1419 22.7467 27.5289V27.5289ZM22.8471 18.8006C23.1147 19.246 23.1339 19.7902 23.436 20.2256C23.6626 20.5517 24.0922 20.8111 24.2136 21.2002C24.4585 21.9861 23.4482 22.5144 22.8098 22.5144C22.6528 22.5144 22.1447 22.4883 21.9311 22.1663C21.919 22.0873 21.8861 21.9085 21.8838 21.8971C21.7119 21.0129 21.3651 20.1695 20.8755 19.4142C20.6732 19.1029 20.4469 18.8065 20.1965 18.53C20.1864 18.5147 20.532 18.3044 20.5741 18.2824C21.3878 17.8553 22.3525 17.9768 22.8471 18.8006V18.8006ZM12.9652 13.4617H17.0347C19.1683 13.4617 20.9264 15.1002 21.1168 17.1849C20.6673 17.2558 20.2377 17.4341 19.8607 17.6882C19.7577 17.7578 19.6579 17.8326 19.5631 17.9132C18.519 17.0164 17.2494 16.4543 15.8937 16.2822C15.3021 16.2048 14.6978 16.2062 14.1064 16.2822C12.7505 16.4543 11.4811 17.0164 10.437 17.9132C10.0456 17.5811 9.57431 17.3357 9.07284 17.2215C9.05864 17.2183 8.88309 17.1854 8.88309 17.1849C9.07375 15.1 10.8318 13.4617 12.9652 13.4617V13.4617ZM7.19006 22.5144C6.55514 22.5144 5.54166 21.9852 5.78656 21.2002C5.9081 20.8099 6.33656 20.5529 6.56384 20.2256C6.86528 19.7916 6.88565 19.2451 7.15275 18.8006C7.52743 18.1766 8.0566 18.0366 8.44318 18.0313C8.88263 18.0253 9.31156 18.1842 9.67067 18.4312C9.6796 18.4373 9.80365 18.5296 9.80319 18.5303C8.94947 19.4737 8.35873 20.649 8.11588 21.8982C8.10261 21.966 8.10467 22.112 8.06873 22.1663C7.85519 22.4883 7.3473 22.5144 7.19006 22.5144V22.5144ZM8.86616 25.0921V23.2386C8.86616 20.1977 11.2014 17.5417 14.214 17.1547C14.7335 17.0881 15.267 17.0835 15.7864 17.1549C18.7948 17.5678 21.134 20.1867 21.134 23.2386V25.0921C20.9099 25.0646 20.6833 25.0534 20.4576 25.0534C18.8001 25.0534 16.847 25.5949 16.0766 27.2168C15.8232 27.7498 15.7395 28.3783 15.9063 28.9501H14.0938C14.1174 28.9494 14.1467 28.7219 14.151 28.6953C14.2343 28.1961 14.1393 27.6711 13.9233 27.2163C13.1547 25.5979 11.1955 25.0534 9.54227 25.0534C9.31659 25.0534 9.09023 25.065 8.86616 25.0921V25.0921ZM7.25323 27.5289C7.25323 27.2259 7.33082 26.7945 7.69955 26.461C8.19164 26.016 8.90552 25.9325 9.54227 25.9325C10.5825 25.9325 11.4777 26.1513 12.1369 26.5468C12.8865 26.9968 13.5914 27.9496 13.1952 28.8512C13.1806 28.8848 13.1643 28.9178 13.1465 28.9501H7.97741C7.73274 28.9501 7.25323 28.3067 7.25323 27.5289Z" fill="black"/>
</g>
<defs>
<clipPath id="clip0">
<rect width="30" height="30" fill="white"/>
</clipPath>
</defs>
</svg>
