<svg width="30" height="30" viewBox="0 0 30 30" fill="none" xmlns="http://www.w3.org/2000/svg">
<path d="M29.4141 14.4141H27.7712C27.4477 14.4141 27.1854 14.6764 27.1854 15C27.1854 15.3236 27.4477 15.5859 27.7712 15.5859H29.4141C29.7376 15.5859 30 15.3236 30 15C30 14.6764 29.7376 14.4141 29.4141 14.4141Z" fill="black"/>
<path d="M29.3544 11.2858C29.1925 11.0056 28.8343 10.9096 28.554 11.0714L27.4783 11.6924C27.1981 11.8542 27.102 12.2125 27.2639 12.4927C27.3724 12.6808 27.5693 12.7858 27.7718 12.7858C27.8712 12.7858 27.972 12.7605 28.0642 12.7072L29.1399 12.0861C29.4202 11.9244 29.5162 11.5661 29.3544 11.2858Z" fill="black"/>
<path d="M29.1399 17.9139L28.0642 17.2928C27.7839 17.1309 27.4257 17.227 27.2639 17.5072C27.102 17.7875 27.1981 18.1458 27.4783 18.3076L28.554 18.9286C28.6463 18.9819 28.747 19.0072 28.8464 19.0072C29.0489 19.0072 29.2458 18.9022 29.3544 18.7142C29.5162 18.4339 29.4202 18.0756 29.1399 17.9139Z" fill="black"/>
<path d="M24.8629 6.91482C24.2846 4.39154 23.5016 3.165 22.4689 3.165C22.2703 3.165 22.081 3.21088 21.9005 3.30217L0.359063 12.3499C0.141504 12.4412 0 12.6541 0 12.89V17.1084C0 17.3443 0.141504 17.5572 0.359004 17.6486L3.51902 18.9761C3.5209 18.9769 3.52283 18.9777 3.52471 18.9785L5.03871 19.6144V23.2903C5.03871 24.2111 5.78777 24.9601 6.70852 24.9601H12.0401C12.9609 24.9601 13.7099 24.2111 13.7099 23.2903V23.2571L21.9013 26.6982C22.0816 26.7892 22.2707 26.8349 22.469 26.8349C23.5017 26.8349 24.2847 25.6084 24.863 23.0851C25.3594 20.9188 25.6328 18.0475 25.6328 14.9999C25.6328 11.9525 25.3594 9.08115 24.8629 6.91482ZM12.5381 23.2904C12.5381 23.565 12.3146 23.7884 12.0401 23.7884H6.70846C6.43383 23.7884 6.21047 23.5649 6.21047 23.2904V20.1067L12.5381 22.7649V23.2904H12.5381ZM4.33559 18.0482V14.9907C4.33559 14.6671 4.0732 14.4048 3.74971 14.4048C3.42615 14.4048 3.16383 14.6671 3.16383 14.9907V17.5559L1.17182 16.7191V13.2795L20.6027 5.11816C20.4105 5.61902 20.2349 6.21715 20.075 6.91482C20.0569 6.99393 20.0392 7.07432 20.0216 7.15529L13.3784 9.65566C13.0755 9.76963 12.9225 10.1075 13.0364 10.4104C13.1248 10.6453 13.3479 10.79 13.5848 10.79C13.6534 10.79 13.7231 10.7778 13.7912 10.7522L19.7708 8.5016C19.4681 10.4007 19.3052 12.6477 19.3052 14.9999C19.3052 18.0475 19.5786 20.9188 20.075 23.0851C20.2349 23.7827 20.4106 24.3807 20.6027 24.8817L4.33559 18.0482ZM20.5246 12.8421C21.5605 13.0185 22.3518 13.9221 22.3518 15.0074C22.3518 16.0927 21.5608 16.9959 20.5252 17.1727C20.4933 16.4651 20.4769 15.7383 20.4769 15C20.4769 14.2669 20.4931 13.545 20.5246 12.8421ZM23.7207 22.8235C23.1857 25.1579 22.5882 25.6632 22.4689 25.6632C22.4641 25.6632 22.4582 25.6621 22.4518 25.6603C22.4423 25.6557 22.4331 25.6507 22.4232 25.6465L22.4093 25.6407C22.2127 25.5221 21.6906 24.8891 21.2172 22.8234C20.9258 21.5517 20.7145 20.0204 20.5939 18.3468C22.2446 18.1307 23.5236 16.7161 23.5236 15.0074C23.5236 13.2984 22.2441 11.8835 20.5928 11.6679C20.7132 9.98848 20.9249 8.45197 21.2172 7.1765C21.6903 5.11207 22.2121 4.4785 22.409 4.35949L22.4607 4.33775C22.4636 4.33734 22.4665 4.33676 22.469 4.33676C22.5882 4.33676 23.1858 4.84207 23.7207 7.1765C24.198 9.25951 24.461 12.038 24.461 15C24.461 17.962 24.1981 20.7404 23.7207 22.8235Z" fill="black"/>
<path d="M11.6897 10.9184C11.5762 10.6154 11.2387 10.4617 10.9356 10.5751L10.9222 10.5802C10.6191 10.6937 10.4655 11.0313 10.5789 11.3343C10.667 11.5696 10.8904 11.7149 11.1277 11.7149C11.196 11.7149 11.2654 11.7028 11.3331 11.6775L11.3465 11.6725C11.6495 11.559 11.8032 11.2214 11.6897 10.9184Z" fill="black"/>
</svg>
