<svg width="35" height="35" viewBox="0 0 35 35" fill="none" xmlns="http://www.w3.org/2000/svg">
<path d="M1.09779 17.4991C1.09779 28.3772 11.5273 36.2852 22.0392 33.2684C28.9493 31.283 33.9062 24.929 33.9062 17.4991C33.9062 8.4408 26.5635 1.09491 17.502 1.09491C8.44176 1.09491 1.09779 8.43957 1.09779 17.4991Z" fill="#FF8A65"/>
<path d="M32.9903 22.9173C30.7626 29.284 24.6985 33.9033 17.502 33.9033C11.2778 33.9033 5.74654 30.4181 2.96103 25.0997C4.55627 22.6621 8.00567 20.8465 10.6813 21.9494C11.4482 22.2659 12.103 22.8025 12.8336 23.1955C14.6914 24.1941 17.055 24.1818 18.9025 23.164C20.4309 22.322 21.545 20.8927 22.9612 19.8736C24.3774 18.8545 26.4382 18.3098 27.8107 19.3877C28.9214 20.2605 29.244 21.9433 30.4826 22.6213C31.233 23.0314 32.123 22.9638 32.9903 22.9173V22.9173Z" fill="#FF3E00"/>
<path d="M6.25494 10.2051C6.5766 9.03692 7.13086 7.86142 8.31203 7.58972C9.16772 7.39287 9.50845 7.70298 10.2817 6.83048C11.1606 5.83885 11.7047 4.77127 13.1894 3.99802C16.3515 2.3511 17.8305 5.9981 14.9249 6.8354C13.9547 7.11496 13.002 7.0153 11.6829 7.8321C10.8472 8.34958 10.7559 8.72415 10.4448 9.56097C9.61822 11.7839 7.48772 14.0449 6.31031 13.1184C5.5646 12.5314 6.0503 10.9485 6.25494 10.2051V10.2051Z" fill="white"/>
<path d="M23.8309 18.0964H13.9884C13.3844 18.0964 12.8947 17.6067 12.8947 17.0027C12.8947 16.3988 13.3844 15.9091 13.9884 15.9091H23.8309C24.4348 15.9091 24.9245 16.3988 24.9245 17.0027C24.9245 17.6067 24.4349 18.0964 23.8309 18.0964Z" fill="#242936"/>
<path d="M13.3834 22.848C14.3489 22.848 14.8475 21.672 14.1566 20.9811L10.0087 16.8331L14.1566 12.6851C14.5837 12.258 14.5837 11.5656 14.1566 11.1385C13.7296 10.7114 13.0371 10.7114 12.61 11.1385L7.68877 16.0598C7.26164 16.4868 7.26164 17.1793 7.68877 17.6064L12.61 22.5276C12.8236 22.7412 13.1035 22.848 13.3834 22.848Z" fill="#242936"/>
<path d="M1.3623 18.6629C1.9724 18.6629 2.46255 18.1649 2.45605 17.5576C2.45564 17.5186 2.45564 17.4799 2.45605 17.4408C2.46248 16.8369 1.97814 16.342 1.37419 16.3356C0.770725 16.3306 0.275385 16.8135 0.26896 17.4175C0.268345 17.4722 0.268345 17.5263 0.26896 17.581C0.275385 18.1809 0.763752 18.6629 1.3623 18.6629V18.6629Z" fill="#242936"/>
<path d="M29.4698 29.8723C36.3079 23.0341 36.3089 11.9657 29.4698 5.1266C25.528 1.18474 20.13 -0.516382 14.9096 0.138283C7.32992 1.08802 1.60641 6.72595 0.0393992 13.5888C-0.0950472 14.1776 0.273295 14.764 0.862139 14.8984C1.45105 15.0327 2.0373 14.6645 2.17174 14.0757C4.85213 2.33693 19.4384 -1.81143 27.9232 6.67318C33.8927 12.6428 33.8927 22.3561 27.9232 28.3257C22.0582 34.1907 12.3424 34.3973 6.27068 28.3257C4.21626 26.2713 2.7951 23.695 2.16081 20.875C2.02827 20.2858 1.44305 19.9156 0.853868 20.048C0.264615 20.1806 -0.105643 20.7657 0.02689 21.355C3.01916 34.6579 19.6742 39.668 29.4698 29.8723V29.8723Z" fill="#242936"/>
</svg>
