<svg width="162" height="166" viewBox="0 0 162 166" fill="none" xmlns="http://www.w3.org/2000/svg">
<path d="M141.872 1.21288C145.388 -1.63959 150.645 0.858837 150.645 5.38201V77.3618L91.4634 42.4438L141.872 1.21288Z" fill="#FFC850"/>
<path d="M145.265 74.1874L109.231 52.9271L139.254 19.1302C141.354 16.7673 145.265 18.2496 145.265 21.4085V74.1874Z" fill="#EBAF4B"/>
<path d="M19.534 1.21288C16.0177 -1.63959 10.761 0.858837 10.761 5.38201V77.3618L69.9428 42.4438L19.534 1.21288Z" fill="#FFC850"/>
<path d="M16.1411 74.1874L52.1753 52.9271L22.1519 19.1302C20.0526 16.7673 16.1411 18.2496 16.1411 21.4085V74.1874Z" fill="#EBAF4B"/>
<path d="M80.7031 166C122.303 166 156.026 134.132 156.026 94.821C156.026 55.5099 122.303 23.642 80.7031 23.642C39.1032 23.642 5.37988 55.5099 5.37988 94.821C5.37988 134.132 39.1032 166 80.7031 166Z" fill="#FFDC64"/>
<path d="M91.4634 139.14V144.512C91.4634 150.446 86.646 155.256 80.7031 155.256C74.7602 155.256 69.9428 150.446 69.9428 144.512V139.14L80.7031 133.768L91.4634 139.14Z" fill="#FF8087"/>
<path d="M86.6434 111.486H74.7628C72.1979 111.486 70.7777 114.455 72.3902 116.447L78.3308 123.785C79.5517 125.293 81.8545 125.293 83.0758 123.785L89.0164 116.447C90.6286 114.455 89.2086 111.486 86.6434 111.486Z" fill="#5D5360"/>
<path d="M153.314 139.331C152.897 139.331 152.472 139.234 152.076 139.028C135.81 130.583 110.353 125.565 110.097 125.516C108.639 125.232 107.688 123.821 107.972 122.365C108.257 120.908 109.656 119.957 111.127 120.243C112.199 120.452 137.596 125.455 154.558 134.262C155.876 134.947 156.389 136.567 155.704 137.884C155.224 138.804 154.287 139.331 153.314 139.331Z" fill="#E1A546"/>
<path d="M158.699 120.53C158.468 120.53 158.233 120.5 157.999 120.437C142.921 116.39 115.504 117.158 115.233 117.17C113.723 117.214 112.506 116.049 112.463 114.567C112.418 113.083 113.586 111.845 115.071 111.801C116.227 111.764 143.559 110.998 159.397 115.249C160.831 115.634 161.681 117.107 161.296 118.541C160.972 119.74 159.886 120.529 158.699 120.53Z" fill="#E1A546"/>
<path d="M99.5338 160.628C57.9344 160.628 24.2115 128.76 24.2115 89.449C24.2115 60.5822 42.4064 35.7474 68.5404 24.579C32.7267 30.0752 5.38086 59.4244 5.38086 94.821C5.38086 134.132 39.1037 166 80.7031 166C91.7553 166 102.241 163.732 111.696 159.691C107.736 160.299 103.676 160.628 99.5338 160.628Z" fill="#FFC850"/>
<path d="M8.07333 141.826C7.10147 141.826 6.16338 141.3 5.68411 140.379C4.99832 139.063 5.51201 137.441 6.82936 136.757C23.7923 127.95 49.1889 122.946 50.2608 122.738C51.72 122.445 53.1309 123.404 53.416 124.86C53.6998 126.316 52.7487 127.727 51.2908 128.01C51.0346 128.06 25.5772 133.078 9.3121 141.523C8.91531 141.729 8.49123 141.826 8.07333 141.826Z" fill="#E1A546"/>
<path d="M2.68929 123.025C1.50182 123.025 0.415659 122.234 0.0925717 121.035C-0.292211 119.602 0.557558 118.129 1.99181 117.744C17.8302 113.491 45.1592 114.263 46.3178 114.296C47.8021 114.34 48.9697 115.578 48.9252 117.061C48.8804 118.543 47.5946 119.719 46.1551 119.665C45.8794 119.656 18.4582 118.885 3.38969 122.932C3.15557 122.995 2.92048 123.025 2.68929 123.025Z" fill="#E1A546"/>
<path d="M49.7673 104.222C44.5888 104.222 40.3519 99.9916 40.3519 94.821V89.449C40.3519 84.2784 44.5888 80.048 49.7673 80.048C54.9457 80.048 59.1826 84.2784 59.1826 89.449V94.821C59.1826 99.9913 54.9457 104.222 49.7673 104.222Z" fill="#4B3F4E"/>
<path d="M49.7672 80.048C49.3068 80.048 48.8651 80.1196 48.4222 80.1845V93.4781C48.4222 96.445 50.8309 98.8501 53.8024 98.8501C56.7738 98.8501 59.1825 96.445 59.1825 93.4781V89.449C59.1825 84.2784 54.9454 80.048 49.7672 80.048Z" fill="#5D5360"/>
<path d="M49.7679 90.7932C51.9965 90.7932 53.8031 88.9893 53.8031 86.7641C53.8031 84.5389 51.9965 82.7351 49.7679 82.7351C47.5393 82.7351 45.7327 84.5389 45.7327 86.7641C45.7327 88.9893 47.5393 90.7932 49.7679 90.7932Z" fill="white"/>
<path d="M111.639 104.222C106.46 104.222 102.224 99.9916 102.224 94.821V89.449C102.224 84.2784 106.46 80.048 111.639 80.048C116.817 80.048 121.054 84.2784 121.054 89.449V94.821C121.054 99.9913 116.817 104.222 111.639 104.222Z" fill="#4B3F4E"/>
<path d="M111.639 80.048C111.179 80.048 110.737 80.1196 110.294 80.1845V93.4781C110.294 96.445 112.703 98.8501 115.674 98.8501C118.646 98.8501 121.054 96.445 121.054 93.4781V89.449C121.054 84.2784 116.817 80.048 111.639 80.048Z" fill="#5D5360"/>
<path d="M111.638 90.7932C113.867 90.7932 115.674 88.9893 115.674 86.7641C115.674 84.5389 113.867 82.7351 111.638 82.7351C109.41 82.7351 107.603 84.5389 107.603 86.7641C107.603 88.9893 109.41 90.7932 111.638 90.7932Z" fill="white"/>
<path d="M82.7842 123.9L76.8436 112.159C76.7358 111.945 76.6754 111.712 76.5939 111.486H74.7628C72.1979 111.486 70.7776 114.455 72.3898 116.447L78.3304 123.785C79.4832 125.208 81.5714 125.239 82.8319 123.975C82.8176 123.948 82.7988 123.929 82.7842 123.9Z" fill="#4B3F4E"/>
<path d="M80.7031 133.768L69.9428 139.14V144.512C69.9428 145.364 70.0672 146.183 70.2549 146.978C72.962 146.643 75.5766 145.86 78.0129 144.659V147.198C78.0129 148.681 79.2172 149.884 80.7031 149.884C82.189 149.884 83.3933 148.682 83.3933 147.198V144.659C85.83 145.86 88.4445 146.643 91.1513 146.978C91.339 146.183 91.4634 145.364 91.4634 144.512V139.14L80.7031 133.768Z" fill="#E6646E"/>
<path d="M94.1536 141.826C90.3483 141.826 86.6811 140.697 83.5508 138.56C81.8747 137.416 79.5329 137.416 77.8541 138.56C74.7252 140.697 71.0579 141.826 67.2526 141.826C62.6225 141.826 58.163 140.116 54.6954 137.011C53.5894 136.02 53.4975 134.321 54.4892 133.217C55.4808 132.113 57.1781 132.021 58.2893 133.011C62.8063 137.058 69.8759 137.5 74.8187 134.124C78.3389 131.724 83.069 131.724 86.5866 134.124C91.5306 137.499 98.6012 137.056 103.119 133.012C104.223 132.023 105.923 132.113 106.917 133.219C107.909 134.324 107.816 136.022 106.71 137.013C103.242 140.117 98.7837 141.826 94.1536 141.826Z" fill="#EBAF4B"/>
</svg>
