<svg width="189" height="146" viewBox="0 0 189 146" fill="none" xmlns="http://www.w3.org/2000/svg">
<path d="M161.564 5.28677H131.08C120.03 9.08667 117.581 2.64339 94.5 2.64339C71.4195 2.64339 68.9699 9.08667 57.9193 5.28677H27.4356L23.371 71.7026C25.9115 97.806 44.5826 112.014 59.3168 117.191H129.684C144.417 112.014 163.089 97.806 165.629 71.7026L161.564 5.28677Z" fill="#F5DCB4"/>
<path d="M131.081 5.28676C165.404 14.1954 146.719 60.1374 168.819 79.996C171.992 82.8468 177.598 81.5805 178.922 77.7889C180.671 72.7791 182.419 64.8534 182.141 53.5289C181.76 37.999 189 37.008 189 37.008C189 37.008 179.855 0 152.419 0C143.274 0 131.081 5.28676 131.081 5.28676Z" fill="#965A50"/>
<path d="M62.4918 74.0153C56.6236 74.0153 51.8225 69.8521 51.8225 64.7635V59.4767C51.8225 54.3881 56.6236 50.2249 62.4918 50.2249C68.36 50.2249 73.1611 54.3881 73.1611 59.4767V64.7635C73.1614 69.8524 68.36 74.0153 62.4918 74.0153Z" fill="#4B3F4E"/>
<path d="M62.4918 50.2245C61.9702 50.2245 61.4697 50.2953 60.9677 50.3587V63.4414C60.9677 66.3611 63.6974 68.7282 67.0644 68.7282C70.4317 68.7282 73.1611 66.3611 73.1611 63.4414V59.4767C73.1615 54.3884 68.3601 50.2245 62.4918 50.2245Z" fill="#5D5360"/>
<path d="M62.4918 60.7981C65.0171 60.7981 67.0643 59.0229 67.0643 56.833C67.0643 54.6432 65.0171 52.8679 62.4918 52.8679C59.9664 52.8679 57.9193 54.6432 57.9193 56.833C57.9193 59.0229 59.9664 60.7981 62.4918 60.7981Z" fill="white"/>
<path d="M126.508 74.0153C120.64 74.0153 115.839 69.8521 115.839 64.7635V59.4767C115.839 54.3881 120.64 50.2249 126.508 50.2249C132.376 50.2249 137.177 54.3881 137.177 59.4767V64.7635C137.177 69.8524 132.376 74.0153 126.508 74.0153Z" fill="#4B3F4E"/>
<path d="M126.508 50.2245C125.987 50.2245 125.486 50.2953 124.984 50.3587V63.4414C124.984 66.3611 127.714 68.7282 131.081 68.7282C134.448 68.7282 137.177 66.3611 137.177 63.4414V59.4767C137.177 54.3884 132.376 50.2245 126.508 50.2245Z" fill="#5D5360"/>
<path d="M126.508 60.7981C129.034 60.7981 131.081 59.0229 131.081 56.833C131.081 54.6432 129.034 52.8679 126.508 52.8679C123.983 52.8679 121.936 54.6432 121.936 56.833C121.936 59.0229 123.983 60.7981 126.508 60.7981Z" fill="white"/>
<path d="M168.819 79.9963C171.992 82.8471 177.598 81.5808 178.922 77.7889C179.925 74.9157 180.915 71.0476 181.535 66.1652C175.543 63.5749 170.427 55.3106 167.28 41.3034C161.564 15.8606 153.563 1.65236 131.081 5.28677C165.404 14.1955 146.719 60.1377 168.819 79.9963Z" fill="#824641"/>
<path d="M59.3168 117.191H73.7654C73.7654 117.191 48.3936 102.432 44.202 76.3283C36.0481 25.5468 51.569 10.3533 64.9935 6.47627C62.8669 6.53869 60.6579 6.22851 57.9196 5.2871H27.4356L23.371 71.7026C25.9115 97.806 44.5826 112.014 59.3168 117.191Z" fill="#E7C9A5"/>
<path d="M57.9193 5.28676C23.5962 14.1954 42.2817 60.1377 20.1809 79.996C17.0082 82.8468 11.4024 81.5805 10.0783 77.7889C8.32855 72.7791 6.58104 64.8534 6.859 53.5289C7.23996 37.999 0 37.008 0 37.008C0 37.008 9.14509 0 36.5807 0C45.7258 0 57.9193 5.28676 57.9193 5.28676Z" fill="#965A50"/>
<path d="M56.899 4.86583C53.8056 3.62128 44.1577 0 36.5807 0C9.14509 0 0 37.008 0 37.008C0 37.008 7.23995 37.9993 6.859 53.5292C6.85383 53.7367 6.86085 53.9233 6.85716 54.1285C24.3991 -3.58127 51.3545 2.83928 56.899 4.86583Z" fill="#824641"/>
<path d="M94.5 140.1C113.02 140.1 128.033 130.633 128.033 118.954C128.033 107.276 113.02 97.8086 94.5 97.8086C75.9804 97.8086 60.9673 107.276 60.9673 118.954C60.9673 130.633 75.9804 140.1 94.5 140.1Z" fill="#BC8E78"/>
<path d="M79.2582 118.953V132.17C79.2582 139.469 86.0821 145.387 94.5 145.387C102.918 145.387 109.742 139.469 109.742 132.17V118.953H79.2582Z" fill="#FF8087"/>
<path d="M79.2582 129.277C83.6661 128.798 87.8252 127.635 91.4516 125.877V129.527C91.4516 130.986 92.8167 132.17 94.5 132.17C96.1833 132.17 97.5484 130.986 97.5484 129.527V125.843C101.14 127.62 105.31 128.796 109.742 129.278V118.953H79.2582V129.277Z" fill="#E6646E"/>
<path d="M114.314 95.1626H74.6857C62.0588 95.1626 51.8229 101.672 51.8229 109.701C51.8229 117.731 62.0592 124.24 74.6857 124.24C81.0441 124.24 86.7868 122.585 90.926 119.919C91.974 119.244 93.2376 118.907 94.4989 118.907C95.7625 118.907 97.026 119.244 98.074 119.919C102.213 122.585 107.956 124.24 114.314 124.24C126.941 124.24 137.177 117.731 137.177 109.701C137.177 101.672 126.941 95.1626 114.314 95.1626Z" fill="#D4AF91"/>
<path d="M94.5 84.5888C104.602 84.5888 112.79 89.3227 112.79 95.1623C112.79 100.794 105.103 103.76 99.5554 105.952C96.3395 107.223 92.6599 107.223 89.4439 105.952C83.8961 103.76 76.2091 100.794 76.2091 95.1623C76.2098 89.3231 84.3985 84.5888 94.5 84.5888Z" fill="#5D5360"/>
<path d="M85.2597 92.2712C84.8333 88.9444 87.5358 85.3868 87.5358 85.3868C80.8902 86.971 76.2098 90.7488 76.2098 95.1623C76.2098 100.794 83.8968 103.759 89.4446 105.952C92.6602 107.223 96.3402 107.223 99.5561 105.952C100.749 105.481 102.041 104.97 103.334 104.408C95.8337 103.258 86.1168 98.9625 85.2597 92.2712Z" fill="#4B3F4E"/>
</svg>
