<svg width="30" height="28" viewBox="0 0 30 28" fill="none" xmlns="http://www.w3.org/2000/svg">
<path d="M14.9143 5.41921C16.0786 2.65963 18.7384 0.731442 21.832 0.731442C25.9994 0.731442 29.0007 4.29646 29.378 8.54516C29.378 8.54516 29.5817 9.59984 29.1334 11.4986C28.523 14.0845 27.0881 16.382 25.1536 18.1353L14.9143 27.2709L4.84758 18.1348C2.91305 16.382 1.47816 14.0839 0.867737 11.498C0.419442 9.59926 0.623108 8.54459 0.623108 8.54459C1.00044 4.29588 4.00176 0.730865 8.16912 0.730865C11.2633 0.730865 13.75 2.65963 14.9143 5.41921Z" fill="#FF3E00"/>
<path d="M4.03869 10.0072C3.71963 10.0072 3.46173 9.74926 3.46173 9.43021C3.46173 6.24887 6.04996 3.66064 9.23129 3.66064C9.55035 3.66064 9.80825 3.91854 9.80825 4.2376C9.80825 4.55666 9.55035 4.81456 9.23129 4.81456C6.68634 4.81456 4.61564 6.88525 4.61564 9.43021C4.61564 9.74926 4.35774 10.0072 4.03869 10.0072Z" fill="white"/>
<path d="M29.9505 8.37093C29.5126 3.55104 26.101 0.0541048 21.8316 0.0541048C18.9872 0.0541048 16.3828 1.58477 14.9173 4.03799C13.4651 1.55304 10.9675 0.0535278 8.16866 0.0535278C3.89976 0.0535278 0.487636 3.55046 0.0503028 8.37035C0.0156854 8.58325 -0.126246 9.7037 0.305317 11.5309C0.927276 14.1665 2.3639 16.5637 4.45883 18.4619L14.9104 27.9465L25.5414 18.4625C27.6363 16.5637 29.0729 14.167 29.6949 11.5309C30.1265 9.70428 29.9845 8.58383 29.9505 8.37093ZM28.5716 11.2667C28.0038 13.6737 26.6878 15.8667 24.7694 17.6045L14.9173 26.3945L5.23426 17.6068C3.31241 15.8656 1.99695 13.6732 1.42865 11.2661C1.02017 9.53696 1.18806 8.56017 1.18864 8.55383L1.19729 8.49555C1.57231 4.27281 4.50383 1.20744 8.16866 1.20744C10.8728 1.20744 13.2534 2.86907 14.3831 5.54327L14.9144 6.80276L15.4458 5.54327C16.5576 2.91004 19.0639 1.20802 21.8321 1.20802C25.4964 1.20802 28.4285 4.27339 28.811 8.55094C28.8122 8.56017 28.98 9.53754 28.5716 11.2667Z" fill="black"/>
</svg>
