<svg width="30" height="28" viewBox="0 0 30 28" fill="none" xmlns="http://www.w3.org/2000/svg">
<path d="M15.4904 5.41921C16.6546 2.65963 19.3142 0.731442 22.4077 0.731442C26.5748 0.731442 29.576 4.29646 29.9533 8.54516C29.9533 8.54516 30.1569 9.59984 29.7087 11.4986C29.0983 14.0845 27.6635 16.382 25.729 18.1353L15.4904 27.2709L5.42424 18.1348C3.48982 16.382 2.05501 14.0839 1.44462 11.498C0.996356 9.59926 1.20001 8.54459 1.20001 8.54459C1.57732 4.29588 4.57847 0.730865 8.74559 0.730865C11.8396 0.730865 14.3262 2.65963 15.4904 5.41921Z" fill="white"/>
<path d="M29.9488 8.37093C29.5109 3.55104 26.0995 0.0541048 21.8303 0.0541048C18.9861 0.0541048 16.3818 1.58477 14.9165 4.03799C13.4643 1.55304 10.9668 0.0535278 8.16818 0.0535278C3.89953 0.0535278 0.487608 3.55046 0.0502999 8.37035C0.0156845 8.58325 -0.126239 9.7037 0.3053 11.5309C0.927223 14.1665 2.36376 16.5637 4.45857 18.4619L14.9095 27.9465L25.5399 18.4625C27.6347 16.5637 29.0713 14.167 29.6932 11.5309C30.1247 9.70428 29.9828 8.58383 29.9488 8.37093ZM28.5699 11.2667C28.0022 13.6737 26.6863 15.8667 24.768 17.6045L14.9165 26.3945L5.23395 17.6068C3.31222 15.8656 1.99684 13.6732 1.42857 11.2661C1.02011 9.53696 1.18799 8.56017 1.18857 8.55383L1.19722 8.49555C1.57222 4.27281 4.50357 1.20744 8.16818 1.20744C10.8722 1.20744 13.2526 2.86907 14.3822 5.54327L14.9136 6.80276L15.4449 5.54327C16.5566 2.91004 19.0628 1.20802 21.8309 1.20802C25.4949 1.20802 28.4268 4.27339 28.8093 8.55094C28.8105 8.56017 28.9784 9.53754 28.5699 11.2667Z" fill="black"/>
<path d="M9.2302 3.56027C6.04905 3.56027 3.46097 6.1485 3.46097 9.32983C3.46097 9.64889 3.71885 9.90679 4.03789 9.90679C4.35693 9.90679 4.61481 9.64889 4.61481 9.32983C4.61481 6.78488 6.68539 4.71418 9.2302 4.71418C9.54924 4.71418 9.80712 4.45629 9.80712 4.13723C9.80712 3.81817 9.54866 3.56027 9.2302 3.56027Z" fill="black"/>
</svg>
