<svg width="30" height="30" viewBox="0 0 30 30" fill="none" xmlns="http://www.w3.org/2000/svg">
<path d="M29.9493 8.9457C29.5114 3.76171 26.1 0.000620569 21.8306 0.000620569C18.9863 0.000620569 16.382 1.64691 14.9166 4.28545C13.4645 1.61278 10.9669 0 8.16816 0C3.89939 0 0.487377 3.76109 0.0500571 8.94508C0.0154408 9.17406 -0.126486 10.3791 0.305064 12.3444C0.927004 15.179 2.36358 17.7574 4.45845 19.7989L14.9097 30L25.5404 19.7996C27.6352 17.7574 29.0718 15.1796 29.6937 12.3444C30.1253 10.3798 29.9834 9.17468 29.9493 8.9457ZM28.5704 12.0602C28.0027 14.6491 26.6867 17.0078 24.7684 18.8768L14.9166 28.3307L5.23385 18.8793C3.31207 17.0065 1.99665 14.6485 1.42836 12.0596C1.01989 10.1998 1.18778 9.14924 1.18836 9.14241L1.19701 9.07974C1.57202 4.53801 4.50345 1.24108 8.16816 1.24108C10.8723 1.24108 13.2527 3.02823 14.3824 5.90444L14.9137 7.25908L15.4451 5.90444C16.5568 3.07229 19.0631 1.2417 21.8312 1.2417C25.4954 1.2417 28.4274 4.53863 28.8099 9.13931C28.811 9.14924 28.9789 10.2004 28.5704 12.0602Z" fill="black"/>
<path d="M9.2302 3.77164C6.04896 3.77164 3.46082 6.55539 3.46082 9.97704C3.46082 10.3202 3.71871 10.5976 4.03775 10.5976C4.3568 10.5976 4.61469 10.3202 4.61469 9.97704C4.61469 7.23984 6.68533 5.01272 9.2302 5.01272C9.54925 5.01272 9.80714 4.73534 9.80714 4.39218C9.80714 4.04903 9.54867 3.77164 9.2302 3.77164Z" fill="black"/>
</svg>
