<svg width="20" height="20" viewBox="0 0 20 20" fill="none" xmlns="http://www.w3.org/2000/svg">

<path d="M20.3918 9.09073C20.0677 9.09073 19.8047 9.35258 19.8047 9.67644C19.8047 10.0001 20.0677 10.2624 20.3918 10.2624C20.7165 10.2624 20.9789 10.0001 20.9789 9.67644C20.9789 9.35258 20.7165 9.09073 20.3918 9.09073Z" fill="black"/>
<path d="M9.72472 19.7367C9.39999 19.7367 9.13763 19.9993 9.13763 20.3227C9.13763 20.6468 9.39999 20.9086 9.72472 20.9086C10.0488 20.9086 10.3118 20.6468 10.3118 20.3227C10.3118 19.9993 10.0488 19.7367 9.72472 19.7367Z" fill="black"/>
<path d="M29.3577 3.60377C29.1595 3.55776 28.9513 3.6175 28.8082 3.7617L26.3743 6.21005H25.2075L23.923 4.88185V3.70104L26.322 1.271C26.464 1.12727 26.5218 0.920585 26.4747 0.723976C26.428 0.527595 26.283 0.369209 26.0913 0.304664C25.4886 0.101875 24.858 -0.000893317 24.2165 -0.000893317C22.3044 -0.000893317 20.5672 0.889 19.4504 2.44059C18.4051 3.89308 18.0829 5.67309 18.5445 7.37666L14.2201 11.6927L7.01543 4.48565V3.07116C7.01543 2.8654 6.90719 2.67451 6.73037 2.56876L2.57928 0.0826486C2.34811 -0.055825 2.05251 -0.0194327 1.86216 0.170768L0.201814 1.82764C0.0114702 2.01785 -0.0249932 2.31287 0.113522 2.54359L2.60404 6.68658C2.70999 6.86305 2.90103 6.97085 3.10719 6.97108L4.52399 6.97154L11.7293 14.1786L7.42134 18.4781C5.71444 18.0176 3.93003 18.3396 2.47401 19.3836C0.920304 20.4975 0.0293579 22.2309 0.0293579 24.1393C0.0293579 24.7792 0.132327 25.4089 0.335513 26.0102C0.400413 26.2027 0.560715 26.348 0.758856 26.3938C0.957226 26.4398 1.16523 26.38 1.30856 26.2358L3.74221 23.7877H4.91546L6.25222 25.1219V26.2928L3.79931 28.7217C3.65483 28.8648 3.59498 29.0724 3.64107 29.2704C3.68694 29.4681 3.83256 29.6281 4.02543 29.6929C4.62788 29.8957 5.25876 29.9984 5.89997 29.9984C7.81212 29.9984 9.54861 29.109 10.665 27.5583C11.711 26.1052 12.0336 24.3245 11.5722 22.6209L15.0321 19.1677L15.8247 20.027L15.461 20.3897C15.2316 20.6186 15.2316 20.9896 15.461 21.2185C15.6903 21.4472 16.0618 21.4472 16.2914 21.2185L16.6207 20.8898L24.0569 28.9515C24.0624 28.9575 24.0682 28.9632 24.0739 28.9689C25.4499 30.3422 27.6792 30.3427 29.0559 28.9687C30.4286 27.5979 30.4286 25.3675 29.0559 23.9967C29.0499 23.9907 29.0437 23.985 29.0375 23.9793L20.9474 16.5718L21.2731 16.2468C21.5024 16.0181 21.5024 15.6471 21.2731 15.4182C21.0438 15.1893 20.6722 15.1893 20.4427 15.4182L20.0815 15.7789L19.219 14.9888L22.6956 11.519C23.1898 11.6508 23.6999 11.7176 24.2165 11.7176C27.4538 11.7176 30.0872 9.08915 30.0872 5.85848C30.0872 5.2183 29.9842 4.58888 29.781 3.98737C29.7161 3.79489 29.5558 3.64955 29.3577 3.60377ZM5.18309 5.97178C5.07301 5.86169 4.92371 5.80561 4.76777 5.80561L3.43995 5.80516L1.35626 2.33302L2.36829 1.32296L5.84126 3.40304V4.72827C5.84126 4.88345 5.90295 5.03222 6.0128 5.14208L13.3899 12.5215L12.5595 13.35L5.18309 5.97178ZM20.1164 17.4012L28.2339 24.8337C29.1407 25.7483 29.138 27.2292 28.2255 28.1404C27.3109 29.0532 25.8303 29.0559 24.9121 28.1484L17.4515 20.0604L20.1164 17.4012ZM19.2504 16.6082L16.6555 19.1975L15.863 18.3383L18.3879 15.8181L19.2504 16.6082ZM24.2165 10.5458C23.7031 10.5458 23.1981 10.4636 22.716 10.3015C22.5048 10.2308 22.2714 10.2853 22.1136 10.4425C19.1704 13.38 12.8285 19.7093 10.4932 22.0402C10.3354 22.1977 10.2806 22.4307 10.3519 22.6417C10.84 24.088 10.6065 25.6307 9.7112 26.8747C8.81842 28.115 7.42914 28.8266 5.89997 28.8266C5.7282 28.8266 5.55735 28.8172 5.38811 28.7991L7.25279 26.9525C7.36378 26.8426 7.42639 26.6929 7.42639 26.5366V24.879C7.42639 24.7236 7.36447 24.5746 7.25439 24.4648L5.57363 22.7873C5.46356 22.6774 5.31426 22.6156 5.15855 22.6156H3.49774C3.34111 22.6156 3.19113 22.6781 3.08082 22.7889L1.23082 24.6499C1.21247 24.481 1.2033 24.3105 1.2033 24.1391C1.2033 22.6126 1.91605 21.2263 3.15902 20.3353C4.4052 19.4417 5.95111 19.2085 7.40048 19.6958C7.61169 19.767 7.84515 19.7123 8.00292 19.5548C8.03526 19.5227 19.615 7.96534 19.6233 7.9571C19.7811 7.79963 19.8357 7.56686 19.7646 7.35583C19.2763 5.90953 19.5093 4.36732 20.4039 3.12426C21.2974 1.88281 22.6869 1.17098 24.2163 1.17098C24.3934 1.17098 24.5692 1.18082 24.7435 1.20005L22.9176 3.04965C22.8094 3.15928 22.7488 3.30691 22.7488 3.46072V5.11828C22.7488 5.27026 22.8078 5.41606 22.9135 5.52523L24.5355 7.20271C24.6461 7.31715 24.7986 7.38169 24.958 7.38169H26.6188C26.7752 7.38169 26.9252 7.31944 27.0355 7.20843L28.8855 5.34762C28.9038 5.51654 28.913 5.68705 28.913 5.85848C28.913 8.44302 26.8061 10.5458 24.2165 10.5458Z" fill="black"/>
<path d="M18.3163 10.9193L10.9697 18.2515C10.7406 18.4802 10.7406 18.8512 10.9697 19.0801C11.1991 19.3089 11.5708 19.3089 11.8001 19.0801L19.1467 11.7478C19.376 11.5192 19.376 11.1482 19.1467 10.9193C18.9174 10.6904 18.5456 10.6904 18.3163 10.9193Z" fill="black"/>
<path d="M25.7352 26.4844C25.9645 26.7126 26.3362 26.7126 26.5656 26.483C26.7944 26.2539 26.7938 25.8829 26.5642 25.6545L21.2724 20.39C21.0429 20.1615 20.6709 20.1622 20.4422 20.3913C20.2131 20.6207 20.2138 20.9915 20.4434 21.2199L25.7352 26.4844Z" fill="black"/>

</svg>
