<svg width="30" height="30" viewBox="0 0 30 30" fill="none" xmlns="http://www.w3.org/2000/svg">
<path d="M22.0182 9.66408C24.0104 7.67212 25.1074 5.0235 25.1074 2.20642V1.52344C24.6172 1.52344 5.13336 1.52344 4.89258 1.52344V2.20642C4.89258 5.0235 5.98961 7.67212 7.9818 9.66408L12.4475 14.13C12.9282 14.6104 12.9282 15.3896 12.4475 15.8702L7.9818 20.3359C5.98961 22.3279 4.89258 24.9765 4.89258 27.7938V28.4766H25.1074V27.7938C25.1074 24.9765 24.0104 22.3279 22.0182 20.3359L17.5525 15.8702C17.0718 15.3896 17.0718 14.6104 17.5525 14.13L22.0182 9.66408Z" fill="#FFF9EB"/>
<path d="M23.3496 2.20619C23.3496 4.55406 22.4355 6.76117 20.7754 8.42102L16.3094 12.887C15.1444 14.052 15.1444 15.9478 16.3094 17.113L20.7754 21.579C22.4355 23.2388 23.3496 25.4459 23.3496 27.7936V28.4766H25.1074V27.7938C25.1074 24.9765 24.0104 22.3279 22.0182 20.3359L17.5525 15.8702C17.0718 15.3896 17.0718 14.6104 17.5525 14.13L22.0182 9.66408C24.0104 7.67212 25.1074 5.0235 25.1074 2.20642V1.52344H23.3496V2.20619Z" fill="#D3CDBF"/>
<path d="M19.9672 22.4648L19.1872 22.4693H19.1714C18.7775 22.4574 18.3996 22.3902 18.0412 22.2762C16.8997 21.9132 15.9764 21.0533 15.4614 19.9587H14.5825C13.9057 21.3934 12.477 22.414 10.8284 22.4636L10.0335 22.4639C8.92982 23.6707 8.23975 25.1564 8.03329 26.7732V28.2422H21.9665V26.7732C21.7603 25.1571 21.0706 23.6721 19.9672 22.4648V22.4648Z" fill="#FFB545"/>
<path d="M19.9672 22.4647L19.1872 22.4693H19.1714C18.7797 22.4574 18.4007 22.3901 18.0411 22.2761L18.9793 23.3379L18.994 23.3542C19.0107 23.3725 19.0274 23.391 19.0441 23.4095C19.0475 23.4134 19.051 23.4173 19.0544 23.4214C19.4987 23.9296 19.1235 24.7265 18.4486 24.7265H8.58169C8.46152 25.0124 8.35944 25.3058 8.27407 25.6054H8.27293C7.98225 26.6265 8.03352 26.9293 8.03352 28.2422H21.9667V27.0117C21.9665 26.1062 21.4824 24.1225 19.9672 22.4647V22.4647Z" fill="#FF983B"/>
<path d="M14.9998 12.5562C14.8954 12.4118 14.7787 12.2745 14.6503 12.1461L11.1236 8.61923C10.8469 8.34229 11.0431 7.86896 11.4345 7.86896H18.5655C18.9569 7.86896 19.1531 8.34206 18.8761 8.619L15.3481 12.1474C15.2202 12.2756 15.1039 12.4123 14.9998 12.5562V12.5562Z" fill="#FFB545"/>
<path d="M18.5653 7.86896H17.1405L13.7569 11.2527L14.5827 12.0783L15.4617 12.0339L18.8761 8.619C19.1531 8.34206 18.9569 7.86873 18.5653 7.86896V7.86896Z" fill="#FF983B"/>
<path d="M25.1074 0.439453C24.8183 0.439453 5.18166 0.439453 4.89258 0.439453C4.40712 0.439453 4.01367 0.832901 4.01367 1.31836V2.63672C4.01367 3.12218 4.40712 3.51562 4.89258 3.51562H25.1074C25.5929 3.51562 25.9863 3.12218 25.9863 2.63672V1.31836C25.9863 0.832901 25.5929 0.439453 25.1074 0.439453Z" fill="#FF8A65"/>
<path d="M25.1074 0.439453H24.2285C24.2285 1.16753 23.6382 1.75781 22.9102 1.75781C22.3972 1.75781 4.21486 1.75781 4.01367 1.75781V2.63672C4.01367 3.12218 4.40712 3.51562 4.89258 3.51562H25.1074C25.5929 3.51562 25.9863 3.12218 25.9863 2.63672V1.31836C25.9863 0.832901 25.5929 0.439453 25.1074 0.439453Z" fill="#FF3E00"/>
<path d="M25.1074 26.4844C24.8183 26.4844 5.18166 26.4844 4.89258 26.4844C4.40712 26.4844 4.01367 26.8778 4.01367 27.3633V28.6816C4.01367 29.1671 4.40712 29.5605 4.89258 29.5605H25.1074C25.5929 29.5605 25.9863 29.1671 25.9863 28.6816V27.3633C25.9863 26.8778 25.5929 26.4844 25.1074 26.4844Z" fill="#FF8A65"/>
<path d="M25.1074 26.4844H24.2285C24.2285 27.2124 23.6382 27.8027 22.9102 27.8027C22.3972 27.8027 4.21486 27.8027 4.01367 27.8027V28.6816C4.01367 29.1671 4.40712 29.5605 4.89258 29.5605H25.1074C25.5929 29.5605 25.9863 29.1671 25.9863 28.6816V27.3633C25.9863 26.8778 25.5929 26.4844 25.1074 26.4844Z" fill="#FF3E00"/>
<path d="M16.7924 23.7891C16.7924 24.0317 16.5955 24.2285 16.3529 24.2285C16.1101 24.2285 15.9135 24.0317 15.9135 23.7891C15.9135 23.5464 16.1101 23.3496 16.3529 23.3496C16.5955 23.3496 16.7924 23.5464 16.7924 23.7891Z" fill="#020201"/>
<path d="M18.5502 24.7266C18.5502 24.9692 18.3533 25.166 18.1107 25.166C17.8679 25.166 17.6713 24.9692 17.6713 24.7266C17.6713 24.4839 17.8679 24.2871 18.1107 24.2871C18.3533 24.2871 18.5502 24.4839 18.5502 24.7266Z" fill="#020201"/>
<path d="M14.4486 24.7266C14.4486 24.9692 14.2518 25.166 14.0092 25.166C13.7663 25.166 13.5697 24.9692 13.5697 24.7266C13.5697 24.4839 13.7663 24.2871 14.0092 24.2871C14.2518 24.2871 14.4486 24.4839 14.4486 24.7266Z" fill="#020201"/>
<path d="M12.6908 23.7891C12.6908 24.0317 12.494 24.2285 12.2514 24.2285C12.0085 24.2285 11.8119 24.0317 11.8119 23.7891C11.8119 23.5464 12.0085 23.3496 12.2514 23.3496C12.494 23.3496 12.6908 23.5464 12.6908 23.7891Z" fill="#020201"/>
<path d="M14.2142 9.19922C14.2142 9.44183 14.0174 9.63867 13.7748 9.63867C13.532 9.63867 13.3353 9.44183 13.3353 9.19922C13.3353 8.9566 13.532 8.75977 13.7748 8.75977C14.0174 8.75977 14.2142 8.9566 14.2142 9.19922Z" fill="#020201"/>
<path d="M15.9721 9.78516C15.9721 10.0278 15.7752 10.2246 15.5326 10.2246C15.2898 10.2246 15.0932 10.0278 15.0932 9.78516C15.0932 9.54254 15.2898 9.3457 15.5326 9.3457C15.7752 9.3457 15.9721 9.54254 15.9721 9.78516Z" fill="#020201"/>
<path d="M22.329 9.9749C23.9955 8.30841 25.0573 6.22055 25.4144 3.91869C25.9937 3.77975 26.4258 3.2579 26.4258 2.63672V1.31836C26.4258 0.591431 25.8344 0 25.1074 0H4.89258C4.16565 0 3.57422 0.591431 3.57422 1.31836V2.63672C3.57422 3.36365 4.16565 3.95508 4.89258 3.95508H24.5178C24.1642 6.0038 23.1992 7.86163 21.7076 9.35326L17.2417 13.8192C16.5907 14.4704 16.5907 15.5296 17.2417 16.1808L21.7076 20.6467C23.1992 22.1384 24.1642 23.9962 24.5178 26.0449H22.2878C21.982 24.6018 21.2968 23.2677 20.2906 22.1672C20.2073 22.0763 20.0896 22.0244 19.9665 22.0244L19.1785 22.0242C18.232 21.9939 17.328 21.6023 16.6328 20.9209C15.9721 20.2734 15.78 19.6566 15.4397 18.8251V12.6798L19.9372 8.17909C20.213 7.90329 20.0173 7.42905 19.6266 7.42905L10.3736 7.42973C9.98222 7.42973 9.78676 7.90352 10.063 8.17978L13.4461 11.5647C13.6203 11.7389 13.8988 11.7343 14.068 11.5654C14.2413 11.3919 14.2383 11.1152 14.0685 10.9442L11.434 8.30864L18.5655 8.30795L14.6889 12.1868C14.6883 12.1875 14.6878 12.1886 14.6864 12.1891C14.6027 12.2752 14.5605 12.3843 14.5605 12.4974V18.707C14.3147 19.4181 14.1165 20.1865 13.3674 20.9209C12.672 21.6023 11.7682 21.9939 10.8215 22.0242L10.0337 22.0244C9.91035 22.0244 9.79271 22.0763 9.7094 22.1672C8.70346 23.2674 8.01819 24.6016 7.7124 26.0449H5.48241C5.83649 23.9957 6.80145 22.1379 8.29216 20.6467L12.7583 16.1806C13.4104 15.5283 13.4106 14.4717 12.7583 13.8192L8.29216 9.35326C7.10449 8.1649 6.22627 6.69731 5.75272 5.10864C5.68474 4.87999 5.43961 4.74289 5.20615 4.81293C4.9752 4.88136 4.84062 5.12466 4.9102 5.3595C5.42839 7.09671 6.37207 8.67599 7.6712 9.9749L12.1367 14.4404C12.4459 14.751 12.4457 15.2493 12.1367 15.5596L7.6712 20.0251C6.80283 20.8932 6.09215 21.8866 5.55954 22.977C5.08003 23.958 4.75365 25.0008 4.58565 26.0813C4.00612 26.2202 3.57422 26.7421 3.57422 27.3633V28.6816C3.57422 29.4086 4.16565 30 4.89258 30H25.1074C25.8344 30 26.4258 29.4086 26.4258 28.6816V27.3633C26.4258 26.7421 25.9937 26.2202 25.4144 26.0813C25.0573 23.7794 23.9955 21.6916 22.329 20.0251L17.8633 15.5594C17.5548 15.2509 17.5548 14.7491 17.8633 14.4406L22.329 9.9749ZM4.89258 3.07617C4.65019 3.07617 4.45312 2.8791 4.45312 2.63672V1.31836C4.45312 1.07597 4.65019 0.878906 4.89258 0.878906H25.1074C25.3498 0.878906 25.5469 1.07597 25.5469 1.31836V2.63672C25.5469 2.8791 25.3498 3.07617 25.1074 3.07617H4.89258ZM10.2306 22.9033L10.8286 22.9031C10.833 22.9031 10.8373 22.9031 10.8417 22.9028C12.5688 22.8509 14.2227 21.817 15 20.0702C15.3642 20.8887 15.8984 21.5316 16.5848 22.0244H15C14.7574 22.0244 14.5605 22.221 14.5605 22.4638C14.5605 22.7065 14.7574 22.9033 15 22.9033H19.7694C20.5586 23.8115 21.1114 24.8863 21.3876 26.0449H8.61237C8.88863 24.8863 9.44138 23.8115 10.2306 22.9033V22.9033ZM25.5469 27.3633V28.6816C25.5469 28.924 25.3498 29.1211 25.1074 29.1211H4.89258C4.65019 29.1211 4.45312 28.924 4.45312 28.6816V27.3633C4.45312 27.1209 4.65019 26.9238 4.89258 26.9238H25.1074C25.3498 26.9238 25.5469 27.1209 25.5469 27.3633Z" fill="#020201"/>
</svg>
    