<svg width="25" height="25" viewBox="0 0 25 25" fill="none" xmlns="http://www.w3.org/2000/svg">
<path d="M17.5 35C27.165 35 35 27.165 35 17.5C35 7.83502 27.165 0 17.5 0C7.83502 0 0 7.83502 0 17.5C0 27.165 7.83502 35 17.5 35Z" fill="#E21B1B"/>
<path d="M34.8824 19.5032L25.1502 9.771L10.2709 25.1978L19.9046 34.8315C27.778 33.7487 33.9785 27.4318 34.8824 19.5032Z" fill="#C40606"/>
<path d="M24.2249 25.398C23.8749 25.398 23.5255 25.2645 23.258 24.9976L10.0084 11.7474C9.47406 11.2131 9.47406 10.348 10.0084 9.81421C10.5427 9.28046 11.4078 9.27992 11.9416 9.81421L25.1918 23.0644C25.7261 23.5987 25.7261 24.4639 25.1918 24.9976C24.9244 25.2645 24.5749 25.398 24.2249 25.398Z" fill="white"/>
<path d="M10.9747 25.3979C10.6247 25.3979 10.2752 25.2645 10.0078 24.9976C9.47351 24.4633 9.47351 23.5982 10.0078 23.0644L23.2581 9.81417C23.7924 9.27988 24.6575 9.27988 25.1913 9.81417C25.725 10.3485 25.7256 11.2136 25.1913 11.7474L11.9416 24.9976C11.6747 25.2645 11.3247 25.3979 10.9747 25.3979Z" fill="white"/>
</svg>
