<svg width="20" height="20" viewBox="0 0 20 20" fill="none" xmlns="http://www.w3.org/2000/svg">
<path d="M19.686 1.88263L11.8735 0.320131C11.7587 0.29709 11.6397 0.326845 11.5492 0.401003C11.4587 0.475313 11.4062 0.586092 11.4062 0.703127V1.875H3.98438C3.76862 1.875 3.59375 2.04987 3.59375 2.26563V8.55469H0.390625C0.174866 8.55469 0 8.72955 0 8.94531V11.1328C0 11.3486 0.174866 11.5234 0.390625 11.5234H3.59375V17.8125C3.59375 18.0283 3.76862 18.2031 3.98438 18.2031H11.4062V19.375C11.4062 19.492 11.4587 19.603 11.5492 19.6771C11.6197 19.7348 11.7073 19.7656 11.7969 19.7656C11.8224 19.7656 11.848 19.7632 11.8735 19.758L19.686 18.1955C19.8686 18.159 20 17.9987 20 17.8125V11.7969C20 11.5811 19.8251 11.4063 19.6094 11.4063C19.3936 11.4063 19.2188 11.5811 19.2188 11.7969V17.4922L12.1875 18.8985V1.17966L19.2188 2.58591V8.28125C19.2188 8.49701 19.3936 8.67188 19.6094 8.67188C19.8251 8.67188 20 8.49701 20 8.28125V2.26563C20 2.07947 19.8686 1.9191 19.686 1.88263V1.88263ZM0.78125 9.33594H5.92438C6.14014 9.33594 6.315 9.16107 6.315 8.94531V8.63312L8.75031 10.0391L6.315 11.445V11.1328C6.315 10.9171 6.14014 10.7422 5.92438 10.7422H0.78125V9.33594ZM4.375 17.4219V11.5234H5.53375V12.1216C5.53375 12.2612 5.60822 12.3901 5.72906 12.4599C5.78964 12.4948 5.85693 12.5122 5.92438 12.5122C5.99197 12.5122 6.05927 12.4948 6.11969 12.4599L9.72687 10.3774C9.84772 10.3076 9.92218 10.1787 9.92218 10.0391C9.92218 9.89945 9.84772 9.77051 9.72687 9.70078L6.11969 7.61826C5.99884 7.54852 5.85007 7.54852 5.72906 7.61826C5.60822 7.68799 5.53375 7.81693 5.53375 7.95654V8.55469H4.375V2.65625H11.4062V17.4219H4.375Z" fill="black"/>
</svg>
