<svg width="35" height="35" viewBox="0 0 35 35" fill="none" xmlns="http://www.w3.org/2000/svg">

<path d="M33.9062 17.4991C33.9062 28.3772 23.4768 36.2852 12.9649 33.2684C6.05473 31.283 1.09778 24.929 1.09778 17.4991C1.09778 8.4408 8.44052 1.09491 17.502 1.09491C26.5623 1.09491 33.9062 8.43957 33.9062 17.4991Z" fill="#FF8A65"/>
<path d="M32.9903 22.9173C30.7626 29.284 24.6985 33.9033 17.502 33.9033C11.2778 33.9033 5.74654 30.4181 2.96103 25.0997C4.55627 22.6621 8.00567 20.8465 10.6813 21.9494C11.4482 22.2659 12.103 22.8025 12.8336 23.1955C14.6914 24.1941 17.055 24.1818 18.9025 23.164C20.4309 22.322 21.545 20.8927 22.9612 19.8736C24.3774 18.8545 26.4382 18.3098 27.8107 19.3877C28.9214 20.2605 29.244 21.9433 30.4826 22.6213C31.233 23.0314 32.123 22.9638 32.9903 22.9173V22.9173Z" fill="#FF3E00"/>
<path d="M6.25494 10.2051C6.5766 9.03692 7.13086 7.86142 8.31203 7.58972C9.16772 7.39287 9.50845 7.70298 10.2817 6.83048C11.1606 5.83885 11.7047 4.77127 13.1894 3.99802C16.3515 2.3511 17.8305 5.9981 14.9249 6.8354C13.9547 7.11496 13.002 7.0153 11.6829 7.8321C10.8472 8.34958 10.7559 8.72415 10.4448 9.56097C9.61822 11.7839 7.48772 14.0449 6.31031 13.1184C5.5646 12.5314 6.0503 10.9485 6.25494 10.2051V10.2051Z" fill="white"/>
<path d="M19.6893 18.5928H9.84671C9.24276 18.5928 8.7531 18.1031 8.7531 17.4991C8.7531 16.8952 9.24276 16.4055 9.84671 16.4055H19.6893C20.2932 16.4055 20.7829 16.8952 20.7829 17.4991C20.7829 18.1031 20.2933 18.5928 19.6893 18.5928Z" fill="#242936"/>
<path d="M20.236 23.514C19.2705 23.514 18.7719 22.338 19.4628 21.6471L23.6107 17.4991L19.4628 13.3511C19.0357 12.9241 19.0357 12.2316 19.4628 11.8045C19.8898 11.3774 20.5823 11.3774 21.0094 11.8045L25.9307 16.7258C26.3578 17.1529 26.3578 17.8453 25.9307 18.2724L21.0094 23.1937C20.7958 23.4072 20.5159 23.514 20.236 23.514Z" fill="#242936"/>
<path d="M33.9062 18.6629C33.2961 18.6629 32.806 18.1649 32.8125 17.5576C32.8129 17.5186 32.8129 17.4799 32.8125 17.4408C32.8061 16.8369 33.2904 16.342 33.8943 16.3356C34.4978 16.3306 34.9932 16.8135 34.9996 17.4175C35.0002 17.4722 35.0002 17.5263 34.9996 17.581C34.9932 18.1809 34.5048 18.6629 33.9062 18.6629V18.6629Z" fill="#242936"/>
<path d="M5.12899 29.8723C-1.70918 23.0341 -1.71014 11.9657 5.12899 5.1266C9.07079 1.18474 14.4687 -0.516382 19.6891 0.138283C27.2688 1.08802 32.9923 6.72595 34.5593 13.5888C34.6938 14.1776 34.3254 14.764 33.7366 14.8984C33.1477 15.0327 32.5614 14.6645 32.427 14.0757C29.7466 2.33693 15.1603 -1.81143 6.67557 6.67318C0.705997 12.6428 0.705997 22.3561 6.67557 28.3257C12.5406 34.1907 22.2564 34.3973 28.3281 28.3257C30.3825 26.2713 31.8036 23.695 32.4379 20.875C32.5705 20.2858 33.1557 19.9156 33.7449 20.048C34.3341 20.1806 34.7044 20.7657 34.5718 21.355C31.5796 34.6579 14.9246 39.668 5.12899 29.8723V29.8723Z" fill="#242936"/>

</svg>
