<svg width="30" height="22" viewBox="0 0 30 22" fill="none" xmlns="http://www.w3.org/2000/svg">
<path d="M26.7359 7.65506C29.539 7.34457 29.539 5.24866 29.539 4.89936C29.539 4.55006 27.9451 3.23042 27.5604 2.84227C27.1757 2.45415 25.0305 2.3036 25.0305 2.3036V0.322662C25.0305 0.322662 22.2253 0.679237 21.4399 2.54133C21.4399 2.54133 19.4762 3.01675 18.8591 4.83921C18.242 6.66171 18.4103 9.98969 11.4535 12.0499C7.42186 13.2438 6.23546 16.2871 6.88956 18.6354C6.77294 18.6042 6.65559 18.5711 6.53787 18.5354C4.26945 17.8477 2.92621 16.6187 2.54545 14.8823C2.0945 12.8257 2.77797 11.2369 4.57697 10.1602C5.96261 9.33088 7.5341 9.10636 7.54616 9.10472C8.08059 9.0339 8.43259 8.67052 8.3323 8.29308C8.23201 7.91568 7.7175 7.66754 7.18295 7.73793C7.101 7.74877 5.15521 8.01594 3.37699 9.05601C1.71837 10.0261 -0.0646685 11.8565 0.599302 15.0951C1.2955 18.4909 5.00995 20.7777 8.49023 20.9545C9.13081 21.4068 9.92432 21.6773 10.8362 21.6773H21.1032C21.1032 21.6773 21.2715 19.8944 18.5225 19.8944H14.9267C16.168 19.875 20.43 19.626 20.43 17.1211C20.43 16.5728 20.3103 16.1035 20.1156 15.7028L22.7792 21.0201C22.9765 21.414 23.504 21.6773 24.0956 21.6773H27.5054C27.5054 20.3296 25.0871 19.9587 25.0871 19.9587V15.9998C28.0001 13.4769 26.5161 10.9929 26.0765 10.4495C25.6367 9.90621 23.9329 7.96555 26.7359 7.65506ZM20.1076 15.6868V15.6869C20.1076 15.6868 20.1076 15.6868 20.1076 15.6868Z" fill="white"/>
<path d="M18.5225 19.8944H16.8773C19.6264 19.8944 19.4581 21.6773 19.4581 21.6773H21.1032C21.1032 21.6773 21.2715 19.8944 18.5225 19.8944Z" fill="white"/>
<path d="M25.0871 19.9587V15.9998C28.0001 13.477 26.5161 10.993 26.0764 10.4496C25.6367 9.90621 23.9329 7.96555 26.7359 7.65505C27.2273 7.60062 27.6322 7.4912 27.9664 7.34607C27.1549 7.50841 26.2047 7.61822 25.0908 7.65505C22.2565 7.74877 23.9915 9.90621 24.4313 10.4496C24.8709 10.993 26.3549 13.477 23.4419 15.9998V19.9053C23.4419 20.2183 23.7674 20.4876 24.2071 20.5274C24.9156 20.5915 25.8603 20.835 25.8603 21.6773H27.5054C27.5054 20.3297 25.0871 19.9587 25.0871 19.9587Z" fill="white"/>
<path d="M25.6132 9.84687C25.3288 9.43036 25.0674 8.9092 25.1941 8.47501C20.2926 8.3982 18.3891 6.54609 18.389 6.54605C18.2333 7.04677 18.0219 7.58045 17.6854 8.12273L17.6854 8.12278C20.728 9.74438 23.8291 9.91994 25.6132 9.84687Z" fill="white"/>
<path d="M25.1941 8.47496C24.5978 8.46563 24.0462 8.42983 23.5366 8.37445C23.4058 8.81807 23.6803 9.38467 23.9729 9.83169C24.5927 9.86766 25.148 9.86589 25.6131 9.84683C25.3288 9.43036 25.0674 8.90921 25.1941 8.47496Z" fill="white"/>
<path d="M26.3503 3.63336C25.9842 3.63336 25.6863 3.84373 25.6863 4.10224C25.6863 4.36084 25.9842 4.57116 26.3503 4.57116C26.7165 4.57116 27.0143 4.3608 27.0143 4.10224C27.0143 3.84368 26.7165 3.63336 26.3503 3.63336Z" fill="black"/>
<path d="M26.5347 20.0373C26.1681 19.8789 25.8024 19.7765 25.544 19.7159V18.897C25.544 18.7187 25.3394 18.5742 25.087 18.5742C24.8346 18.5742 24.6301 18.7187 24.6301 18.897V19.9587C24.6301 20.11 24.7799 20.2411 24.9891 20.2739C24.9946 20.2748 25.5448 20.3627 26.0768 20.5962C26.5548 20.8059 26.8581 21.0601 26.983 21.3546H24.0956C23.6984 21.3546 23.3425 21.1768 23.21 20.9124L20.5464 15.5952C20.4625 15.4277 20.2027 15.3396 19.9652 15.398C19.7278 15.4565 19.6017 15.6395 19.6833 15.8075C19.8755 16.2033 19.973 16.6452 19.973 17.1211C19.973 18.0633 19.3146 18.7251 17.9604 19.1443C16.7935 19.5055 15.4431 19.5636 14.9166 19.5718C14.6663 19.5757 14.467 19.7212 14.4697 19.898C14.4725 20.0748 14.6764 20.2171 14.9267 20.2171H18.5225C19.2377 20.2171 19.7809 20.3521 20.1369 20.6183C20.4432 20.8473 20.567 21.1389 20.6163 21.3546H10.8363C10.0844 21.3546 9.40377 21.1432 8.81335 20.7263C8.73572 20.6714 8.63262 20.6381 8.52301 20.6326C5.54919 20.4815 1.94021 18.5611 1.10923 15.2996C1.06451 15.1242 0.827057 15.0078 0.578518 15.0391C0.3301 15.0707 0.164976 15.2385 0.209639 15.4139C0.61922 17.0213 1.68692 18.449 3.2974 19.5428C4.76104 20.5369 6.52781 21.1458 8.29007 21.2664C9.02326 21.7468 9.90018 22 10.8362 22H21.1032C21.3437 22 21.5431 21.8682 21.5591 21.6987C21.5626 21.6625 21.6335 20.8033 20.8093 20.1811C20.3221 19.8134 19.6418 19.6105 18.7844 19.5768C19.8026 19.1818 20.4637 18.6188 20.7398 17.9167L22.3483 21.1277C22.6098 21.6494 23.3119 21.9999 24.0956 21.9999H27.5054C27.7578 21.9999 27.9623 21.8554 27.9623 21.6772C27.9624 21.0079 27.4687 20.4409 26.5347 20.0373Z" fill="black"/>
<path d="M0.922008 14.0592C0.789482 11.5346 2.34238 10.0801 3.66837 9.30455C5.35752 8.31653 7.18979 8.06534 7.26662 8.05518C7.55367 8.01719 7.82938 8.15092 7.88306 8.35255C7.93668 8.55448 7.74767 8.74966 7.45728 8.78812C7.3883 8.79781 5.75101 9.0345 4.2814 9.91396C2.35286 11.0683 1.61687 12.7565 2.09378 14.9317C2.50019 16.7853 3.93477 18.0975 6.35758 18.8319C6.61794 18.9109 6.92857 19.0346 7.18455 18.8819C7.31122 18.8062 7.36996 18.6881 7.33797 18.5731C6.46208 15.4284 8.94894 13.1415 11.6302 12.3474C12.7184 12.0252 13.6948 11.6536 14.5322 11.2431C14.7396 11.1416 14.791 10.9404 14.6471 10.794C14.5031 10.6476 14.2184 10.6113 14.0111 10.7129C13.226 11.0977 12.3061 11.4473 11.2767 11.7522C7.31695 12.9248 5.96866 15.7511 6.31603 18.1071C4.4447 17.4466 3.32892 16.3465 2.99703 14.8329C2.57197 12.8947 3.20298 11.4054 4.87232 10.4062C6.14999 9.64163 7.62155 9.42305 7.63038 9.42176C8.41158 9.31823 8.92792 8.78511 8.78138 8.2334C8.63496 7.6823 7.88014 7.31785 7.09875 7.4206C7.01205 7.43209 4.9547 7.71401 3.08544 8.80736C1.60103 9.67571 -0.137651 11.2958 0.00864509 14.083C0.0180285 14.2612 0.232385 14.3989 0.482266 14.3936C0.734461 14.387 0.931331 14.2373 0.922008 14.0592Z" fill="black"/>
<path d="M29.996 4.89934C29.9934 4.87709 29.9935 4.85454 29.9891 4.83243C29.9708 4.73269 29.9127 4.62056 29.8055 4.47848C29.8026 4.47469 29.7993 4.47116 29.7962 4.4675C29.5592 4.15533 28.0258 2.749 27.9347 2.65718C27.5526 2.27173 26.2997 2.09334 25.4874 2.01636V0.322596C25.4874 0.124623 25.2256 -0.0300205 24.9495 0.0049615C24.8268 0.0205807 22.0022 0.400606 21.0689 2.30202C20.4908 2.49449 18.9631 3.14404 18.4146 4.76414C18.328 5.01994 18.2571 5.30088 18.1822 5.59833C17.8577 6.8853 17.4539 8.48699 15.3683 9.92641C15.1878 10.051 15.1844 10.2553 15.3609 10.3827C15.5371 10.5101 15.8265 10.5125 16.0071 10.3879C16.8425 9.81131 17.4328 9.2078 17.8626 8.61035C20.5556 9.92284 23.258 10.1826 24.9707 10.1826C25.0989 10.1826 25.2214 10.1811 25.3381 10.1785C25.4449 10.3221 25.547 10.4472 25.627 10.545L25.6796 10.6097C25.7644 10.7145 27.7227 13.2066 24.7329 15.7959C24.6664 15.8535 24.6301 15.9255 24.6301 15.9998V17.6061C24.6301 17.7844 24.8346 17.9288 25.0871 17.9288C25.3394 17.9288 25.5441 17.7844 25.5441 17.6061V16.1132C26.7868 15 27.3759 13.7743 27.2955 12.4684C27.2218 11.2707 26.5976 10.4432 26.4731 10.2894L26.4185 10.2223C26.1536 9.89823 25.4895 9.0856 25.6386 8.54972C25.6393 8.5474 25.6401 8.54507 25.6408 8.54275C25.6555 8.49262 25.6768 8.44478 25.707 8.40024C25.8549 8.18174 26.2249 8.03825 26.8068 7.97379C28.1373 7.82642 29.1073 7.28693 29.6118 6.41358C29.8145 6.06269 30.0323 5.21043 29.996 4.89934ZM18.2443 8.01178C18.4003 7.73378 18.5272 7.45952 18.6326 7.19261C19.5246 7.75675 21.4382 8.6554 24.7078 8.78444C24.7226 9.03753 24.8121 9.29497 24.9336 9.53709C23.3168 9.53356 20.769 9.27888 18.2443 8.01178ZM26.6651 7.3362C25.7677 7.43563 25.1679 7.69996 24.8823 8.12198C24.8775 8.12916 24.8736 8.13652 24.8689 8.14375C22.6504 8.06854 21.1326 7.60874 20.2369 7.22587C19.519 6.91895 19.0798 6.61362 18.8822 6.45937C18.9594 6.19715 19.0227 5.94638 19.082 5.71145C19.1545 5.42363 19.2231 5.1517 19.3035 4.91427C19.8502 3.29985 21.5196 2.8638 21.588 2.84659C21.7277 2.81277 21.8356 2.73338 21.8777 2.63343C22.3784 1.44662 23.7898 0.941342 24.5735 0.747198V2.30362C24.5735 2.4694 24.7515 2.60826 24.9852 2.62473C25.9809 2.69496 27.0303 2.88721 27.1859 3.02731C27.2909 3.1332 27.464 3.28952 27.6833 3.48745C27.9604 3.73762 28.4946 4.21996 28.8181 4.56703C28.7284 4.66393 28.6769 4.77864 28.6769 4.89934C28.6769 5.10579 28.8195 5.28711 29.0403 5.39696C28.9048 6.18476 28.3797 7.14631 26.6651 7.3362Z" fill="black"/>
</svg>
