<svg width="30" height="30" viewBox="0 0 30 30" fill="none" xmlns="http://www.w3.org/2000/svg">
<path d="M29.8349 13.4584L24.8274 8.91586V3.21654H20.6895V5.16163L14.9997 0L0.165102 13.4584C-0.0438657 13.6484 -0.0562796 13.9683 0.138205 14.173C0.332173 14.3772 0.65959 14.3888 0.869592 14.1993L3.10358 12.1723V13.8289V30H11.3795V17.8398C11.3795 17.2991 11.828 16.8609 12.3814 16.8609H17.6191C18.1725 16.8609 18.621 17.2991 18.621 17.8398V30H26.8969V13.8289V12.1723L29.1309 14.1993C29.2302 14.2897 29.357 14.3342 29.4832 14.3342C29.6223 14.3342 29.7604 14.2801 29.8618 14.173C30.0563 13.9683 30.0439 13.6484 29.8349 13.4584Z" fill="#FF3E00"/>
</svg>
