<svg width="30" height="30" viewBox="0 0 30 30"  xmlns="http://www.w3.org/2000/svg">
<path d="M29.742 13.689L25.2799 9.54562V2.75765H20.1398V4.77307L14.9997 0L0.258031 13.689C0.0503727 13.8823 0.0380366 14.2077 0.231303 14.4158C0.424056 14.6235 0.749422 14.6353 0.958109 14.4426L2.6641 12.8584V30H10.8882H19.1123H27.3364V12.8579L29.0424 14.442C29.1411 14.5341 29.267 14.5793 29.3924 14.5793C29.5307 14.5793 29.668 14.5243 29.7687 14.4153C29.962 14.2077 29.9496 13.8823 29.742 13.689ZM21.1678 3.78566H24.2519V8.59111L21.1678 5.72758V3.78566ZM11.9157 28.972V18.1455C11.9157 17.8797 12.1316 17.6638 12.3973 17.6638H17.6022C17.8679 17.6638 18.0838 17.8797 18.0838 18.1455V28.972H11.9157V28.972ZM26.3079 28.972H19.1118V18.1455C19.1118 17.3128 18.4348 16.6358 17.6022 16.6358H12.3973C11.5646 16.6358 10.8877 17.3128 10.8877 18.1455V28.972H3.6916V11.9034L14.9997 1.40272L22.3398 8.21845L25.2799 10.9483L26.3079 11.9029V28.972V28.972Z" />
</svg>
