<svg width="30" height="30" viewBox="0 0 30 30" fill="none" xmlns="http://www.w3.org/2000/svg">
<path d="M4.66218 26.5541C4.55466 26.5541 4.45154 26.5113 4.37552 26.4353C4.29949 26.3593 4.25677 26.2562 4.25677 26.1487V4.05406C4.25774 3.19419 4.59975 2.36982 5.20777 1.7618C5.81578 1.15379 6.64015 0.81178 7.50002 0.810814H25.3378C25.4454 0.810814 25.5485 0.853526 25.6245 0.929554C25.7005 1.00558 25.7433 1.1087 25.7433 1.21622V23.5135C25.7433 23.621 25.7005 23.7242 25.6245 23.8002C25.5485 23.8762 25.4454 23.9189 25.3378 23.9189C25.2303 23.9189 25.1272 23.8762 25.0512 23.8002C24.9752 23.7242 24.9324 23.621 24.9324 23.5135V1.62162H7.50002C6.85509 1.62227 6.23677 1.87875 5.78074 2.33478C5.32471 2.79081 5.06823 3.40913 5.06759 4.05406V26.1487C5.06759 26.2562 5.02487 26.3593 4.94884 26.4353C4.87282 26.5113 4.7697 26.5541 4.66218 26.5541Z" fill="black"/>
<path d="M17.2257 29.1892H16.0216C15.9141 29.1892 15.811 29.1465 15.735 29.0705C15.6589 28.9944 15.6162 28.8913 15.6162 28.7838C15.6162 28.6763 15.6589 28.5732 15.735 28.4971C15.811 28.4211 15.9141 28.3784 16.0216 28.3784H17.2257C17.3332 28.3784 17.4363 28.4211 17.5123 28.4971C17.5884 28.5732 17.6311 28.6763 17.6311 28.7838C17.6311 28.8913 17.5884 28.9944 17.5123 29.0705C17.4363 29.1465 17.3332 29.1892 17.2257 29.1892Z" fill="black"/>
<path d="M25.3378 29.1892H20.0635C19.956 29.1892 19.8529 29.1464 19.7769 29.0704C19.7008 28.9944 19.6581 28.8913 19.6581 28.7838C19.6581 28.6762 19.7008 28.5731 19.7769 28.4971C19.8529 28.4211 19.956 28.3783 20.0635 28.3783H24.9324V23.9189H7.29731C6.70595 23.9189 6.13881 24.1538 5.72066 24.572C5.3025 24.9901 5.06759 25.5573 5.06759 26.1486C5.06759 26.74 5.3025 27.3071 5.72066 27.7253C6.13881 28.1434 6.70595 28.3783 7.29731 28.3783H9.16623C9.27375 28.3783 9.37687 28.4211 9.4529 28.4971C9.52893 28.5731 9.57164 28.6762 9.57164 28.7838C9.57164 28.8913 9.52893 28.9944 9.4529 29.0704C9.37687 29.1464 9.27375 29.1892 9.16623 29.1892H7.29731C6.49091 29.1892 5.71754 28.8688 5.14733 28.2986C4.57712 27.7284 4.25677 26.955 4.25677 26.1486C4.25677 25.3422 4.57712 24.5688 5.14733 23.9986C5.71754 23.4284 6.49091 23.1081 7.29731 23.1081H25.3378C25.4454 23.1081 25.5485 23.1508 25.6245 23.2268C25.7005 23.3028 25.7433 23.406 25.7433 23.5135V28.7838C25.7433 28.8913 25.7005 28.9944 25.6245 29.0704C25.5485 29.1464 25.4454 29.1892 25.3378 29.1892Z" fill="black"/>
<path d="M13.1838 29.1892H12.004C11.8965 29.1892 11.7934 29.1465 11.7174 29.0705C11.6413 28.9944 11.5986 28.8913 11.5986 28.7838C11.5986 28.6763 11.6413 28.5732 11.7174 28.4971C11.7934 28.4211 11.8965 28.3784 12.004 28.3784H13.1838C13.2913 28.3784 13.3944 28.4211 13.4704 28.4971C13.5465 28.5732 13.5892 28.6763 13.5892 28.7838C13.5892 28.8913 13.5465 28.9944 13.4704 29.0705C13.3944 29.1465 13.2913 29.1892 13.1838 29.1892Z" fill="black"/>
<path d="M8.71619 23.9189C8.60867 23.9189 8.50556 23.8762 8.42953 23.8002C8.3535 23.7242 8.31079 23.621 8.31079 23.5135V1.21622C8.31079 1.1087 8.3535 1.00558 8.42953 0.929554C8.50556 0.853526 8.60867 0.810814 8.71619 0.810814C8.82371 0.810814 8.92683 0.853526 9.00286 0.929554C9.07888 1.00558 9.1216 1.1087 9.1216 1.21622V23.5135C9.1216 23.621 9.07888 23.7242 9.00286 23.8002C8.92683 23.8762 8.82371 23.9189 8.71619 23.9189Z" fill="black"/>
<path d="M17.027 14.1892C16.9409 14.1892 16.857 14.1618 16.7875 14.1109C16.6322 13.997 12.9896 11.3027 12.9896 9.03122C12.9896 8.56229 13.1194 8.1025 13.3645 7.70274C13.6096 7.30297 13.9605 6.97881 14.3784 6.76614C14.7964 6.55346 15.265 6.46056 15.7324 6.4977C16.1999 6.53485 16.648 6.70061 17.027 6.97662C17.4061 6.70061 17.8542 6.53485 18.3217 6.4977C18.7891 6.46056 19.2577 6.55346 19.6757 6.76614C20.0936 6.97881 20.4445 7.30297 20.6896 7.70274C20.9347 8.1025 21.0645 8.56229 21.0645 9.03122C21.0645 11.3015 17.4219 13.997 17.2666 14.1109C17.1971 14.1618 17.1132 14.1892 17.027 14.1892ZM15.5315 7.30054C15.0726 7.30108 14.6327 7.48358 14.3082 7.80801C13.9837 8.13245 13.8011 8.57234 13.8004 9.03122C13.8004 10.4635 15.9434 12.4301 17.027 13.275C18.1107 12.4293 20.2537 10.4615 20.2537 9.03122C20.2538 8.69026 20.1531 8.35688 19.9644 8.07292C19.7757 7.78896 19.5073 7.56709 19.1929 7.43516C18.8785 7.30324 18.5321 7.26714 18.1973 7.3314C17.8624 7.39566 17.5541 7.55741 17.3108 7.79635C17.2351 7.87063 17.1332 7.91224 17.027 7.91224C16.9209 7.91224 16.819 7.87063 16.7433 7.79635C16.4204 7.47793 15.985 7.29975 15.5315 7.30054V7.30054Z" fill="black"/>
</svg>
