<svg width="20" height="20" viewBox="0 0 20 20" fill="none" xmlns="http://www.w3.org/2000/svg">
<mask id="path-1-inside-1" fill="white">
<path d="M14.1935 6.45161C14.1935 4.13558 12.316 2.25806 9.99999 2.25806C7.68396 2.25806 5.80644 4.13558 5.80644 6.45161C5.80644 8.76763 7.68396 10.6452 9.99999 10.6452C12.3149 10.6425 14.1909 8.76653 14.1935 6.45161ZM6.4516 6.45161C6.4516 4.49186 8.04025 2.90322 9.99999 2.90322C11.9597 2.90322 13.5484 4.49186 13.5484 6.45161C13.5484 8.41135 11.9597 9.99999 9.99999 9.99999C8.0412 9.99763 6.45397 8.4104 6.4516 6.45161Z"/>
</mask>
<path d="M14.1935 6.45161C14.1935 4.13558 12.316 2.25806 9.99999 2.25806C7.68396 2.25806 5.80644 4.13558 5.80644 6.45161C5.80644 8.76763 7.68396 10.6452 9.99999 10.6452C12.3149 10.6425 14.1909 8.76653 14.1935 6.45161ZM6.4516 6.45161C6.4516 4.49186 8.04025 2.90322 9.99999 2.90322C11.9597 2.90322 13.5484 4.49186 13.5484 6.45161C13.5484 8.41135 11.9597 9.99999 9.99999 9.99999C8.0412 9.99763 6.45397 8.4104 6.4516 6.45161Z" fill="#242936"/>
<path d="M14.1935 6.45161L15.1935 6.45276V6.45161H14.1935ZM9.99999 10.6452L9.99999 11.6452L10.0011 11.6452L9.99999 10.6452ZM6.4516 6.45161L5.4516 6.45161L5.4516 6.45281L6.4516 6.45161ZM9.99999 9.99999L9.99878 11H9.99999V9.99999ZM15.1935 6.45161C15.1935 3.58329 12.8683 1.25806 9.99999 1.25806V3.25806C11.7637 3.25806 13.1935 4.68786 13.1935 6.45161H15.1935ZM9.99999 1.25806C7.13168 1.25806 4.80644 3.58329 4.80644 6.45161H6.80644C6.80644 4.68786 8.23625 3.25806 9.99999 3.25806V1.25806ZM4.80644 6.45161C4.80644 9.31992 7.13168 11.6452 9.99999 11.6452V9.64515C8.23625 9.64515 6.80644 8.21535 6.80644 6.45161H4.80644ZM10.0011 11.6452C12.8675 11.6418 15.1902 9.31907 15.1935 6.45276L13.1935 6.45045C13.1915 8.21399 11.7624 9.64312 9.99883 9.64516L10.0011 11.6452ZM7.4516 6.45161C7.4516 5.04415 8.59253 3.90322 9.99999 3.90322V1.90322C7.48796 1.90322 5.4516 3.93958 5.4516 6.45161H7.4516ZM9.99999 3.90322C11.4074 3.90322 12.5484 5.04415 12.5484 6.45161H14.5484C14.5484 3.93958 12.512 1.90322 9.99999 1.90322V3.90322ZM12.5484 6.45161C12.5484 7.85906 11.4074 8.99999 9.99999 8.99999V11C12.512 11 14.5484 8.96363 14.5484 6.45161H12.5484ZM10.0012 8.99999C8.59374 8.9983 7.4533 7.85785 7.4516 6.4504L5.4516 6.45281C5.45463 8.96295 7.48865 10.997 9.99878 11L10.0012 8.99999Z" fill="#242936" mask="url(#path-1-inside-1)"/>
<path d="M12.2926 14.9061C14.1013 12.3571 16.4516 8.62651 16.4516 6.45161C16.4516 2.88842 13.5632 0 10 0C6.43681 0 3.54839 2.88842 3.54839 6.45161C3.54839 8.62651 5.89876 12.3571 7.70745 14.9061C4.17386 15.1222 0.322586 15.8887 0.322586 17.4194C0.322586 19.1135 5.19091 20 10 20C14.8091 20 19.6774 19.1135 19.6774 17.4194C19.6774 15.8887 15.8261 15.1222 12.2926 14.9061V14.9061ZM10 0.645161C13.2053 0.648942 15.8027 3.24628 15.8065 6.45161C15.8065 9.3016 11.1445 15.4368 10 16.8994C8.85554 15.4368 4.19355 9.3016 4.19355 6.45161C4.19733 3.24628 6.79467 0.648942 10 0.645161V0.645161ZM10 19.3548C4.40383 19.3548 0.967747 18.2274 0.967747 17.4194C0.967747 16.7677 3.4668 15.7594 8.15509 15.5288C9.01226 16.7058 9.66876 17.5225 9.74941 17.6219C9.81068 17.6975 9.90266 17.7415 10 17.7415C10.0973 17.7415 10.1893 17.6975 10.2506 17.6219C10.3312 17.5225 10.9877 16.7058 11.8449 15.5288C16.5332 15.7594 19.0323 16.7677 19.0323 17.4194C19.0323 18.2274 15.5962 19.3548 10 19.3548V19.3548Z" fill="#242936"/>
</svg>
