<svg width="30" height="36" viewBox="0 0 41 36" fill="none" xmlns="http://www.w3.org/2000/svg">

<path d="M38.1481 21.9027C38.1814 21.8728 38.2145 21.8429 38.2474 21.8128C38.8746 21.2398 39.963 21.7658 39.7411 22.5361C38.8633 25.5833 37.02 28.4599 34.2122 30.7915C26.4644 37.2255 14.1716 36.9805 6.74606 30.26C-0.677876 23.5409 -0.607247 12.81 6.95803 6.16731C9.53835 3.90166 12.661 2.40123 15.9589 1.66652C16.8348 1.47135 17.4487 2.42297 16.797 2.97256C16.7219 3.03586 16.6474 3.10002 16.5734 3.16496C10.5561 8.44842 10.6497 17.0652 16.8524 22.2451C22.8406 27.2459 32.3672 27.0883 38.1481 21.9027Z" fill="#FCE25C"/>
<path d="M31.5929 32.6209C23.9 37.1003 13.3803 36.2648 6.74604 30.26C-0.678142 23.5409 -0.607513 12.81 6.95793 6.16716C9.53793 3.9018 12.6602 2.4013 15.9587 1.66638C16.0821 1.63858 16.1998 1.6343 16.3102 1.64856C15.2873 2.25446 14.3164 2.95445 13.4112 3.74925C5.84572 10.3921 5.77509 21.123 13.1993 27.8421C18.1092 32.2858 25.1478 33.899 31.5929 32.6209Z" fill="#FBD307"/>
<path d="M32.3956 15.0684L32.9771 16.1029C33.0686 16.2657 33.2455 16.3786 33.4502 16.4047L34.7504 16.5706C35.2658 16.6364 35.4716 17.1924 35.0986 17.5116L34.1578 18.3169C34.0097 18.4436 33.9421 18.6262 33.9771 18.8052L34.1992 19.9422C34.2872 20.393 33.7485 20.7367 33.2874 20.5239L32.1245 19.9871C31.9414 19.9026 31.7227 19.9026 31.5396 19.9871L30.3767 20.5239C29.9157 20.7367 29.3769 20.393 29.4649 19.9422L29.6871 18.8052C29.722 18.6262 29.6544 18.4436 29.5063 18.3169L28.5655 17.5116C28.1926 17.1924 28.3984 16.6363 28.9138 16.5706L30.2139 16.4047C30.4186 16.3786 30.5955 16.2657 30.6871 16.1029L31.2685 15.0684C31.4991 14.6584 32.1652 14.6584 32.3956 15.0684V15.0684Z" fill="#FCE25C"/>
<path d="M30.6456 19.0322C30.6456 19.4713 30.739 19.8919 30.9094 20.2783L30.3769 20.5242C29.9158 20.7366 29.3775 20.393 29.4652 19.9425L29.6876 18.8056C29.7225 18.6266 29.6552 18.4434 29.5066 18.3173L28.5657 17.5118C28.1931 17.1924 28.3985 16.6364 28.914 16.5708L30.2145 16.4048C30.4191 16.3784 30.5961 16.2658 30.6878 16.1032L31.2691 15.0682C31.4996 14.6583 32.1653 14.6583 32.3959 15.0682L32.8749 15.9215C31.5557 16.4775 30.6456 17.6615 30.6456 19.0322V19.0322Z" fill="#FBD307"/>
<path d="M27.1596 1.18934L28.0091 2.70067C28.204 3.04739 28.5807 3.28776 29.0165 3.34336L30.916 3.58572C32.0135 3.72572 32.4517 4.90987 31.6576 5.58955L30.283 6.76599C29.9677 7.03587 29.8238 7.42472 29.8982 7.80586L30.2227 9.46703C30.4102 10.4267 29.263 11.1586 28.2814 10.7055L26.5824 9.92125C26.1926 9.74133 25.727 9.74133 25.3372 9.92125L23.6382 10.7055C22.6566 11.1586 21.5094 10.4268 21.6969 9.46703L22.0214 7.80586C22.0958 7.42479 21.9519 7.03594 21.6366 6.76599L20.2621 5.58955C19.4679 4.90987 19.9062 3.72572 21.0036 3.58572L22.9031 3.34336C23.3389 3.28776 23.7156 3.04746 23.9105 2.70067L24.76 1.18934C25.2508 0.3162 26.6688 0.3162 27.1596 1.18934Z" fill="#FCE25C"/>
<path d="M24.522 8.21625C24.522 8.88631 24.6462 9.53142 24.8751 10.1338L23.6379 10.7054C22.6564 11.1581 21.5093 10.4267 21.6968 9.46655L22.0215 7.80566C22.0954 7.4243 21.9517 7.03581 21.6367 6.76565L20.2615 5.58949C19.4675 4.90945 19.9059 3.72545 21.0035 3.58573L22.9032 3.34337C23.3383 3.28777 23.7158 3.04684 23.9107 2.7004L24.7598 1.18921C25.251 0.315999 26.6685 0.315999 27.1596 1.18921L28.0088 2.7004C28.0469 2.76812 28.0924 2.83228 28.1444 2.89144C25.9873 3.91221 24.522 5.91382 24.522 8.21625V8.21625Z" fill="#FBD307"/>
<path d="M20.7653 36C17.4488 36 14.2037 35.2902 11.2561 33.9071C10.9595 33.768 10.8476 33.4441 11.0061 33.1836C11.1646 32.9232 11.5333 32.8249 11.8301 32.9641C15.3078 34.5959 19.2284 35.2305 23.168 34.7992C27.1861 34.3593 30.8602 32.8392 33.7934 30.4034C36.4192 28.2231 38.2718 25.4575 39.1508 22.4055C39.1951 22.2514 39.0875 22.1727 39.0193 22.1395C38.95 22.1057 38.8145 22.0663 38.6865 22.1834L38.5838 22.2764C35.6742 24.886 31.7697 26.3604 27.5892 26.4283C27.4889 26.4299 27.3881 26.4307 27.2881 26.4307C23.2169 26.4308 19.3726 25.0878 16.4326 22.6324C13.3194 20.0322 11.5752 16.5259 11.5216 12.7593C11.468 8.99194 13.109 5.45033 16.1425 2.78678C16.2196 2.71914 16.2974 2.65227 16.3761 2.58612C16.5027 2.47927 16.4589 2.36394 16.4215 2.30477C16.3898 2.25473 16.2957 2.14282 16.1084 2.18459C12.8184 2.9178 9.803 4.42571 7.38829 6.5453C3.84587 9.65572 1.87532 13.7908 1.83968 18.1888C1.80412 22.5823 3.70169 26.737 7.18298 29.8877C8.00325 30.6297 8.90122 31.3045 9.85211 31.8931C10.127 32.0632 10.1927 32.3967 9.99897 32.638C9.80519 32.8792 9.4255 32.9371 9.15053 32.7669C8.13794 32.1401 7.18192 31.4219 6.30913 30.6323C2.60377 27.2789 0.584023 22.8571 0.622017 18.1812C0.660011 13.5004 2.75721 9.09957 6.52727 5.78914C9.09695 3.53354 12.3065 1.92876 15.8088 1.14821C16.4768 0.999372 17.1506 1.25542 17.486 1.78541C17.8184 2.31062 17.7111 2.94247 17.2191 3.35776C17.146 3.41927 17.0745 3.48079 17.0037 3.54288C14.2043 6.00085 12.6899 9.26923 12.7394 12.746C12.7889 16.2219 14.3986 19.4578 17.2721 21.8577C20.0508 24.1784 23.7077 25.4212 27.5669 25.3593C31.4258 25.2966 35.0292 23.9363 37.7133 21.5288L37.8114 21.44C38.2844 21.0074 39.0084 20.9115 39.6098 21.2044C40.2093 21.4963 40.4993 22.0843 40.3315 22.6675C39.3957 25.9168 37.4241 28.8605 34.6301 31.1803C31.5073 33.7737 27.5959 35.392 23.3187 35.8603C22.4657 35.9536 21.6128 36 20.7653 36V36Z" fill="black"/>
<path d="M28.9055 11.377C28.5963 11.377 28.2854 11.3116 27.9982 11.1791L26.2987 10.3941C26.0864 10.2962 25.8324 10.2963 25.6199 10.3944L23.9221 11.179C23.2599 11.484 22.474 11.4338 21.8703 11.0483C21.2668 10.663 20.9704 10.0225 21.0966 9.37659L21.4213 7.71563C21.4619 7.5082 21.3833 7.2962 21.2111 7.14851L19.8371 5.97277C19.3022 5.51464 19.1136 4.8428 19.3447 4.21936C19.5755 3.59642 20.1776 3.15105 20.916 3.0571L22.8154 2.81474C23.0528 2.78444 23.258 2.65335 23.3645 2.4641L24.2136 0.95312C24.5443 0.365038 25.2134 0 25.9599 0H25.9605C26.7068 0.000213848 27.3756 0.365395 27.7055 0.95312L28.5554 2.46403C28.6619 2.65335 28.8668 2.78437 29.1038 2.81467L31.0033 3.05703C31.7419 3.15105 32.3442 3.59656 32.575 4.21979C32.8059 4.84315 32.6173 5.51478 32.0828 5.97256L30.7082 7.14886C30.6092 7.23347 30.5404 7.33976 30.5086 7.45659C30.4306 7.74379 30.1021 7.92107 29.7752 7.85278C29.4481 7.78435 29.2461 7.49601 29.324 7.20881C29.4093 6.89453 29.5941 6.60897 29.8585 6.38293L31.2327 5.20698C31.4358 5.03305 31.5047 4.78755 31.417 4.55054C31.3292 4.31367 31.1091 4.15093 30.8283 4.11515L28.9285 3.87278C28.2949 3.79181 27.7472 3.44217 27.4635 2.93741L26.6135 1.42629C26.4879 1.20268 26.2437 1.06938 25.96 1.06924C25.96 1.06924 25.9599 1.06924 25.9598 1.06924C25.6758 1.06924 25.4312 1.20268 25.3055 1.42629L24.4564 2.93734C24.1723 3.44231 23.6243 3.79195 22.9904 3.87286L21.0908 4.11522C20.81 4.15093 20.5902 4.31352 20.5025 4.55018C20.4147 4.78734 20.4837 5.03298 20.6871 5.20727L22.0614 6.38329C22.5206 6.77719 22.7298 7.34282 22.6213 7.89676L22.2966 9.5575C22.2486 9.80307 22.3569 10.0372 22.5862 10.1836C22.8161 10.3303 23.1036 10.3486 23.3554 10.2325L25.0531 9.44801C25.6209 9.18633 26.298 9.18633 26.8651 9.4478L28.5646 10.2328C28.8157 10.3486 29.1027 10.3303 29.3323 10.1838C29.5618 10.0373 29.6702 9.80314 29.6221 9.55743C29.6215 9.55401 29.6208 9.55059 29.6203 9.54709L29.6179 9.53284C29.5676 9.24094 29.7963 8.96842 30.1287 8.92423C30.4608 8.88003 30.7716 9.08083 30.8218 9.37281L30.8235 9.38243C30.9469 10.0265 30.6502 10.6646 30.0483 11.0487C29.707 11.2663 29.3076 11.377 28.9055 11.377V11.377Z" fill="black"/>
<path d="M33.5811 21.1232C33.3845 21.1232 33.1869 21.0815 33.0042 20.9972L31.8413 20.4604C31.8357 20.4578 31.829 20.4577 31.8231 20.4604L30.6603 20.9972C30.2402 21.191 29.741 21.1594 29.3573 20.9145C28.9735 20.6697 28.7848 20.2626 28.865 19.852L29.0872 18.715C29.0883 18.7095 29.0861 18.7038 29.0815 18.6998L28.1407 17.8946C27.8009 17.6038 27.681 17.1771 27.8276 16.781C27.9743 16.3848 28.357 16.1015 28.8265 16.0416L30.1267 15.8757C30.1331 15.8749 30.1386 15.8713 30.1415 15.8663L30.7229 14.8319C30.9328 14.4584 31.3579 14.2264 31.8322 14.2263C32.3067 14.2263 32.7318 14.4583 32.9418 14.8318V14.8319L33.5233 15.8664C33.5261 15.8714 33.5316 15.8749 33.538 15.8757L34.8381 16.0416C35.3076 16.1015 35.6903 16.3848 35.837 16.781C35.9836 17.1772 35.8636 17.6039 35.5239 17.8946L34.5831 18.6998C34.5785 18.7037 34.5765 18.7094 34.5775 18.7149L34.7996 19.8519C34.8798 20.2624 34.6913 20.6695 34.3074 20.9144C34.0903 21.0529 33.8365 21.1232 33.5811 21.1232V21.1232ZM31.8322 19.3891C32.03 19.3891 32.2277 19.4308 32.408 19.514L33.5708 20.0508C33.5793 20.0546 33.5814 20.0559 33.5914 20.0495C33.6011 20.0432 33.6007 20.041 33.5992 20.0328L33.3771 18.8957C33.3082 18.5433 33.4413 18.1838 33.7329 17.9342L34.6737 17.1289C34.6805 17.1231 34.6824 17.1215 34.6787 17.1114C34.6749 17.1013 34.6724 17.1009 34.663 17.0997L33.3629 16.9338C32.9597 16.8824 32.6114 16.6602 32.4311 16.3395L31.8498 15.3051C31.8455 15.2976 31.8444 15.2955 31.8322 15.2955C31.8202 15.2955 31.819 15.2975 31.8148 15.3051L31.2333 16.3396C31.053 16.6604 30.7047 16.8825 30.3017 16.9339L29.0015 17.0998C28.992 17.101 28.9895 17.1013 28.9858 17.1115C28.982 17.1216 28.9839 17.1231 28.9908 17.129L29.9316 17.9342C30.2233 18.1838 30.3562 18.5433 30.2874 18.8958L30.0653 20.0328C30.0637 20.041 30.0633 20.0433 30.0732 20.0496C30.0831 20.0559 30.0854 20.0547 30.0937 20.0509L31.2566 19.5141C31.4367 19.4308 31.6344 19.3891 31.8322 19.3891Z" fill="black"/>

</svg>
