<svg width="30" height="28" viewBox="0 0 30 28" fill="none" xmlns="http://www.w3.org/2000/svg">
<path d="M15 0.75C6.72898 0.75 -1.52588e-05 6.582 -1.52588e-05 13.75C-1.52588e-05 20.918 6.72898 26.75 15 26.75C17.2189 26.7597 19.4175 26.3273 21.4675 25.478L28.529 27.0465C28.602 27.0627 28.6766 27.071 28.7515 27.071C29.0722 27.0694 29.3727 26.9141 29.5595 26.6534C29.7463 26.3927 29.7967 26.0582 29.695 25.754L27.904 20.3855C29.2603 18.4378 29.9914 16.1234 30 13.75C30 6.582 23.271 0.75 15 0.75V0.75ZM26.9435 20.0135C26.8499 20.1439 26.8246 20.3113 26.8755 20.4635L28.746 26.071L21.5285 24.467C21.4929 24.4591 21.4565 24.455 21.42 24.455C21.3523 24.4552 21.2853 24.4689 21.223 24.4955C19.2558 25.3332 17.1381 25.7601 15 25.75C7.28048 25.75 0.999985 20.367 0.999985 13.75C0.999985 7.133 7.28048 1.75 15 1.75C22.7195 1.75 29 7.1335 29 13.75C28.9896 16.0021 28.2701 18.1936 26.9435 20.0135Z" fill="#807957"/>
<path d="M22 6.25H7.99998C6.89542 6.25 5.99998 7.14543 5.99998 8.25C5.99998 9.35457 6.89542 10.25 7.99998 10.25H22C23.1046 10.25 24 9.35457 24 8.25C24 7.14543 23.1046 6.25 22 6.25ZM22 9.25H7.99998C7.4477 9.25 6.99998 8.80228 6.99998 8.25C6.99998 7.69772 7.4477 7.25 7.99998 7.25H22C22.5523 7.25 23 7.69772 23 8.25C23 8.80228 22.5523 9.25 22 9.25Z" fill="#807957"/>
<path d="M22 11.75H7.99998C6.89542 11.75 5.99998 12.6454 5.99998 13.75C5.99998 14.8546 6.89542 15.75 7.99998 15.75H22C23.1046 15.75 24 14.8546 24 13.75C24 12.6454 23.1046 11.75 22 11.75ZM22 14.75H7.99998C7.4477 14.75 6.99998 14.3023 6.99998 13.75C6.99998 13.1977 7.4477 12.75 7.99998 12.75H22C22.5523 12.75 23 13.1977 23 13.75C23 14.3023 22.5523 14.75 22 14.75Z" fill="#807957"/>
<path d="M22 17.25H7.99998C6.89542 17.25 5.99998 18.1454 5.99998 19.25C5.99998 20.3546 6.89542 21.25 7.99998 21.25H22C23.1046 21.25 24 20.3546 24 19.25C24 18.1454 23.1046 17.25 22 17.25ZM22 20.25H7.99998C7.4477 20.25 6.99998 19.8023 6.99998 19.25C6.99998 18.6977 7.4477 18.25 7.99998 18.25H22C22.5523 18.25 23 18.6977 23 19.25C23 19.8023 22.5523 20.25 22 20.25Z" fill="#807957"/>
</svg>
