<svg width="30" height="30" viewBox="0 0 30 30" fill="none" xmlns="http://www.w3.org/2000/svg">
<g clip-path="url(#clip0)">
<path d="M22.2414 19.3965H7.75866C7.18734 19.3965 6.72418 19.8597 6.72418 20.431C6.72418 21.0024 7.18734 21.4655 7.75866 21.4655H22.2414C22.8128 21.4655 23.2759 21.0024 23.2759 20.431C23.2759 19.8597 22.8128 19.3965 22.2414 19.3965Z" fill="#FF3E00"/>
<path d="M22.2414 13.7069H7.75866C7.18734 13.7069 6.72418 14.17 6.72418 14.7414C6.72418 15.3127 7.18734 15.7758 7.75866 15.7758H22.2414C22.8128 15.7758 23.2759 15.3127 23.2759 14.7414C23.2759 14.17 22.8128 13.7069 22.2414 13.7069Z" fill="#FF3E00"/>
<path d="M22.2414 8.01724H7.75866C7.18734 8.01724 6.72418 8.4804 6.72418 9.05173C6.72418 9.62305 7.18734 10.0862 7.75866 10.0862H22.2414C22.8128 10.0862 23.2759 9.62305 23.2759 9.05173C23.2759 8.4804 22.8128 8.01724 22.2414 8.01724Z" fill="#FF3E00"/>
<path d="M27.7759 21.5224C29.2121 19.5523 29.9904 17.1794 30 14.7414C30 7.59827 23.2862 1.81033 15 1.81033C6.71379 1.81033 0 7.59827 0 14.7414C0 21.8845 6.71379 27.6724 15 27.6724C17.2817 27.6803 19.5412 27.2245 21.6414 26.3328L29.1083 27.9915C29.2902 28.0319 29.4798 27.9712 29.6045 27.8328C29.7293 27.6944 29.7699 27.4995 29.7109 27.3228L27.7759 21.5224ZM22.2414 22.5H7.75862C6.61596 22.5 5.68965 21.5737 5.68965 20.431C5.68965 19.2884 6.61596 18.3621 7.75862 18.3621H22.2414C23.384 18.3621 24.3103 19.2884 24.3103 20.431C24.3103 21.5737 23.384 22.5 22.2414 22.5ZM22.2414 16.8103H7.75862C6.61596 16.8103 5.68965 15.884 5.68965 14.7414C5.68965 13.5987 6.61596 12.6724 7.75862 12.6724H22.2414C23.384 12.6724 24.3103 13.5987 24.3103 14.7414C24.3103 15.884 23.384 16.8103 22.2414 16.8103ZM22.2414 11.1207H7.75862C6.61596 11.1207 5.68965 10.1944 5.68965 9.05171C5.68965 7.90906 6.61596 6.98275 7.75862 6.98275H22.2414C23.384 6.98275 24.3103 7.90906 24.3103 9.05171C24.3103 10.1944 23.384 11.1207 22.2414 11.1207Z" fill="#FF3E00"/>
</g>
<defs>
<clipPath id="clip0">
<rect width="30" height="30" fill="white"/>
</clipPath>
</defs>
</svg>
