<svg width="30" height="22" viewBox="0 0 30 22" fill="none" xmlns="http://www.w3.org/2000/svg">
<path d="M22.5976 19.5693V13.3607C21.9086 13.8619 20.955 14.1722 19.9013 14.1722V20.1686C21.1719 20.1686 21.7432 20.6568 22 21.0777H24.9051C24.9051 21.0777 24.8309 19.5693 22.5976 19.5693Z" fill="#6E563D"/>
<path d="M14.8742 14.0694H9.34957C8.66993 14.8984 7.59535 15.5414 6.56369 16.0118V19.7333C6.56369 20.4758 7.39487 21.0777 8.42011 21.0777H12.1057C12.1057 21.0777 12.0315 19.5693 9.79821 19.5693V16.4091C9.79815 16.4091 13.0112 15.6745 14.8742 14.0694Z" fill="#6E563D"/>
<path d="M25.9318 2.70587L24.798 1.6194C23.9455 0.80257 22.6135 0.32251 21.1997 0.32251C19.8102 0.32251 18.5565 0.926294 18.0192 1.85425L14.9352 7.18019H8.4508C7.35769 7.18019 6.341 7.41857 5.49539 7.82595C4.2151 7.28646 3.31301 6.57026 2.80684 5.68802C1.5943 3.57452 2.99354 1.14742 3.01468 1.11143C3.18493 0.824975 3.00268 0.492722 2.60719 0.368998C2.21141 0.245317 1.75202 0.377169 1.58112 0.663837C1.51158 0.78038 -0.480887 3.77307 0.983728 6.33855C1.56283 7.35299 2.51663 8.34381 3.85423 9.07906C3.34253 9.70701 3.0737 10.4476 3.14122 11.2328C3.1446 11.2721 3.14852 11.3118 3.15304 11.3517C3.29324 12.5948 2.19894 14.1183 1.29293 15.0294C0.746256 15.5791 0.447502 16.2375 0.447502 16.915V20.3327C0.447502 21.0752 1.27862 21.6771 2.30392 21.6771H5.98951C5.98951 21.6771 5.91528 20.1687 3.68202 20.1687V17.0085C3.68202 17.0085 7.69142 16.0921 9.34962 14.0696H16.6669V14.0788V20.3328C16.6669 21.0753 17.498 21.6772 18.5233 21.6772H22.2088C22.2088 21.6772 22.1346 20.1688 19.9013 20.1688V14.1722C22.0028 14.1722 23.7063 12.9385 23.7063 11.4166V6.45329H25.8353C26.9157 6.45329 27.9587 6.13032 28.6701 5.54133C29.161 5.13489 29.5537 4.569 29.5537 3.7987L25.9318 2.70587Z" fill="#A58260"/>
<path d="M8.00343 15.2305H13.0623C13.7055 14.9118 14.3444 14.5258 14.8742 14.0694H9.34952C8.98996 14.508 8.51929 14.8941 8.00343 15.2305Z" fill="#604B35"/>
<path d="M19.9013 15.3333C20.955 15.3333 21.9085 15.023 22.5976 14.5219V13.3607C21.9086 13.8619 20.955 14.1722 19.9013 14.1722V15.3333Z" fill="#604B35"/>
<path d="M3.68195 20.1686V17.0084C3.68195 17.0084 7.68209 16.094 9.34374 14.0763C9.35134 13.9716 9.35353 13.8661 9.34956 13.7601L8.33162 13.761C7.85115 13.7615 7.4021 13.9263 7.10762 14.2012C5.30797 15.8817 2.07862 16.4481 2.07862 16.4481V20.1766C2.07862 20.4308 2.33717 20.6469 2.68486 20.682C4.32596 20.8475 4.38611 21.6771 4.38611 21.6771H5.98945C5.98945 21.677 5.91522 20.1686 3.68195 20.1686Z" fill="#85684A"/>
<path d="M22.103 10.9998C22.103 12.3349 20.7918 13.2016 19.0511 13.4551C18.6149 13.5186 18.298 13.7923 18.298 14.1145V20.3347C18.298 20.5148 18.4875 20.6652 18.7351 20.6819C20.5413 20.8039 20.6055 21.677 20.6055 21.677H22.2088C22.2088 21.677 22.1346 20.1686 19.9013 20.1686V14.1722C22.0028 14.1722 23.7063 12.9385 23.7063 11.4166V6.13138H22.7491C22.3922 6.13138 22.103 6.34085 22.103 6.59927V10.9998Z" fill="#85684A"/>
<path d="M15.7226 5.82031L23.7063 7.99312V9.51643L14.9352 7.18016L15.7226 5.82031Z" fill="#FFDF65"/>
<path d="M22.103 9.08942L23.7063 9.51646V7.99315L22.103 7.55682V9.08942Z" fill="#FFCD2C"/>
<path d="M22.5082 2.93037C22.4348 2.76033 22.185 2.66555 21.9503 2.71874C21.7155 2.77186 21.5847 2.95278 21.6581 3.12277C21.665 3.13881 22.3008 4.65163 21.3237 5.63347C20.7938 5.46601 19.6171 4.96948 19.3241 3.80263C19.2802 3.62739 19.0485 3.51093 18.8063 3.54301C18.5643 3.57488 18.4038 3.74281 18.4478 3.91806C18.9263 5.82406 21.2499 6.30696 21.3485 6.32657C21.3875 6.33431 21.4271 6.3381 21.4664 6.3381C21.5888 6.3381 21.7078 6.30154 21.7932 6.23471C22.457 5.71556 22.7894 4.97524 22.7546 4.09377C22.7291 3.4487 22.5173 2.95118 22.5082 2.93037Z" fill="black"/>
<path d="M23.9943 2.66412C23.6421 2.66412 23.3557 2.87158 23.3557 3.12659C23.3557 3.38165 23.6421 3.58911 23.9943 3.58911C24.3465 3.58911 24.6329 3.38165 24.6329 3.12659C24.6329 2.87158 24.3464 2.66412 23.9943 2.66412Z" fill="black"/>
<path d="M3.28411 9.16362C2.83672 9.80968 2.63422 10.5264 2.69669 11.2534C2.70026 11.2948 2.70441 11.3366 2.70916 11.3787C2.76326 11.8584 2.61593 12.4276 2.2711 13.0704C2.18202 13.2364 2.29568 13.4233 2.52496 13.4878C2.57799 13.5027 2.6325 13.5098 2.68612 13.5098C2.86451 13.5098 3.03292 13.4317 3.10139 13.304C3.49539 12.5695 3.66208 11.904 3.59687 11.326C3.5926 11.2883 3.58886 11.2507 3.58571 11.2135C3.52621 10.5213 3.75169 9.84013 4.23773 9.24365C4.35264 9.10273 4.30347 8.92181 4.12342 8.82285C2.62983 8.00181 1.81545 6.95207 1.39526 6.21604C0.119365 3.9811 1.65239 1.32918 1.9727 0.820261C1.98119 0.806757 1.98695 0.797468 1.98992 0.792394C2.0632 0.669573 2.26088 0.612549 2.4306 0.665831C2.60008 0.718813 2.67858 0.861846 2.60495 0.985742C2.60126 0.991978 2.23749 1.61683 2.02353 2.50613C1.98131 2.68163 2.14354 2.84866 2.38588 2.87923C2.62793 2.90981 2.85887 2.79232 2.90109 2.61682C3.09557 1.80829 3.42146 1.24377 3.42383 1.23964C3.69076 0.790545 3.40364 0.26748 2.78381 0.0736153C2.16314 -0.120507 1.44015 0.0873338 1.17252 0.53613L1.16212 0.552729C0.932551 0.917494 0.507252 1.67265 0.23813 2.63161C-0.167098 4.07554 -0.0547455 5.36443 0.572158 6.46246C1.18344 7.53328 2.11682 8.4617 3.28411 9.16362Z" fill="black"/>
<path d="M29.9787 4.11954C29.993 4.01297 30.0006 3.9058 30.0006 3.79877C30.0006 3.66859 29.8925 3.5511 29.7266 3.50105L28.894 3.24981L28.8936 3.24973L26.2159 2.44176L25.1549 1.42496C24.2237 0.532698 22.7457 0 21.2012 0C19.6281 0 18.2185 0.67887 17.6101 1.72952L15.2141 5.8672L7.45218 0.126907C7.28009 -0.000473055 6.99808 -0.00253728 6.82243 0.122133C6.64666 0.24676 6.64369 0.450989 6.81584 0.57824L14.8403 6.5127L14.6406 6.85764H8.45236C7.40367 6.85764 6.38632 7.06079 5.49238 7.44689C4.41975 6.95685 3.65573 6.3243 3.21962 5.56428C2.92621 5.05274 2.77176 4.47226 2.76059 3.83906C2.75751 3.66236 2.55875 3.52066 2.3154 3.52066C2.3135 3.52066 2.31148 3.52066 2.30958 3.5207C2.06362 3.52298 1.86677 3.66919 1.86997 3.84732C1.88262 4.56313 2.05994 5.22407 2.39711 5.81181C2.93999 6.75795 3.90757 7.52941 5.27302 8.10477C5.41975 8.16661 5.60229 8.16266 5.74368 8.09454C6.54725 7.70741 7.48389 7.50275 8.45236 7.50275H14.8574L23.2626 9.74153V11.4167C23.2626 12.7583 21.7555 13.8497 19.903 13.8497C19.657 13.8497 19.4576 13.9941 19.4576 14.1722V20.1687C19.4576 20.3468 19.657 20.4912 19.903 20.4912C20.6458 20.4912 21.1807 20.6841 21.4927 21.0647C21.5739 21.1635 21.631 21.264 21.6712 21.3545H18.5248C17.7467 21.3545 17.1137 20.8961 17.1137 20.3327V14.0695C17.1137 13.8913 16.9144 13.7469 16.6684 13.7469H9.35106C9.19394 13.7469 9.04833 13.807 8.9681 13.9048C7.41827 15.7951 3.58773 16.6921 3.54943 16.7009C3.36416 16.7432 3.23815 16.8677 3.23815 17.0084V20.1686C3.23815 20.3467 3.43756 20.4911 3.68352 20.4911C4.42646 20.4911 4.96138 20.684 5.27337 21.0646C5.35449 21.1635 5.41161 21.2639 5.45188 21.3544H2.30548C1.52739 21.3544 0.894433 20.8961 0.894433 20.3326V16.9148C0.894433 16.3055 1.15774 15.7187 1.65584 15.2177C1.87621 14.9961 2.08963 14.758 2.29016 14.51C2.41451 14.3563 2.34313 14.1587 2.1309 14.0686C1.91878 13.9786 1.6458 14.0302 1.52151 14.184C1.33499 14.4146 1.13701 14.6356 0.933032 14.8408C0.325072 15.4521 0.00369263 16.1693 0.00369263 16.9148V20.3325C0.00369263 21.2517 1.0363 21.9995 2.30548 21.9995H5.99101C6.23953 21.9995 6.44493 21.8453 6.43609 21.6654C6.43525 21.6483 6.32979 20.0549 4.12883 19.8645V17.238C4.53162 17.1313 5.27699 16.9147 6.11975 16.5784V19.7332C6.11975 20.6524 7.15236 21.4002 8.42155 21.4002H12.1071C12.3558 21.4002 12.5611 21.2461 12.5522 21.0661C12.5514 21.0491 12.4459 19.4556 10.245 19.2652V16.6385C11.0953 16.413 13.477 15.6969 15.0789 14.3919H16.2229V20.3325C16.2229 21.2517 17.2555 21.9995 18.5247 21.9995H22.2103C22.4588 21.9995 22.6642 21.8453 22.6553 21.6654C22.6552 21.6611 22.6482 21.5568 22.603 21.4002H24.9066C25.1552 21.4002 25.3605 21.246 25.3517 21.0661C25.3508 21.0491 25.2454 19.4556 23.0445 19.2652V17.0742C23.0445 16.896 22.8451 16.7516 22.5991 16.7516C22.3531 16.7516 22.1537 16.896 22.1537 17.0742V19.5693C22.1537 19.7474 22.3531 19.8918 22.5991 19.8918C23.789 19.8918 24.2191 20.398 24.3744 20.7551H22.2707C21.9556 20.3545 21.3841 19.9541 20.3482 19.8645V14.478C21.006 14.4281 21.6195 14.2689 22.1537 14.0263V15.7841C22.1537 15.9622 22.3531 16.1066 22.5991 16.1066C22.8451 16.1066 23.0445 15.9622 23.0445 15.7841V13.4876C23.7328 12.9404 24.1532 12.2134 24.1532 11.4166V6.77584H25.8368C27.0668 6.77584 28.2222 6.4033 29.0069 5.75367C29.5674 5.28965 29.892 4.74461 29.9772 4.13033C29.9777 4.12676 29.9782 4.12315 29.9787 4.11954ZM9.66561 16.1016C9.48028 16.1439 9.35433 16.2684 9.35433 16.4091V19.5693C9.35433 19.7475 9.55368 19.8919 9.7997 19.8919C10.9896 19.8919 11.4197 20.3981 11.575 20.7552H8.42161C7.64357 20.7552 7.01055 20.2967 7.01055 19.7333V16.19C7.95884 15.7382 8.92309 15.1435 9.59839 14.3919H13.8229C12.0567 15.5428 9.69245 16.0954 9.66561 16.1016ZM15.5275 6.99388L15.969 6.23149L23.2625 8.2165V9.05418L15.5275 6.99388ZM28.3365 5.329C27.721 5.83856 26.8099 6.13082 25.8368 6.13082H23.7078C23.4618 6.13082 23.2625 6.27519 23.2625 6.45335V7.52739L16.3137 5.63618L18.4314 1.97894C18.9007 1.16865 19.9879 0.645069 21.2012 0.645069C22.4681 0.645069 23.6805 1.082 24.4442 1.81393L25.5781 2.9004C25.6257 2.94603 25.6892 2.98164 25.7621 3.00361L28.3311 3.77881C28.4335 4.06406 28.657 4.32076 28.9684 4.51058C28.8419 4.81118 28.6312 5.08499 28.3365 5.329Z" fill="black"/>
</svg>
