<svg width="30" height="30" viewBox="0 0 44 37" fill="none" xmlns="http://www.w3.org/2000/svg">

<path d="M36.3437 24.1086L42.9392 22.3446L37.8248 18.4233L42.8833 14.4513L36.2634 12.7534L38.8073 7.34079L31.961 8.19432L31.499 2.38729L25.7493 5.62731L22.3704 0.548065L18.3844 6.17623L11.7006 2.81098L11.5902 8.63015L4.70135 8.07074L7.56951 13.3674L1.06088 15.3463L6.35315 19.0969L1.48258 23.2319L8.17596 24.7114L5.88522 30.2033L12.6865 29.126L13.4175 34.9134L19.0123 31.4874L22.6244 36.4519L25.9313 31.3394L31.7261 34.5216L32.1062 28.7104L38.964 29.4955L36.3437 24.1086Z" fill="#F08740"/>
<path d="M21.957 29.1505C28.9708 29.1505 34.6567 24.3796 34.6567 18.4945C34.6567 12.6094 28.9708 7.83856 21.957 7.83856C14.9431 7.83856 9.25725 12.6094 9.25725 18.4945C9.25725 24.3796 14.9431 29.1505 21.957 29.1505Z" fill="#FFDB2D"/>
<path d="M21.9569 7.8382C21.6205 7.8382 21.2874 7.8494 20.9577 7.87093C27.5046 8.29853 32.6584 12.8913 32.6584 18.4944C32.6584 24.0975 27.5046 28.6903 20.9577 29.1179C21.2874 29.1394 21.6206 29.1506 21.9569 29.1506C28.9709 29.1506 34.6568 24.3797 34.6568 18.4944C34.6568 12.6092 28.971 7.8382 21.9569 7.8382Z" fill="#FFB700"/>
<path d="M18.5216 28.1859C16.0841 27.5787 13.8913 26.3024 12.347 24.5922C10.7519 22.8256 9.90872 20.717 9.90872 18.4944C9.90872 15.4987 11.4791 12.6749 14.2174 10.7472C14.4934 10.553 14.5299 10.2073 14.2988 9.9753C14.0678 9.74326 13.6568 9.71255 13.3808 9.90694C10.346 12.0434 8.60539 15.1734 8.60539 18.4944C8.60539 20.9585 9.5403 23.2962 11.3091 25.255C13.0198 27.1497 15.4499 28.5638 18.1515 29.2368C18.2133 29.2522 18.2756 29.2595 18.3368 29.2595C18.618 29.2595 18.8775 29.1053 18.9614 28.867C19.0635 28.5768 18.8666 28.2719 18.5216 28.1859Z" fill="black"/>
<path d="M21.9569 7.29019C19.5934 7.29019 17.2708 7.81549 15.2402 8.80921C14.9291 8.9614 14.8237 9.29693 15.0047 9.55853C15.1858 9.8202 15.5849 9.90873 15.8958 9.75654C17.7276 8.86008 19.8235 8.38624 21.957 8.38624C28.6004 8.38624 34.0053 12.9208 34.0053 18.4945C34.0053 24.0681 28.6004 28.6027 21.957 28.6027C21.4686 28.6027 20.9768 28.5779 20.4952 28.5291C20.139 28.4931 19.8133 28.7071 19.7703 29.0076C19.7272 29.3081 19.982 29.581 20.3394 29.6172C20.8724 29.6713 21.4167 29.6987 21.957 29.6987C29.3192 29.6987 35.3087 24.6725 35.3087 18.4945C35.3086 12.3164 29.319 7.29019 21.9569 7.29019Z" fill="black"/>
<path d="M43.3782 21.9396L38.7857 18.4185L43.328 14.8517C43.4982 14.7181 43.5706 14.5182 43.5181 14.3275C43.4656 14.1368 43.2961 13.9841 43.0734 13.927L37.1291 12.4023L39.4133 7.54204C39.4989 7.35993 39.4624 7.15332 39.3178 6.99998C39.1731 6.84663 38.9419 6.76981 38.7118 6.7985L32.5641 7.56495L32.1492 2.35042C32.1336 2.15502 31.9953 1.98151 31.7863 1.89522C31.5774 1.80887 31.3295 1.82281 31.1362 1.93179L25.9733 4.84119L22.9392 0.280455C22.8255 0.10962 22.612 0.00273911 22.3793 -6.97345e-06C22.1456 -0.00275306 21.9298 0.0992856 21.8106 0.267592L18.1588 5.42387L12.0353 2.34081C11.8357 2.24029 11.5872 2.23689 11.3837 2.33214C11.1803 2.42731 11.0527 2.6066 11.0489 2.8023L10.9498 8.02766L4.76374 7.52535C4.53197 7.50663 4.30595 7.59313 4.17069 7.7524C4.03542 7.91175 4.01153 8.11973 4.10795 8.29786L6.6834 13.054L0.839245 14.8311C0.620191 14.8976 0.460262 15.0573 0.41927 15.2501C0.378278 15.4429 0.46284 15.6393 0.640816 15.7655L5.39297 19.1333L1.01954 22.8463C0.855659 22.9854 0.792495 23.1875 0.853854 23.3762C0.915214 23.5651 1.09164 23.7121 1.3168 23.7619L7.32724 25.0905L5.27025 30.0219C5.19317 30.2066 5.23923 30.4119 5.39091 30.5604C5.54259 30.7089 5.77659 30.7781 6.00579 30.7419L12.113 29.7745L12.7696 34.9714C12.7941 35.1661 12.9404 35.3349 13.1532 35.4144C13.366 35.4938 13.613 35.4717 13.8012 35.3565L18.8251 32.2801L22.0686 36.738C22.1872 36.901 22.398 37 22.6244 37C22.63 37 22.6355 36.9999 22.641 36.9999C22.8738 36.9949 23.0857 36.8859 23.1969 36.7139L26.1663 32.123L31.3698 34.9805C31.5645 35.0874 31.8126 35.0991 32.0204 35.0106C32.2281 34.9222 32.364 34.7473 32.3767 34.5518L32.7182 29.3337L38.8762 30.0385C39.1072 30.0651 39.3369 29.9859 39.4793 29.8311C39.6218 29.6763 39.6553 29.4693 39.5672 29.2881L37.2142 24.4511L43.1367 22.8671C43.3585 22.8078 43.5259 22.6534 43.5757 22.4622C43.6256 22.271 43.5503 22.0716 43.3782 21.9396ZM36.1461 23.5864C35.9728 23.6328 35.8304 23.7379 35.7533 23.8765C35.6762 24.0151 35.6716 24.1745 35.7405 24.3161L37.9335 28.8244L32.1941 28.1674C32.0132 28.1466 31.8315 28.1904 31.6913 28.2878C31.551 28.3852 31.4654 28.5275 31.4556 28.6802L31.1373 33.5436L26.2876 30.8804C26.1353 30.7967 25.9481 30.7704 25.7719 30.8078C25.5955 30.8452 25.4456 30.9429 25.3587 31.0773L22.5912 35.3563L19.5682 31.2014C19.4733 31.0708 19.3178 30.9796 19.1393 30.9499C19.0972 30.9429 19.0546 30.9393 19.0123 30.9393C18.8756 30.9393 18.741 30.9755 18.6287 31.0443L13.9463 33.9117L13.3344 29.0681C13.3153 28.916 13.2212 28.7775 13.0753 28.6862C12.9292 28.5949 12.7448 28.5591 12.5658 28.5874L6.87367 29.4891L8.79075 24.8929C8.851 24.7485 8.83664 24.5896 8.75139 24.4545C8.66606 24.3195 8.51747 24.2205 8.34147 24.1816L2.73966 22.9432L6.81583 19.4825C6.94388 19.3738 7.01211 19.2251 7.00386 19.0723C6.9957 18.9194 6.91191 18.7764 6.77286 18.6778L2.34366 15.539L7.79087 13.8827C7.96198 13.8307 8.0993 13.7209 8.16986 13.5799C8.24041 13.4389 8.23766 13.2795 8.16221 13.1402L5.7619 8.70739L11.5273 9.1756C11.7083 9.19019 11.8886 9.14062 12.0241 9.03873C12.1598 8.93683 12.2386 8.79187 12.2416 8.63881L12.3339 3.76863L18.0494 6.64631C18.1979 6.72103 18.3758 6.74315 18.5435 6.70745C18.7113 6.67189 18.8555 6.58156 18.944 6.45647L22.3526 1.64374L25.1807 5.89475C25.2695 6.02822 25.4207 6.12448 25.5976 6.16011C25.7746 6.19573 25.9612 6.16762 26.1122 6.08242L30.9243 3.37074L31.311 8.2308C31.3232 8.38342 31.4106 8.52492 31.5522 8.62089C31.6939 8.71693 31.8766 8.7587 32.0568 8.73637L37.7866 8.02203L35.6575 12.5519C35.5906 12.6942 35.5976 12.8535 35.6765 12.9913C35.7555 13.1291 35.8994 13.2329 36.0734 13.2774L41.6137 14.6984L37.3801 18.0228C37.2471 18.1272 37.172 18.2736 37.1732 18.4265C37.1744 18.5794 37.2513 18.7251 37.3858 18.8282L41.6662 22.11L36.1461 23.5864Z" fill="black"/>

</svg>
