<svg width="30" height="30" viewBox="0 0 30 30" fill="none" xmlns="http://www.w3.org/2000/svg">
<g clip-path="url(#clip0)">
<path d="M5.55346 28.2278C5.36619 28.0121 5.00039 27.9614 4.73649 28.1145C4.47264 28.2676 4.41053 28.5666 4.59791 28.7823L5.48004 29.7981C5.59429 29.9297 5.77488 29.9999 5.95834 29.9999C6.07564 29.9999 6.19406 29.9711 6.29701 29.9114C6.56085 29.7583 6.62296 29.4593 6.43558 29.2435L5.55346 28.2278Z" fill="black"/>
<path d="M12.2357 25.6823C11.7689 23.8635 10.4728 22.2908 8.5863 21.2539L6.53664 20.1272C5.71475 19.6755 4.61003 19.7727 3.92308 20.3453V14.5738C3.92308 13.8162 3.29126 13.1726 2.38658 13.0084C1.80269 12.9024 1.20047 13.0173 0.734006 13.3232C0.267601 13.6291 0.00012207 14.0849 0.00012207 14.5738V22.0004C0.00012207 22.9734 0.364339 23.9071 1.05334 24.7005L2.09824 25.9037C2.2125 26.0353 2.39308 26.1055 2.57654 26.1055C2.69384 26.1055 2.81226 26.0768 2.91521 26.017C3.17905 25.8639 3.24116 25.5649 3.05378 25.3492L2.00888 24.1459C1.46139 23.5155 1.17199 22.7736 1.17199 22.0004V14.5738C1.17199 14.377 1.27969 14.1935 1.46742 14.0703C1.6551 13.9472 1.8975 13.901 2.13269 13.9436C2.49685 14.0097 2.7512 14.2688 2.7512 14.5738V20.466C2.7512 21.3001 3.12609 22.0948 3.80712 22.713C3.8363 22.7416 3.8663 22.7699 3.898 22.7974C4.28712 23.1344 4.74462 23.5316 5.17551 23.906L5.77873 24.4308C5.78067 24.4325 5.78277 24.4339 5.78477 24.4355C6.3008 24.8842 6.68137 25.2155 6.68933 25.2224C6.91076 25.4152 7.28165 25.4248 7.51755 25.2437C7.75345 25.0626 7.76511 24.7595 7.54351 24.5666C7.53285 24.5573 6.84695 23.9603 6.06367 23.2797L4.72018 22.1109C4.71678 22.1079 4.71368 22.1048 4.71028 22.1018C4.39528 21.7938 4.39921 21.3473 4.72938 21.0425C5.02147 20.7731 5.5174 20.7213 5.88285 20.9222L7.93239 22.0488C9.56411 22.9457 10.6851 24.3059 11.0888 25.879L12.0488 29.6193C12.1068 29.845 12.3503 30 12.6217 30C12.6615 30 12.702 29.9966 12.7426 29.9897C13.0593 29.9354 13.2621 29.6814 13.1957 29.4225L12.2357 25.6823Z" fill="black"/>
<path d="M4.33736 26.8275C4.14927 26.6121 3.78341 26.5621 3.52004 26.7158C3.25666 26.8695 3.19549 27.1686 3.38339 27.3839L3.38714 27.3882C3.50152 27.5192 3.68169 27.589 3.86462 27.589C3.9824 27.589 4.10128 27.5601 4.20447 27.4999C4.46784 27.3462 4.52902 27.0471 4.34111 26.8318L4.33736 26.8275Z" fill="black"/>
<path d="M29.266 13.3232C28.7996 13.0173 28.1971 12.9026 27.6135 13.0085C26.7088 13.1726 26.077 13.8163 26.077 14.5738V20.3453C25.3901 19.7727 24.2852 19.6756 23.4634 20.1272L21.4137 21.2539C19.5272 22.2907 18.2312 23.8635 17.7643 25.6823L16.8044 29.4225C16.7379 29.6814 16.9408 29.9353 17.2575 29.9897C17.298 29.9966 17.3385 30 17.3783 30C17.6497 30 17.8933 29.845 17.9512 29.6192L18.9112 25.8789C19.315 24.3059 20.4359 22.9457 22.0676 22.0488L24.1172 20.9222C24.4826 20.7213 24.9785 20.7731 25.2707 21.0425C25.6005 21.3469 25.6049 21.7927 25.291 22.1007C25.2873 22.104 25.2837 22.1075 25.28 22.1108C25.28 22.1108 22.4672 24.5574 22.4566 24.5666C22.235 24.7595 22.2467 25.0625 22.4825 25.2436C22.7184 25.4248 23.0892 25.4152 23.3108 25.2224C23.3187 25.2155 25.713 23.1345 26.1021 22.7974C26.1338 22.77 26.1638 22.7417 26.193 22.7131C26.8739 22.0948 27.2489 21.3001 27.2489 20.466V14.5738C27.2489 14.2688 27.5032 14.0097 27.8675 13.9436C28.1026 13.901 28.3449 13.9472 28.5327 14.0703C28.7205 14.1935 28.8282 14.377 28.8282 14.5738V22.0004C28.8282 22.7736 28.5388 23.5155 27.9913 24.146L23.5645 29.2436C23.3771 29.4593 23.4392 29.7583 23.703 29.9114C23.806 29.9712 23.9244 29.9999 24.0417 29.9999C24.2251 29.9999 24.4058 29.9297 24.52 29.7982L28.9468 24.7005C29.6358 23.9071 30 22.9734 30 22.0005V14.5738C29.9999 14.0849 29.7324 13.6291 29.266 13.3232Z" fill="black"/>
</g>
<g clip-path="url(#clip1)">
<path d="M19.3329 11.1044C18.1773 9.63361 16.2091 8.75537 14.0679 8.75537C11.9269 8.75537 9.95854 9.63361 8.8031 11.1044L6.01845 14.6485C5.55643 15.2366 5.34325 15.9159 5.40183 16.6127C5.46042 17.3096 5.78548 17.9586 6.34174 18.4898C6.8984 19.0209 7.63395 19.3837 8.46883 19.5394C9.30372 19.695 10.1596 19.6286 10.9437 19.3475L10.9948 19.3289C12.9681 18.635 15.2236 18.6412 17.1919 19.3475C17.6996 19.5295 18.2375 19.6216 18.7802 19.6216C19.0753 19.6216 19.3721 19.5943 19.6662 19.5396C20.5011 19.3841 21.2367 19.0212 21.7935 18.4902C22.35 17.9591 22.6752 17.31 22.734 16.613C22.7928 15.9159 22.5796 15.2366 22.1176 14.6484L19.3329 11.1044ZM20.6494 17.6918C19.9411 18.3674 18.7953 18.581 17.798 18.2232C16.6125 17.7978 15.3401 17.5852 14.0673 17.5852C12.7957 17.5852 11.5235 17.7977 10.3389 18.2226L10.3052 18.2347C9.31547 18.5762 8.18649 18.3599 7.48601 17.6918C6.77849 17.0161 6.69796 16.0596 7.28577 15.3113L10.0706 11.7672C10.948 10.6504 12.4422 9.98369 14.0679 9.98369C15.6936 9.98369 17.188 10.6504 18.0656 11.7672L20.8501 15.3111C21.4381 16.0597 21.3574 17.0165 20.6494 17.6918Z" fill="black"/>
<path d="M6.76843 11.0998C7.59685 10.8402 8.2262 10.2956 8.54068 9.56614C8.83968 8.87205 8.81519 8.08845 8.47132 7.35951C8.12725 6.63106 7.50143 6.0364 6.70926 5.68488C5.87672 5.31578 4.96229 5.25567 4.13524 5.51576C2.47134 6.03768 1.70778 7.71519 2.43333 9.25602C3.01291 10.4824 4.36468 11.2566 5.73134 11.2566C6.0803 11.2566 6.43024 11.2061 6.76843 11.0998ZM3.8382 8.81482C3.41066 7.90685 3.78627 6.94101 4.67602 6.66191C4.83669 6.61139 5.00657 6.5863 5.17997 6.5863C5.44762 6.5863 5.72409 6.64592 5.99017 6.76406C6.46865 6.97618 6.85092 7.34449 7.06645 7.80087C7.28178 8.25757 7.30099 8.73969 7.12033 9.15867C6.95477 9.54264 6.63794 9.82494 6.22843 9.9533L6.22764 9.95362C5.33907 10.233 4.2671 9.72199 3.8382 8.81482Z" fill="black"/>
<path d="M12.1716 8.32312C14.2517 8.32312 15.944 6.75016 15.944 4.81672C15.944 2.88281 14.2517 1.30952 12.1716 1.30952C10.0918 1.30952 8.39966 2.88281 8.39966 4.81672C8.39966 6.75016 10.0918 8.32312 12.1716 8.32312ZM12.1716 2.53768C13.4215 2.53768 14.4386 3.56011 14.4386 4.81672C14.4386 6.07285 13.4215 7.09496 12.1716 7.09496C10.9218 7.09496 9.90504 6.07285 9.90504 4.81672C9.90504 3.56011 10.9218 2.53768 12.1716 2.53768Z" fill="black"/>
<path d="M18.6865 9.18459H18.6867C19.0067 9.27123 19.3331 9.31263 19.6582 9.31263C21.1751 9.31263 22.6534 8.41185 23.2175 7.02751C23.5424 6.23064 23.521 5.38805 23.1574 4.65512C22.7769 3.88798 22.0717 3.33105 21.1716 3.08679C20.2714 2.84286 19.2974 2.94452 18.4296 3.37325C17.6006 3.78296 16.9654 4.44731 16.6411 5.24418C15.9563 6.92521 16.8739 8.69287 18.6865 9.18459ZM18.0697 5.63151C18.2815 5.11118 18.6863 4.68246 19.2097 4.42381C19.6938 4.18451 20.2221 4.12361 20.6968 4.25229C21.1714 4.38113 21.5495 4.68773 21.7619 5.11582C21.9914 5.57844 22.0012 6.1197 21.789 6.64003C21.3659 7.67844 20.1872 8.29708 19.1615 8.01909C18.1365 7.74094 17.6467 6.66992 18.0697 5.63151Z" fill="black"/>
<path d="M26.6308 8.77536L26.6302 8.77488C25.1957 7.91039 23.0504 8.28509 21.8476 9.6106C20.6459 10.9367 20.8338 12.7196 22.2661 13.5847C22.7885 13.9004 23.4057 14.0513 24.0374 14.0513C25.1383 14.0513 26.2838 13.5929 27.0493 12.7498C28.251 11.4237 28.0633 9.64081 26.6308 8.77536ZM25.8394 12.0191C25.1291 12.8013 23.9282 13.0607 23.1619 12.5976C22.3962 12.1352 22.3496 11.1227 23.0579 10.341C23.5287 9.82208 24.2164 9.53339 24.8503 9.53339C25.1709 9.53339 25.4777 9.60724 25.7355 9.76278C26.5007 10.2257 26.5471 11.2379 25.8394 12.0191Z" fill="black"/>
</g>
<defs>
<clipPath id="clip0">
<rect y="5.47615" width="30" height="24.5238" fill="white"/>
</clipPath>
<clipPath id="clip1">
<rect x="2.15906" width="25.6818" height="20.9524" fill="white"/>
</clipPath>
</defs>
</svg>
