<svg width="66" height="67" viewBox="0 0 66 67" fill="none" xmlns="http://www.w3.org/2000/svg">
<path d="M32.9943 66.0047C50.6791 66.0047 65.0156 51.4511 65.0156 33.4982C65.0156 15.5454 50.6791 0.991791 32.9943 0.991791C15.3094 0.991791 0.972984 15.5454 0.972984 33.4982C0.972984 51.4511 15.3094 66.0047 32.9943 66.0047Z" fill="#F4D44E"/>
<path d="M22.5348 58.3866C2.37394 46.5703 1.14959 17.6346 19.796 3.97787C13.8929 6.67411 8.73819 11.2084 5.25449 17.3339C-3.57187 32.8532 1.66612 52.6977 16.9538 61.6577C28.2041 68.2516 41.7616 67.1125 51.6556 59.8661C42.6025 64.001 31.7885 63.8102 22.5348 58.3866Z" fill="#E8C842"/>
<path d="M22.8559 38.5362C24.4691 38.5362 25.7769 36.8435 25.7769 34.7555C25.7769 32.6675 24.4691 30.9749 22.8559 30.9749C21.2427 30.9749 19.9349 32.6675 19.9349 34.7555C19.9349 36.8435 21.2427 38.5362 22.8559 38.5362Z" fill="#656566"/>
<path d="M25.0899 36.9731C23.4767 36.9731 22.1688 35.2804 22.1688 33.1924C22.1688 32.3659 22.3744 31.6019 22.722 30.9797C21.171 31.0703 19.9348 32.726 19.9348 34.7561C19.9348 36.8441 21.2425 38.5367 22.8558 38.5367C23.8304 38.5367 24.693 37.9183 25.2237 36.9688C25.1793 36.9712 25.1347 36.9731 25.0899 36.9731Z" fill="#4F4F51"/>
<path d="M43.1315 38.5362C44.7447 38.5362 46.0525 36.8435 46.0525 34.7555C46.0525 32.6675 44.7447 30.9749 43.1315 30.9749C41.5182 30.9749 40.2104 32.6675 40.2104 34.7555C40.2104 36.8435 41.5182 38.5362 43.1315 38.5362Z" fill="#656566"/>
<path d="M45.3661 36.9731C43.7529 36.9731 42.445 35.2804 42.445 33.1924C42.445 32.3659 42.6507 31.6019 42.9982 30.9797C41.4472 31.0703 40.211 32.726 40.211 34.7561C40.211 36.8441 41.5187 38.5367 43.132 38.5367C44.1066 38.5367 44.9692 37.9183 45.4999 36.9688C45.4555 36.9712 45.4109 36.9731 45.3661 36.9731Z" fill="#4F4F51"/>
<path d="M22.8555 29.9938C20.7118 29.9938 18.9678 32.1301 18.9678 34.7558C18.9678 37.3815 20.7118 39.5179 22.8555 39.5179C24.9992 39.5179 26.7432 37.3817 26.7432 34.7558C26.7432 32.13 24.9992 29.9938 22.8555 29.9938ZM22.8555 37.5554C21.7962 37.5554 20.9012 36.2734 20.9012 34.7559C20.9012 33.2385 21.7962 31.9566 22.8555 31.9566C23.9149 31.9566 24.8099 33.2386 24.8099 34.7559C24.8099 36.2735 23.9149 37.5554 22.8555 37.5554Z" fill="black"/>
<path d="M39.2439 34.7559C39.2439 37.3816 40.9879 39.5181 43.1316 39.5181C45.2753 39.5181 47.0193 37.3818 47.0193 34.7559C47.0193 32.1301 45.2753 29.994 43.1316 29.994C40.9879 29.994 39.2439 32.1302 39.2439 34.7559ZM43.1316 31.9565C44.1909 31.9565 45.0859 33.2385 45.0859 34.7558C45.0859 36.2733 44.1909 37.5553 43.1316 37.5553C42.0722 37.5553 41.1772 36.2733 41.1772 34.7558C41.1772 33.2385 42.0724 31.9565 43.1316 31.9565Z" fill="black"/>
<path d="M25.554 49.0271C25.3331 49.5204 25.5481 50.1022 26.0342 50.3267C26.5203 50.5507 27.0933 50.3328 27.3144 49.8393C29.5406 44.8603 36.4901 44.9407 38.6723 49.8376C38.8338 50.2002 39.1854 50.4147 39.5536 50.4147C40.2474 50.4147 40.7255 49.6831 40.4337 49.0287C37.557 42.5735 28.4649 42.5264 25.554 49.0271Z" fill="black"/>
<path d="M41.7653 23.617C41.2317 23.628 40.8077 24.0763 40.8186 24.6181C40.8295 25.1598 41.2663 25.5897 41.8048 25.5791C44.0091 25.5359 46.0685 26.4465 47.6616 27.9932C47.8489 28.1751 48.0895 28.2654 48.3296 28.2654C49.1923 28.2654 49.6312 27.1897 48.9979 26.575C46.9769 24.6126 44.4132 23.5617 41.7653 23.617Z" fill="black"/>
<path d="M24.2217 23.617C21.5739 23.5597 19.0098 24.6128 16.989 26.5748C16.6032 26.9493 16.5894 27.5705 16.9586 27.9623C17.1484 28.164 17.4026 28.2654 17.6572 28.2654C17.8974 28.2654 18.1379 28.1751 18.3252 27.9932C19.9336 26.4317 21.9525 25.5775 24.0259 25.5775C24.0779 25.5775 24.1301 25.5781 24.1821 25.5791C24.1889 25.5792 24.1955 25.5794 24.2022 25.5794C24.7268 25.5794 25.1575 25.153 25.1682 24.6181C25.1793 24.0762 24.7555 23.628 24.2217 23.617Z" fill="black"/>
<path d="M14.2809 5.91786C13.8408 6.22485 13.7293 6.83571 14.0315 7.28246C14.3338 7.72921 14.9356 7.84241 15.3757 7.53567C30.3748 -2.92629 50.8412 1.82823 59.8881 17.7351C67.366 30.8835 64.4654 47.3517 53.5769 57.1116C53.1766 57.4703 53.1387 58.0904 53.4921 58.4967C53.8444 58.9017 54.455 58.9427 54.8565 58.5828C66.4186 48.2195 69.5105 30.729 61.5624 16.7538C51.9409 -0.163712 30.1936 -5.18152 14.2809 5.91786Z" fill="black"/>
<path d="M50.0954 59.8107C49.5623 60.1673 49.0326 60.4998 48.5212 60.7996C41.3247 65.0173 32.956 66.1248 24.9561 63.949C1.27167 57.5065 -5.95341 27.0127 11.9526 10.3043C12.3458 9.93747 12.3716 9.3168 12.0101 8.91768C11.6488 8.51856 11.0374 8.49251 10.6442 8.85931C-8.38124 26.6123 -0.699699 59.0026 24.4556 65.8446C33.632 68.3409 43.2226 66.7544 51.1584 61.45C51.6044 61.1519 51.7278 60.5432 51.4344 60.0906C51.1407 59.638 50.5413 59.5127 50.0954 59.8107Z" fill="black"/>
</svg>
